<?xml version="1.0" encoding="UTF-8"?>
<!DOCTYPE svg PUBLIC "-//W3C//DTD SVG 1.1//EN" "http://www.w3.org/Graphics/SVG/1.1/DTD/svg11.dtd">
<svg xmlns="http://www.w3.org/2000/svg" version="1.1" width="120px" height="120px"
     style="shape-rendering:geometricPrecision; text-rendering:geometricPrecision; image-rendering:optimizeQuality; fill-rule:evenodd; clip-rule:evenodd">
<g><path style="opacity:0.999" fill="#fefefe" d="M 4.5,-0.5 C 40.8333,-0.5 77.1667,-0.5 113.5,-0.5C 115.475,1.13696 117.475,2.80363 119.5,4.5C 119.5,40.8333 119.5,77.1667 119.5,113.5C 117.863,115.475 116.196,117.475 114.5,119.5C 78.1667,119.5 41.8333,119.5 5.5,119.5C 3.52483,117.863 1.52483,116.196 -0.5,114.5C -0.5,78.1667 -0.5,41.8333 -0.5,5.5C 1.13696,3.52483 2.80363,1.52483 4.5,-0.5 Z"/></g>
<g><path style="opacity:1" fill="#efeff0" d="M 52.5,17.5 C 78.6134,15.8041 95.1134,27.4708 102,52.5C 104.493,72.6805 96.9929,87.8471 79.5,98C 52.6525,107.824 32.8192,99.9903 20,74.5C 13.7892,45.5721 24.6225,26.5721 52.5,17.5 Z"/></g>
<g><path style="opacity:1" fill="#380869" d="M 55.5,27.5 C 77.1461,27.4835 89.4794,38.1501 92.5,59.5C 89.1525,84.3304 75.1525,94.8304 50.5,91C 33.5718,83.32 26.4052,70.1534 29,51.5C 33.8334,39.0126 42.6668,31.0126 55.5,27.5 Z"/></g>
<g><path style="opacity:1" fill="#f4f1f6" d="M 56.5,41.5 C 69.5485,40.9387 78.7152,46.6054 84,58.5C 85.9701,80.1955 76.1368,90.3622 54.5,89C 41.5273,83.4616 36.0273,73.6282 38,59.5C 41.4159,50.5829 47.5826,44.5829 56.5,41.5 Z"/></g>
<g><path style="opacity:1" fill="#3b0d6b" d="M 76.5,76.5 C 74.9174,74.4922 73.9174,72.1589 73.5,69.5C 71.074,60.1693 65.074,56.6693 55.5,59C 47.5077,62.8214 44.841,68.9881 47.5,77.5C 47.7373,78.791 47.404,79.791 46.5,80.5C 38.9272,67.4719 41.9272,57.6386 55.5,51C 69.1323,49.1437 76.799,54.977 78.5,68.5C 78.6183,71.4857 77.9517,74.1524 76.5,76.5 Z"/></g>
<g><path style="opacity:1" fill="#e7e0ed" d="M 73.5,69.5 C 73.5155,81.6512 67.5155,86.8178 55.5,85C 52.3078,82.9718 49.6411,80.4718 47.5,77.5C 44.841,68.9881 47.5077,62.8214 55.5,59C 65.074,56.6693 71.074,60.1693 73.5,69.5 Z"/></g>
<g><path style="opacity:1" fill="#3d126d" d="M 55.5,62.5 C 67.043,61.2075 71.8764,66.2075 70,77.5C 66.7231,83.1088 61.8897,84.9422 55.5,83C 50.2061,79.5649 48.3728,74.7315 50,68.5C 51.3597,65.9774 53.193,63.9774 55.5,62.5 Z"/></g>
<g><path style="opacity:1" fill="#380969" d="M 66.5,78.5 C 65.3951,79.6005 64.0618,80.2671 62.5,80.5C 62.6621,78.4727 62.4955,76.4727 62,74.5C 60.2435,73.015 59.0768,73.3484 58.5,75.5C 57.6981,76.9516 57.1981,78.6183 57,80.5C 54.8634,78.6789 54.0301,76.3456 54.5,73.5C 54.5106,71.9826 55.1772,70.8159 56.5,70C 63.6742,68.3419 67.0076,71.1753 66.5,78.5 Z"/></g>
<g><path style="opacity:1" fill="#e3dcea" d="M 67.5,78.5 C 67.1667,78.5 66.8333,78.5 66.5,78.5C 67.0076,71.1753 63.6742,68.3419 56.5,70C 55.1772,70.8159 54.5106,71.9826 54.5,73.5C 53.8333,74.8333 53.1667,76.1667 52.5,77.5C 52.7285,66.4341 57.5619,63.7674 67,69.5C 68.7186,72.4543 68.8853,75.4543 67.5,78.5 Z"/></g>
<g><path style="opacity:1" fill="#eee9f2" d="M 62.5,80.5 C 61.6618,80.8417 61.3284,81.5084 61.5,82.5C 60.8333,82.5 60.1667,82.5 59.5,82.5C 58.7814,80.2362 58.448,77.9029 58.5,75.5C 59.0768,73.3484 60.2435,73.015 62,74.5C 62.4955,76.4727 62.6621,78.4727 62.5,80.5 Z"/></g>
<g><path style="opacity:1" fill="#967bb0" d="M 54.5,73.5 C 54.0301,76.3456 54.8634,78.6789 57,80.5C 57.1981,78.6183 57.6981,76.9516 58.5,75.5C 58.448,77.9029 58.7814,80.2362 59.5,82.5C 56.3567,82.031 54.0233,80.3644 52.5,77.5C 53.1667,76.1667 53.8333,74.8333 54.5,73.5 Z"/></g>
<g><path style="opacity:1" fill="#542c7d" d="M 73.5,69.5 C 73.9174,72.1589 74.9174,74.4922 76.5,76.5C 72.3148,85.2597 65.3148,88.7597 55.5,87C 52.0386,85.3572 49.0386,83.1905 46.5,80.5C 47.404,79.791 47.7373,78.791 47.5,77.5C 49.6411,80.4718 52.3078,82.9718 55.5,85C 67.5155,86.8178 73.5155,81.6512 73.5,69.5 Z"/></g>
<g><path style="opacity:1" fill="#9075ac" d="M 66.5,78.5 C 66.8333,78.5 67.1667,78.5 67.5,78.5C 66.1979,80.8218 64.1979,82.1551 61.5,82.5C 61.3284,81.5084 61.6618,80.8417 62.5,80.5C 64.0618,80.2671 65.3951,79.6005 66.5,78.5 Z"/></g>
</svg>
