<?xml version="1.0" encoding="UTF-8"?>
<!DOCTYPE svg PUBLIC "-//W3C//DTD SVG 1.1//EN" "http://www.w3.org/Graphics/SVG/1.1/DTD/svg11.dtd">
<svg xmlns="http://www.w3.org/2000/svg" version="1.1" width="800px" height="800px" style="shape-rendering:geometricPrecision; text-rendering:geometricPrecision; image-rendering:optimizeQuality; fill-rule:evenodd; clip-rule:evenodd" xmlns:xlink="http://www.w3.org/1999/xlink">
<g><path style="opacity:0.981" fill="#432800" d="M 576.5,9.5 C 649.134,2.74021 705.634,29.4069 746,89.5C 768.976,128.394 775.976,170.061 767,214.5C 752.179,273.321 716.679,314.154 660.5,337C 586.677,360.588 523.511,344.088 471,287.5C 428.6,232.786 420.267,173.119 446,108.5C 473.131,53.8584 516.631,20.8584 576.5,9.5 Z M 668.5,98.5 C 671.607,98.3512 674.607,98.8512 677.5,100C 686,108.5 694.5,117 703,125.5C 705.147,130.327 704.814,134.994 702,139.5C 662.833,178 623.667,216.5 584.5,255C 577.336,258.501 570.336,258.168 563.5,254C 542,232.5 520.5,211 499,189.5C 496.853,184.673 497.186,180.006 500,175.5C 507.5,168 515,160.5 522.5,153C 527.9,149.727 533.233,149.727 538.5,153C 550.667,165.167 562.833,177.333 575,189.5C 605.782,158.549 636.948,128.215 668.5,98.5 Z"/></g>
<g><path style="opacity:0.991" fill="#46b449" d="M 442.5,94.5 C 401.832,94.3333 361.165,94.5 320.5,95C 313.923,100.253 313.923,105.586 320.5,111C 358.165,111.5 395.832,111.667 433.5,111.5C 432.442,115.279 431.109,118.946 429.5,122.5C 393.165,122.333 356.832,122.5 320.5,123C 313.923,128.253 313.923,133.586 320.5,139C 355.165,139.5 389.832,139.667 424.5,139.5C 421.638,155.78 419.805,170.78 419,184.5C 419.333,183.167 419.667,181.833 420,180.5C 420.59,214.427 429.756,245.76 447.5,274.5C 405.165,274.333 362.832,274.5 320.5,275C 313.923,280.253 313.923,285.586 320.5,291C 367.499,291.5 414.499,291.667 461.5,291.5C 491.317,327.419 529.651,348.252 576.5,354C 575.168,449.099 575.168,544.265 576.5,639.5C 582.195,676.112 569.529,704.445 538.5,724.5C 518.371,734.099 497.371,736.099 475.5,730.5C 442.562,717.728 424.728,693.728 422,658.5C 421.667,637.5 421.333,616.5 421,595.5C 420.167,594 419,592.833 417.5,592C 322.834,591.5 228.167,591.333 133.5,591.5C 133.5,403.167 133.5,214.833 133.5,26.5C 259.221,26.6611 384.888,26.4944 510.5,26C 481.599,42.7341 458.932,65.5674 442.5,94.5 Z"/></g>
<g><path style="opacity:1" fill="#f3faf3" d="M 217.5,55.5 C 220.044,55.1043 222.211,55.771 224,57.5C 224.667,62.5 224.667,67.5 224,72.5C 221.333,75.1667 218.667,75.1667 216,72.5C 215.333,67.5 215.333,62.5 216,57.5C 216.717,56.9558 217.217,56.2891 217.5,55.5 Z"/></g>
<g><path style="opacity:1" fill="#f4faf4" d="M 187.5,63.5 C 189.199,63.3398 190.866,63.5065 192.5,64C 196.801,68.4156 198.967,73.5823 199,79.5C 196.034,82.2652 193.367,81.9318 191,78.5C 189.149,74.7971 187.315,71.1304 185.5,67.5C 185.752,65.9271 186.418,64.5938 187.5,63.5 Z"/></g>
<g><path style="opacity:1" fill="#f4faf4" d="M 246.5,63.5 C 250.525,62.5776 252.859,64.0776 253.5,68C 252.159,71.184 250.659,74.3506 249,77.5C 247.184,81.6632 244.351,82.4965 240.5,80C 239.919,79.1074 239.585,78.1074 239.5,77C 241.435,72.2973 243.768,67.7973 246.5,63.5 Z"/></g>
<g><path style="opacity:1" fill="#fbfdfb" d="M 275.5,103.5 C 274.539,105.265 274.205,107.265 274.5,109.5C 279.833,109.5 285.167,109.5 290.5,109.5C 292.914,110.406 293.747,112.072 293,114.5C 282.5,128.333 272,142.167 261.5,156C 257.663,157 255.663,155.5 255.5,151.5C 256.754,143.407 258.421,135.407 260.5,127.5C 254.833,126.833 249.167,126.167 243.5,125.5C 241.876,124.131 241.376,122.464 242,120.5C 252.5,106.667 263,92.8333 273.5,79C 277.534,78.024 279.534,79.6906 279.5,84C 278.027,90.4849 276.693,96.9849 275.5,103.5 Z"/></g>
<g><path style="opacity:1" fill="#fdfefd" d="M 211.5,82.5 C 225.981,80.6031 238.148,84.9364 248,95.5C 248.667,96.8333 248.667,98.1667 248,99.5C 242.947,105.552 238.281,111.885 234,118.5C 233.435,129.772 238.935,135.438 250.5,135.5C 245.789,143.755 241.455,152.255 237.5,161C 225.486,161.833 213.486,161.666 201.5,160.5C 196.176,149.183 190.343,138.183 184,127.5C 181,104.802 190.166,89.8017 211.5,82.5 Z"/></g>
<g><path style="opacity:1" fill="#f5fbf5" d="M 166.5,84.5 C 171.643,85.7383 176.31,88.0716 180.5,91.5C 182.877,97.6245 180.877,99.7912 174.5,98C 171.339,96.5869 168.339,94.9203 165.5,93C 164.041,89.9295 164.374,87.0961 166.5,84.5 Z"/></g>
<g><path style="opacity:0.993" fill="#fefefe" d="M 442.5,94.5 C 444.604,94.2011 446.604,94.5344 448.5,95.5C 445.763,100.397 443.263,105.397 441,110.5C 438.619,111.435 436.119,111.768 433.5,111.5C 395.832,111.667 358.165,111.5 320.5,111C 313.923,105.586 313.923,100.253 320.5,95C 361.165,94.5 401.832,94.3333 442.5,94.5 Z"/></g>
<g><path style="opacity:1" fill="#b7e1b8" d="M 275.5,103.5 C 275.5,105.167 275.5,106.833 275.5,108.5C 280.695,108.179 285.695,108.513 290.5,109.5C 285.167,109.5 279.833,109.5 274.5,109.5C 274.205,107.265 274.539,105.265 275.5,103.5 Z"/></g>
<g><path style="opacity:1" fill="#f4faf4" d="M 158.5,114.5 C 163.511,114.334 168.511,114.501 173.5,115C 176.034,117.587 176.034,120.253 173.5,123C 168.5,123.667 163.5,123.667 158.5,123C 155.899,120.17 155.899,117.337 158.5,114.5 Z"/></g>
<g><path style="opacity:0.995" fill="#fefefe" d="M 429.5,122.5 C 431.5,122.5 433.5,122.5 435.5,122.5C 433.756,128.065 432.423,133.732 431.5,139.5C 429.167,139.5 426.833,139.5 424.5,139.5C 389.832,139.667 355.165,139.5 320.5,139C 313.923,133.586 313.923,128.253 320.5,123C 356.832,122.5 393.165,122.333 429.5,122.5 Z"/></g>
<g><path style="opacity:1" fill="#f7fbf7" d="M 175.5,138.5 C 180.494,138.329 182.328,140.662 181,145.5C 176.633,149.772 171.466,151.939 165.5,152C 164.409,149.936 164.242,147.769 165,145.5C 168.651,143.267 172.151,140.934 175.5,138.5 Z"/></g>
<g><path style="opacity:1" fill="#fafdfa" d="M 202.5,170.5 C 214.414,170.179 226.247,170.512 238,171.5C 238.667,175.833 238.667,180.167 238,184.5C 236.266,185.249 234.433,185.749 232.5,186C 226.738,198.062 218.905,199.562 209,190.5C 207.991,188.975 207.491,187.308 207.5,185.5C 205.533,185.739 203.699,185.406 202,184.5C 201.227,179.748 201.393,175.081 202.5,170.5 Z"/></g>
<g><path style="opacity:1" fill="#c3e7c4" d="M 276.5,237.5 C 256.787,237.191 237.121,237.524 217.5,238.5C 217.611,237.883 217.944,237.383 218.5,237C 238.004,236.171 257.338,236.338 276.5,237.5 Z"/></g>
<g><path style="opacity:1" fill="#fcfefc" d="M 276.5,237.5 C 279.077,238.69 279.91,240.69 279,243.5C 277.211,245.229 275.044,245.896 272.5,245.5C 272.334,251.176 272.501,256.843 273,262.5C 282.777,265.277 288.777,271.61 291,281.5C 291.667,300.167 291.667,318.833 291,337.5C 288.845,346.172 283.678,352.172 275.5,355.5C 275.714,360.334 273.714,363.668 269.5,365.5C 255.656,365.829 241.99,365.496 228.5,364.5C 236.229,351.553 236.396,338.553 229,325.5C 227.622,323.787 225.955,322.453 224,321.5C 223.251,310.653 218.418,302.32 209.5,296.5C 208.432,295.566 207.099,295.232 205.5,295.5C 205.5,290.5 205.5,285.5 205.5,280.5C 207.357,271.98 212.357,266.314 220.5,263.5C 221.833,263.5 223.167,263.5 224.5,263.5C 224.823,257.31 224.49,251.31 223.5,245.5C 217.668,246.022 215.668,243.688 217.5,238.5C 237.121,237.524 256.787,237.191 276.5,237.5 Z"/></g>
<g><path style="opacity:1" fill="#8cd08e" d="M 253.5,257.5 C 252.766,258.708 252.433,260.041 252.5,261.5C 255.833,261.5 259.167,261.5 262.5,261.5C 262.5,256.5 262.5,251.5 262.5,246.5C 252.833,246.5 243.167,246.5 233.5,246.5C 233.5,251.5 233.5,256.5 233.5,261.5C 236.833,261.5 240.167,261.5 243.5,261.5C 243.473,259.801 242.806,258.467 241.5,257.5C 242.5,257.5 243.5,257.5 244.5,257.5C 244.5,259.167 244.5,260.833 244.5,262.5C 240.5,262.5 236.5,262.5 232.5,262.5C 232.5,256.833 232.5,251.167 232.5,245.5C 242.833,245.5 253.167,245.5 263.5,245.5C 263.5,251.167 263.5,256.833 263.5,262.5C 259.5,262.5 255.5,262.5 251.5,262.5C 251.077,260.219 251.744,258.552 253.5,257.5 Z"/></g>
<g><path style="opacity:1" fill="#4ab54d" d="M 253.5,257.5 C 254.496,257.586 255.329,257.252 256,256.5C 256.667,254.833 256.667,253.167 256,251.5C 250.667,250.167 245.333,250.167 240,251.5C 239.059,253.989 239.559,255.989 241.5,257.5C 242.806,258.467 243.473,259.801 243.5,261.5C 240.167,261.5 236.833,261.5 233.5,261.5C 233.5,256.5 233.5,251.5 233.5,246.5C 243.167,246.5 252.833,246.5 262.5,246.5C 262.5,251.5 262.5,256.5 262.5,261.5C 259.167,261.5 255.833,261.5 252.5,261.5C 252.433,260.041 252.766,258.708 253.5,257.5 Z"/></g>
<g><path style="opacity:1" fill="#cfebcf" d="M 223.5,245.5 C 224.49,251.31 224.823,257.31 224.5,263.5C 223.167,263.5 221.833,263.5 220.5,263.5C 221.209,262.596 222.209,262.263 223.5,262.5C 223.5,256.833 223.5,251.167 223.5,245.5 Z"/></g>
<g><path style="opacity:0.994" fill="#fefefe" d="M 447.5,274.5 C 450.247,274.187 452.914,274.52 455.5,275.5C 458.926,281.095 462.926,286.262 467.5,291C 465.527,291.495 463.527,291.662 461.5,291.5C 414.499,291.667 367.499,291.5 320.5,291C 313.923,285.586 313.923,280.253 320.5,275C 362.832,274.5 405.165,274.333 447.5,274.5 Z"/></g>
<g><path style="opacity:1" fill="#abddac" d="M 205.5,280.5 C 205.5,285.5 205.5,290.5 205.5,295.5C 207.099,295.232 208.432,295.566 209.5,296.5C 207.833,296.5 206.167,296.5 204.5,296.5C 204.179,290.974 204.512,285.64 205.5,280.5 Z"/></g>
<g><path style="opacity:1" fill="#4bb64e" d="M 270.5,284.5 C 273.044,284.104 275.211,284.771 277,286.5C 277.667,301.833 277.667,317.167 277,332.5C 274.925,334.648 272.592,334.982 270,333.5C 269.183,317.093 269.349,300.759 270.5,284.5 Z"/></g>
<g><path style="opacity:1" fill="#fcfdfc" d="M 192.5,289.5 C 194.098,291.857 195.098,294.523 195.5,297.5C 198.431,304.883 200.598,312.549 202,320.5C 205.584,315.8 207.417,310.467 207.5,304.5C 212.97,309.237 215.303,315.237 214.5,322.5C 213.696,329.56 212.696,336.56 211.5,343.5C 213.903,343.607 215.736,342.607 217,340.5C 218.231,337.039 219.731,333.706 221.5,330.5C 223.422,332.003 224.588,334.003 225,336.5C 227.693,354.63 220.526,366.797 203.5,373C 181.775,378.06 167.275,370.227 160,349.5C 159.333,344.833 159.333,340.167 160,335.5C 160.151,332.881 160.985,330.547 162.5,328.5C 164.333,331.5 166.167,334.5 168,337.5C 169.264,339.607 171.097,340.607 173.5,340.5C 173.473,334.722 172.64,329.056 171,323.5C 170.333,317.5 170.333,311.5 171,305.5C 171.718,304.549 172.551,304.383 173.5,305C 175.647,308.969 178.313,312.469 181.5,315.5C 181.56,316.043 181.893,316.376 182.5,316.5C 183.48,313.914 183.813,311.247 183.5,308.5C 184.41,301.068 187.41,294.735 192.5,289.5 Z"/></g>
<g><path style="opacity:1" fill="#b9e2ba" d="M 192.5,289.5 C 193.209,288.596 194.209,288.263 195.5,288.5C 195.5,291.5 195.5,294.5 195.5,297.5C 195.098,294.523 194.098,291.857 192.5,289.5 Z"/></g>
<g><path style="opacity:1" fill="#fefefe" d="M 320.5,302.5 C 362.168,302.333 403.835,302.5 445.5,303C 453.41,308.248 453.41,313.581 445.5,319C 403.833,319.667 362.167,319.667 320.5,319C 313.868,313.423 313.868,307.923 320.5,302.5 Z"/></g>
<g><path style="opacity:1" fill="#8dd08e" d="M 183.5,308.5 C 183.813,311.247 183.48,313.914 182.5,316.5C 181.893,316.376 181.56,316.043 181.5,315.5C 182.167,313.167 182.833,310.833 183.5,308.5 Z"/></g>
<g><path style="opacity:1" fill="#a0d8a1" d="M 228.5,364.5 C 241.99,365.496 255.656,365.829 269.5,365.5C 255.661,366.826 241.661,366.826 227.5,365.5C 227.624,364.893 227.957,364.56 228.5,364.5 Z"/></g>
<g><path style="opacity:1" fill="#fafdfa" d="M 181.5,410.5 C 185.865,410.704 190.032,411.704 194,413.5C 196.583,413.071 199.083,412.404 201.5,411.5C 203.917,412.404 206.417,413.071 209,413.5C 211.969,412.562 214.969,411.562 218,410.5C 224.484,411.803 226.484,415.47 224,421.5C 220.233,425.163 216.399,425.33 212.5,422C 210.5,421.333 208.5,421.333 206.5,422C 205.39,424.737 205.223,427.571 206,430.5C 209.082,431.909 211.915,433.742 214.5,436C 237.479,436.791 247.812,448.625 245.5,471.5C 251.995,472.987 252.995,476.154 248.5,481C 240.167,481.667 231.833,481.667 223.5,481C 219.005,476.154 220.005,472.987 226.5,471.5C 226.666,467.486 226.499,463.486 226,459.5C 224.471,456.484 221.971,455.151 218.5,455.5C 217.167,455.667 215.833,455.833 214.5,456C 208.661,462.42 201.661,464.087 193.5,461C 191.5,459.667 189.833,458 188.5,456C 184.167,455.333 179.833,455.333 175.5,456C 172.368,461.642 167.702,465.142 161.5,466.5C 161.5,452.833 161.5,439.167 161.5,425.5C 167.564,426.901 172.231,430.234 175.5,435.5C 179.795,436.661 184.129,436.828 188.5,436C 190.645,433.426 193.312,431.593 196.5,430.5C 197.783,427.628 197.783,424.795 196.5,422C 194.5,421.333 192.5,421.333 190.5,422C 181.404,426.584 177.57,423.751 179,413.5C 180.045,412.627 180.878,411.627 181.5,410.5 Z"/></g>
<g><path style="opacity:1" fill="#fefefe" d="M 320.5,454.5 C 378.168,454.333 435.834,454.5 493.5,455C 501.41,460.248 501.41,465.581 493.5,471C 435.833,471.667 378.167,471.667 320.5,471C 313.868,465.423 313.868,459.923 320.5,454.5 Z"/></g>
<g><path style="opacity:1" fill="#fefefe" d="M 320.5,482.5 C 362.168,482.333 403.835,482.5 445.5,483C 453.41,488.248 453.41,493.581 445.5,499C 403.833,499.667 362.167,499.667 320.5,499C 313.868,493.423 313.868,487.923 320.5,482.5 Z"/></g>
<g><path style="opacity:1" fill="#fefefe" d="M 241.5,520.5 C 237.699,521.715 234.033,521.715 230.5,520.5C 230.5,509.5 230.5,498.5 230.5,487.5C 234.167,487.5 237.833,487.5 241.5,487.5C 241.5,498.5 241.5,509.5 241.5,520.5 Z"/></g>
<g><path style="opacity:1" fill="#b1dfb2" d="M 241.5,520.5 C 241.5,509.5 241.5,498.5 241.5,487.5C 237.833,487.5 234.167,487.5 230.5,487.5C 230.5,498.5 230.5,509.5 230.5,520.5C 229.505,509.346 229.172,498.012 229.5,486.5C 233.833,486.5 238.167,486.5 242.5,486.5C 242.828,498.012 242.495,509.346 241.5,520.5 Z"/></g>
<g><path style="opacity:1" fill="#f8fcf8" d="M 208.5,523.5 C 212.514,523.334 216.514,523.501 220.5,524C 225.435,525.07 230.268,526.237 235,527.5C 241.62,525.852 248.287,524.518 255,523.5C 259.99,522.958 264.49,524.125 268.5,527C 274.102,527.723 279.602,527.223 285,525.5C 289.332,526.444 290.499,528.944 288.5,533C 281.564,536.397 274.231,537.397 266.5,536C 258.833,531.333 251.167,531.333 243.5,536C 238.167,536.667 232.833,536.667 227.5,536C 219.805,531.395 212.138,531.395 204.5,536C 199.167,536.667 193.833,536.667 188.5,536C 182.453,534.347 181.12,531.014 184.5,526C 189.975,527.282 195.642,527.615 201.5,527C 203.925,525.787 206.259,524.621 208.5,523.5 Z"/></g>
<g><path style="opacity:1" fill="#f8fcf8" d="M 208.5,541.5 C 213.511,541.334 218.511,541.501 223.5,542C 226.952,543.978 230.619,545.145 234.5,545.5C 241.177,543.443 248.01,542.11 255,541.5C 259.99,540.958 264.49,542.125 268.5,545C 273.943,545.756 279.277,545.256 284.5,543.5C 289.013,543.895 290.513,546.229 289,550.5C 284.564,553.693 279.564,555.027 274,554.5C 271.5,554.333 269,554.167 266.5,554C 258.5,549.333 250.5,549.333 242.5,554C 237.5,554.667 232.5,554.667 227.5,554C 219.805,549.395 212.138,549.395 204.5,554C 199.167,554.667 193.833,554.667 188.5,554C 182.453,552.347 181.12,549.014 184.5,544C 189.643,545.243 194.977,545.576 200.5,545C 203.374,544.058 206.04,542.891 208.5,541.5 Z"/></g>
<g><path style="opacity:0.98" fill="#46b448" d="M 27.5,610.5 C 152.5,610.5 277.5,610.5 402.5,610.5C 402.333,630.503 402.5,650.503 403,670.5C 407.327,695.491 419.161,716.157 438.5,732.5C 322.835,733.667 207.168,733.833 91.5,733C 61.8903,727.061 41.3903,709.895 30,681.5C 29.3333,678.167 28.6667,674.833 28,671.5C 27.5,651.169 27.3334,630.836 27.5,610.5 Z"/></g>
</svg>
