<?xml version="1.0" encoding="UTF-8"?>
<!DOCTYPE svg PUBLIC "-//W3C//DTD SVG 1.1//EN" "http://www.w3.org/Graphics/SVG/1.1/DTD/svg11.dtd">
<svg xmlns="http://www.w3.org/2000/svg" version="1.1" width="120px" height="120px"
     style="shape-rendering:geometricPrecision; text-rendering:geometricPrecision; image-rendering:optimizeQuality; fill-rule:evenodd; clip-rule:evenodd">
<g><path style="opacity:0.997" fill="#fefefe" d="M 4.5,-0.5 C 40.8333,-0.5 77.1667,-0.5 113.5,-0.5C 115.475,1.13696 117.475,2.80363 119.5,4.5C 119.5,40.8333 119.5,77.1667 119.5,113.5C 117.863,115.475 116.196,117.475 114.5,119.5C 78.1667,119.5 41.8333,119.5 5.5,119.5C 3.52483,117.863 1.52483,116.196 -0.5,114.5C -0.5,78.1667 -0.5,41.8333 -0.5,5.5C 1.13696,3.52483 2.80363,1.52483 4.5,-0.5 Z"/></g>
<g><path style="opacity:1" fill="#626262" d="M 68.5,14.5 C 56.8544,13.1638 45.8544,15.1638 35.5,20.5C 39.8384,17.0989 44.8384,14.9323 50.5,14C 56.6812,13.1808 62.6812,13.3475 68.5,14.5 Z"/></g>
<g><path style="opacity:1" fill="#6a6a6a" d="M 68.5,14.5 C 75.0207,14.932 80.6874,17.2654 85.5,21.5C 79.8378,18.9516 74.1712,16.6182 68.5,14.5 Z"/></g>
<g><path style="opacity:1" fill="#616161" d="M 35.5,20.5 C 35.0269,21.9063 34.0269,22.573 32.5,22.5C 32.9731,21.0937 33.9731,20.427 35.5,20.5 Z"/></g>
<g><path style="opacity:1" fill="#f3f3f5" d="M 68.5,14.5 C 74.1712,16.6182 79.8378,18.9516 85.5,21.5C 86.2623,23.2624 87.5956,24.2624 89.5,24.5C 90.8333,26.5 92.5,28.1667 94.5,29.5C 95.0798,31.7488 96.4131,33.4154 98.5,34.5C 99.6589,38.1513 101.326,41.4846 103.5,44.5C 106.167,54.8333 106.167,65.1667 103.5,75.5C 101.326,78.5154 99.6589,81.8487 98.5,85.5C 97.0937,85.9731 96.427,86.9731 96.5,88.5C 92.4741,92.1949 88.4741,95.8616 84.5,99.5C 84.1583,100.338 83.4916,100.672 82.5,100.5C 65.8154,107.734 49.482,107.067 33.5,98.5C 32.0892,96.086 30.0892,94.4194 27.5,93.5C 26.1667,93.5 25.5,92.8333 25.5,91.5C 24.9202,89.2512 23.5869,87.5846 21.5,86.5C 21.573,84.9731 20.9063,83.9731 19.5,83.5C 18.3263,82.4863 17.6596,81.153 17.5,79.5C 12.6982,64.3879 13.6982,49.7212 20.5,35.5C 21.9063,35.0269 22.573,34.0269 22.5,32.5C 26.1667,29.5 29.5,26.1667 32.5,22.5C 34.0269,22.573 35.0269,21.9063 35.5,20.5C 45.8544,15.1638 56.8544,13.1638 68.5,14.5 Z"/></g>
<g><path style="opacity:1" fill="#7c9cce" d="M 59.5,16.5 C 62.3356,17.7755 65.3356,18.4422 68.5,18.5C 68.5432,22.8926 68.0432,23.2259 67,19.5C 66.5172,20.448 66.3505,21.448 66.5,22.5C 64.1667,22.5 61.8333,22.5 59.5,22.5C 59.5,20.5 59.5,18.5 59.5,16.5 Z"/></g>
<g><path style="opacity:1" fill="#7b9bce" d="M 50.5,16.5 C 53.1363,17.0346 55.303,18.3679 57,20.5C 57.763,17.9365 58.263,17.9365 58.5,20.5C 58.1667,21.1667 57.8333,21.8333 57.5,22.5C 56.2888,21.6102 54.9555,21.6102 53.5,22.5C 52.3527,22.1822 51.5194,21.5156 51,20.5C 50.5172,21.448 50.3505,22.448 50.5,23.5C 47.3138,23.8954 44.3138,24.8954 41.5,26.5C 40.0256,25.5637 39.0256,24.2303 38.5,22.5C 42.1149,22.0735 45.7816,20.9068 49.5,19C 50.2524,18.3292 50.5858,17.4959 50.5,16.5 Z"/></g>
<g><path style="opacity:1" fill="#686868" d="M 85.5,21.5 C 87.4044,21.7376 88.7377,22.7376 89.5,24.5C 87.5956,24.2624 86.2623,23.2624 85.5,21.5 Z"/></g>
<g><path style="opacity:1" fill="#7496cb" d="M 71.5,18.5 C 75.4301,19.4373 75.4301,20.4373 71.5,21.5C 75.6313,21.4796 79.6313,22.6463 83.5,25C 85.4386,25.9078 86.4386,27.4078 86.5,29.5C 89.1142,29.2771 90.7809,30.4438 91.5,33C 90.3349,34.0836 89.0016,34.9169 87.5,35.5C 86.3044,35.1543 86.3044,34.6543 87.5,34C 83.5449,31.3863 80.7115,28.553 79,25.5C 76.8159,26.1081 74.8159,25.4414 73,23.5C 71.3923,24.4332 70.559,23.7665 70.5,21.5C 70.685,20.4163 71.0183,19.4163 71.5,18.5 Z"/></g>
<g><path style="opacity:1" fill="#6f6f6f" d="M 89.5,24.5 C 92.1667,25.1667 93.8333,26.8333 94.5,29.5C 92.5,28.1667 90.8333,26.5 89.5,24.5 Z"/></g>
<g><path style="opacity:1" fill="#737373" d="M 32.5,22.5 C 29.5,26.1667 26.1667,29.5 22.5,32.5C 24.8333,28.1667 28.1667,24.8333 32.5,22.5 Z"/></g>
<g><path style="opacity:1" fill="#868686" d="M 53.5,25.5 C 60.821,24.8585 67.821,26.0252 74.5,29C 69.7537,28.1109 64.9203,27.2776 60,26.5C 53.745,26.7171 47.9116,28.3838 42.5,31.5C 41.3044,31.1543 41.3044,30.6543 42.5,30C 46.1574,28.1776 49.8241,26.6776 53.5,25.5 Z"/></g>
<g><path style="opacity:1" fill="#6f93ca" d="M 36.5,24.5 C 39.3014,26.6169 39.1347,28.6169 36,30.5C 35.6667,30.1667 35.3333,29.8333 35,29.5C 33.4169,31.3928 31.9169,33.3928 30.5,35.5C 29.914,35.2907 29.414,34.9574 29,34.5C 28.7508,35.624 28.2508,36.624 27.5,37.5C 25.5247,36.7248 24.6913,35.3914 25,33.5C 26.6477,32.283 28.481,31.4497 30.5,31C 32.0848,28.2559 34.0848,26.0892 36.5,24.5 Z"/></g>
<g><path style="opacity:1" fill="#6b6c6c" d="M 94.5,29.5 C 96.5869,30.5846 97.9202,32.2512 98.5,34.5C 96.4131,33.4154 95.0798,31.7488 94.5,29.5 Z"/></g>
<g><path style="opacity:1" fill="#616161" d="M 22.5,32.5 C 22.573,34.0269 21.9063,35.0269 20.5,35.5C 20.427,33.9731 21.0937,32.9731 22.5,32.5 Z"/></g>
<g><path style="opacity:1" fill="#a1a1a1" d="M 35.5,36.5 C 43.5,36.5 51.5,36.5 59.5,36.5C 59.7373,37.791 59.404,38.791 58.5,39.5C 50.4774,37.8838 42.8107,36.8838 35.5,36.5 Z"/></g>
<g><path style="opacity:1" fill="#a0a0a0" d="M 83.5,35.5 C 85.1667,36.5 86.5,37.8333 87.5,39.5C 86.8333,39.5 86.1667,39.5 85.5,39.5C 85.3893,38.8826 85.056,38.3826 84.5,38C 76.5069,37.5003 68.5069,37.3336 60.5,37.5C 68.1667,36.8333 75.8333,36.1667 83.5,35.5 Z"/></g>
<g><path style="opacity:1" fill="#fdfdfd" d="M 60.5,37.5 C 68.5069,37.3336 76.5069,37.5003 84.5,38C 85.056,38.3826 85.3893,38.8826 85.5,39.5C 76.7663,40.135 68.4329,39.4684 60.5,37.5 Z"/></g>
<g><path style="opacity:1" fill="#4577bc" d="M 91.5,38.5 C 90.2241,37.6136 90.2241,36.6136 91.5,35.5C 92.087,36.2334 92.087,37.2334 91.5,38.5 Z"/></g>
<g><path style="opacity:1" fill="#191919" d="M 83.5,35.5 C 75.8333,36.1667 68.1667,36.8333 60.5,37.5C 68.4329,39.4684 76.7663,40.135 85.5,39.5C 86.1667,39.5 86.8333,39.5 87.5,39.5C 87.5,39.8333 87.5,40.1667 87.5,40.5C 80.3524,41.4916 73.0191,41.825 65.5,41.5C 65.5,43.1667 65.5,44.8333 65.5,46.5C 69.7016,46.1832 73.7016,46.5166 77.5,47.5C 76.2438,47.4614 75.2438,47.9614 74.5,49C 80.6807,49.1724 86.6807,49.6724 92.5,50.5C 86.5,50.5 80.5,50.5 74.5,50.5C 74.5,51.5 74.5,52.5 74.5,53.5C 75.5,53.5 76.5,53.5 77.5,53.5C 82.5,53.5 87.5,53.5 92.5,53.5C 92.8333,53.5 93.1667,53.5 93.5,53.5C 93.6716,54.4916 93.3382,55.1583 92.5,55.5C 86.69,54.5104 80.69,54.1771 74.5,54.5C 74.5,55.5 74.5,56.5 74.5,57.5C 75.5,57.5 76.5,57.5 77.5,57.5C 82.8333,57.5 88.1667,57.5 93.5,57.5C 87.3208,58.1666 80.9875,58.8332 74.5,59.5C 81.2287,60.1277 87.2287,60.7943 92.5,61.5C 87.5,61.5 82.5,61.5 77.5,61.5C 76.5,61.5 75.5,61.5 74.5,61.5C 74.5,63.8333 74.5,66.1667 74.5,68.5C 76.2161,68.6287 77.8828,68.962 79.5,69.5C 80.1667,69.5 80.5,69.8333 80.5,70.5C 79.1667,70.5 77.8333,70.5 76.5,70.5C 76.298,72.9496 76.6314,75.283 77.5,77.5C 80.4032,79.1038 83.7366,80.1038 87.5,80.5C 85.8122,82.8545 83.8122,84.8545 81.5,86.5C 77.0025,86.1376 72.6692,85.1376 68.5,83.5C 67.8933,83.6236 67.56,83.9569 67.5,84.5C 66.1667,83.5 66.1667,82.5 67.5,81.5C 67.56,82.0431 67.8933,82.3764 68.5,82.5C 69.7992,81.3063 71.1325,80.3063 72.5,79.5C 72.7845,77.5853 72.4511,75.9187 71.5,74.5C 72.7708,70.2516 73.4374,65.7516 73.5,61C 73.499,56.6528 73.1657,52.4861 72.5,48.5C 70.5,48.5 68.5,48.5 66.5,48.5C 65.8333,50.1667 65.1667,51.8333 64.5,53.5C 64.5,51.8333 64.5,50.1667 64.5,48.5C 63.1667,48.5 61.8333,48.5 60.5,48.5C 60.5,50.1667 60.5,51.8333 60.5,53.5C 59.5489,52.0813 59.2155,50.4147 59.5,48.5C 58.1667,48.5 56.8333,48.5 55.5,48.5C 55.6602,50.1992 55.4935,51.8659 55,53.5C 54.8019,51.6183 54.3019,49.9516 53.5,48.5C 51.1667,48.5 48.8333,48.5 46.5,48.5C 46.5,54.8333 46.5,61.1667 46.5,67.5C 46.5,68.1667 46.5,68.8333 46.5,69.5C 45.2584,71.3888 45.2584,73.3888 46.5,75.5C 46.5,76.8333 46.5,78.1667 46.5,79.5C 47.5676,80.4345 48.901,80.7678 50.5,80.5C 50.5,82.1667 50.5,83.8333 50.5,85.5C 46.2984,85.1832 42.2984,85.5166 38.5,86.5C 34.9546,84.1435 32.4546,81.1435 31,77.5C 32.6477,79.0284 34.6477,79.6951 37,79.5C 38.9855,79.4313 40.4855,78.7647 41.5,77.5C 43.1484,75.5441 43.8151,73.2108 43.5,70.5C 41.901,70.7678 40.5676,70.4345 39.5,69.5C 40.2389,69.631 40.9056,69.4643 41.5,69C 40.2617,68.31 40.2617,67.81 41.5,67.5C 42.5,67.5 43.5,67.5 44.5,67.5C 44.5,65.5 44.5,63.5 44.5,61.5C 43.5,61.5 42.5,61.5 41.5,61.5C 36.5,61.5 31.5,61.5 26.5,61.5C 26.6602,63.1992 26.4935,64.8659 26,66.5C 25.502,63.5184 25.3354,60.5184 25.5,57.5C 25.8333,57.5 26.1667,57.5 26.5,57.5C 31.5,57.5 36.5,57.5 41.5,57.5C 42.5,57.5 43.5,57.5 44.5,57.5C 44.5,56.5 44.5,55.5 44.5,54.5C 38.0698,54.8332 32.4032,54.4998 27.5,53.5C 32.1667,53.5 36.8333,53.5 41.5,53.5C 42.5,53.5 43.5,53.5 44.5,53.5C 44.5,52.5 44.5,51.5 44.5,50.5C 38.642,50.8222 32.9753,50.4889 27.5,49.5C 32.1667,49.5 36.8333,49.5 41.5,49.5C 42.5,49.5 43.5,49.5 44.5,49.5C 44.5,48.5 44.5,47.5 44.5,46.5C 47.7131,46.81 50.7131,46.4767 53.5,45.5C 54.4345,44.4324 54.7678,43.099 54.5,41.5C 46.8333,41.5 39.1667,41.5 31.5,41.5C 40.1045,39.5289 49.1045,38.8623 58.5,39.5C 59.404,38.791 59.7373,37.791 59.5,36.5C 51.5,36.5 43.5,36.5 35.5,36.5C 35.7828,35.7109 36.2828,35.0442 37,34.5C 52.4221,35.491 67.9221,35.8244 83.5,35.5 Z"/></g>
<g><path style="opacity:1" fill="#676767" d="M 98.5,34.5 C 101.207,37.2466 102.873,40.5799 103.5,44.5C 101.326,41.4846 99.6589,38.1513 98.5,34.5 Z"/></g>
<g><path style="opacity:1" fill="#6b6b6b" d="M 31.5,41.5 C 39.1667,41.5 46.8333,41.5 54.5,41.5C 54.7678,43.099 54.4345,44.4324 53.5,45.5C 53.5,44.5 53.5,43.5 53.5,42.5C 45.4102,42.8326 38.0768,42.4992 31.5,41.5 Z"/></g>
<g><path style="opacity:1" fill="#e9e9e9" d="M 55.5,42.5 C 56.8333,42.5 58.1667,42.5 59.5,42.5C 59.5,43.5 59.5,44.5 59.5,45.5C 58.1667,45.5 56.8333,45.5 55.5,45.5C 55.5,44.5 55.5,43.5 55.5,42.5 Z"/></g>
<g><path style="opacity:1" fill="#f5f5f5" d="M 60.5,42.5 C 61.8333,42.5 63.1667,42.5 64.5,42.5C 64.5,43.5 64.5,44.5 64.5,45.5C 63.1667,45.5 61.8333,45.5 60.5,45.5C 60.5,44.5 60.5,43.5 60.5,42.5 Z"/></g>
<g><path style="opacity:1" fill="#7a9bcd" d="M 23.5,38.5 C 25.3464,38.2222 26.6798,38.8888 27.5,40.5C 24.7502,44.7945 23.0835,49.1278 22.5,53.5C 20.8333,53.5 19.1667,53.5 17.5,53.5C 19.009,48.1939 21.009,43.1939 23.5,38.5 Z"/></g>
<g><path style="opacity:1" fill="#747575" d="M 53.5,45.5 C 50.7131,46.4767 47.7131,46.81 44.5,46.5C 44.5,47.5 44.5,48.5 44.5,49.5C 43.5,49.5 42.5,49.5 41.5,49.5C 41.5,48.1667 41.5,46.8333 41.5,45.5C 45.5,45.5 49.5,45.5 53.5,45.5 Z"/></g>
<g><path style="opacity:1" fill="#6e6e6e" d="M 87.5,40.5 C 89.0847,41.0024 89.5847,42.0024 89,43.5C 81.5871,42.5192 74.0871,42.1858 66.5,42.5C 66.5,43.5 66.5,44.5 66.5,45.5C 70.5546,45.1758 74.5546,45.5091 78.5,46.5C 78.3764,47.1067 78.0431,47.44 77.5,47.5C 73.7016,46.5166 69.7016,46.1832 65.5,46.5C 65.5,44.8333 65.5,43.1667 65.5,41.5C 73.0191,41.825 80.3524,41.4916 87.5,40.5 Z"/></g>
<g><path style="opacity:1" fill="#f5f5f5" d="M 66.5,48.5 C 68.5,48.5 70.5,48.5 72.5,48.5C 72.5,54.8333 72.5,61.1667 72.5,67.5C 70.8333,67.5 69.1667,67.5 67.5,67.5C 67.5,66.8333 67.5,66.1667 67.5,65.5C 68.7647,64.4855 69.4313,62.9855 69.5,61C 69.4313,59.0145 68.7647,57.5145 67.5,56.5C 66.9084,53.8728 66.5751,51.2062 66.5,48.5 Z"/></g>
<g><path style="opacity:1" fill="#949596" d="M 27.5,49.5 C 32.9753,50.4889 38.642,50.8222 44.5,50.5C 44.5,51.5 44.5,52.5 44.5,53.5C 43.5,53.5 42.5,53.5 41.5,53.5C 39.6028,52.1952 37.2695,51.5286 34.5,51.5C 31.7305,51.5286 29.3972,52.1952 27.5,53.5C 32.4032,54.4998 38.0698,54.8332 44.5,54.5C 44.5,55.5 44.5,56.5 44.5,57.5C 43.5,57.5 42.5,57.5 41.5,57.5C 39.4294,56.1914 36.9294,55.5248 34,55.5C 31.0706,55.5248 28.5706,56.1914 26.5,57.5C 26.1667,57.5 25.8333,57.5 25.5,57.5C 25.2938,54.5049 25.9605,51.8383 27.5,49.5 Z"/></g>
<g><path style="opacity:1" fill="#929394" d="M 92.5,50.5 C 93.404,51.209 93.7373,52.209 93.5,53.5C 93.1667,53.5 92.8333,53.5 92.5,53.5C 90.4294,52.1914 87.9294,51.5248 85,51.5C 82.0706,51.5248 79.5706,52.1914 77.5,53.5C 76.5,53.5 75.5,53.5 74.5,53.5C 74.5,52.5 74.5,51.5 74.5,50.5C 80.5,50.5 86.5,50.5 92.5,50.5 Z"/></g>
<g><path style="opacity:1" fill="#7798cc" d="M 91.5,38.5 C 95.8585,37.0613 97.5252,38.5613 96.5,43C 99.2617,44.3454 100.262,46.3454 99.5,49C 100.5,49.8333 101.5,50.6667 102.5,51.5C 100.892,52.3184 99.2251,52.9851 97.5,53.5C 96.2512,48.1419 94.2512,43.1419 91.5,38.5 Z"/></g>
<g><path style="opacity:1" fill="#fafafa" d="M 41.5,53.5 C 36.8333,53.5 32.1667,53.5 27.5,53.5C 29.3972,52.1952 31.7305,51.5286 34.5,51.5C 37.2695,51.5286 39.6028,52.1952 41.5,53.5 Z"/></g>
<g><path style="opacity:1" fill="#f7f7f7" d="M 92.5,53.5 C 87.5,53.5 82.5,53.5 77.5,53.5C 79.5706,52.1914 82.0706,51.5248 85,51.5C 87.9294,51.5248 90.4294,52.1914 92.5,53.5 Z"/></g>
<g><path style="opacity:1" fill="#929496" d="M 53.5,48.5 C 54.3019,49.9516 54.8019,51.6183 55,53.5C 55.4935,51.8659 55.6602,50.1992 55.5,48.5C 56.8333,48.5 58.1667,48.5 59.5,48.5C 59.2155,50.4147 59.5489,52.0813 60.5,53.5C 61.8333,53.5 63.1667,53.5 64.5,53.5C 65.1667,51.8333 65.8333,50.1667 66.5,48.5C 66.5751,51.2062 66.9084,53.8728 67.5,56.5C 66.2353,57.5145 65.5687,59.0145 65.5,61C 65.5687,62.9855 66.2353,64.4855 67.5,65.5C 67.5,66.1667 67.5,66.8333 67.5,67.5C 62.5,67.5 57.5,67.5 52.5,67.5C 52.5,66.8333 52.5,66.1667 52.5,65.5C 53.7647,64.4855 54.4313,62.9855 54.5,61C 54.4313,59.0145 53.7647,57.5145 52.5,56.5C 53.0916,53.8728 53.4249,51.2062 53.5,48.5 Z"/></g>
<g><path style="opacity:1" fill="#eeeeee" d="M 64.5,53.5 C 63.1667,53.5 61.8333,53.5 60.5,53.5C 60.5,51.8333 60.5,50.1667 60.5,48.5C 61.8333,48.5 63.1667,48.5 64.5,48.5C 64.5,50.1667 64.5,51.8333 64.5,53.5 Z"/></g>
<g><path style="opacity:1" fill="#ededed" d="M 41.5,57.5 C 36.5,57.5 31.5,57.5 26.5,57.5C 28.5706,56.1914 31.0706,55.5248 34,55.5C 36.9294,55.5248 39.4294,56.1914 41.5,57.5 Z"/></g>
<g><path style="opacity:1" fill="#98999a" d="M 92.5,55.5 C 87.0557,54.8917 82.0557,55.5583 77.5,57.5C 76.5,57.5 75.5,57.5 74.5,57.5C 74.5,56.5 74.5,55.5 74.5,54.5C 80.69,54.1771 86.69,54.5104 92.5,55.5 Z"/></g>
<g><path style="opacity:1" fill="#121212" d="M 52.5,56.5 C 53.7647,57.5145 54.4313,59.0145 54.5,61C 54.4313,62.9855 53.7647,64.4855 52.5,65.5C 51.2353,64.4855 50.5687,62.9855 50.5,61C 50.5687,59.0145 51.2353,57.5145 52.5,56.5 Z"/></g>
<g><path style="opacity:1" fill="#161616" d="M 67.5,56.5 C 68.7647,57.5145 69.4313,59.0145 69.5,61C 69.4313,62.9855 68.7647,64.4855 67.5,65.5C 66.2353,64.4855 65.5687,62.9855 65.5,61C 65.5687,59.0145 66.2353,57.5145 67.5,56.5 Z"/></g>
<g><path style="opacity:1" fill="#b0b1b1" d="M 26.5,58.5 C 32.5368,58.1707 38.5368,58.5041 44.5,59.5C 41.5,59.8333 38.5,60.1667 35.5,60.5C 32.0866,60.483 29.0866,59.8164 26.5,58.5 Z"/></g>
<g><path style="opacity:1" fill="#a1a1a2" d="M 93.5,57.5 C 94.5917,63.2577 93.7584,68.9244 91,74.5C 90.8333,74 90.6667,73.5 90.5,73C 92.0495,69.3204 92.7161,65.4871 92.5,61.5C 87.2287,60.7943 81.2287,60.1277 74.5,59.5C 80.9875,58.8332 87.3208,58.1666 93.5,57.5 Z"/></g>
<g><path style="opacity:1" fill="#f85255" d="M 99.5,57.5 C 101.498,58.7655 101.498,60.4322 99.5,62.5C 99.458,60.8123 99.458,59.1457 99.5,57.5 Z"/></g>
<g><path style="opacity:1" fill="#575757" d="M 103.5,44.5 C 105.939,49.0796 106.939,54.0796 106.5,59.5C 106.902,65.227 105.902,70.5603 103.5,75.5C 106.167,65.1667 106.167,54.8333 103.5,44.5 Z"/></g>
<g><path style="opacity:1" fill="#f6474d" d="M 18.5,59.5 C 18.56,58.9569 18.8933,58.6236 19.5,58.5C 21.4613,59.8479 21.6279,61.1813 20,62.5C 19.7679,61.2625 19.2679,60.2625 18.5,59.5 Z"/></g>
<g><path style="opacity:1" fill="#a3a5a7" d="M 41.5,61.5 C 42.5,61.5 43.5,61.5 44.5,61.5C 44.5,63.5 44.5,65.5 44.5,67.5C 43.5,67.5 42.5,67.5 41.5,67.5C 41.5,65.5 41.5,63.5 41.5,61.5 Z"/></g>
<g><path style="opacity:1" fill="#898b8d" d="M 77.5,61.5 C 77.3651,64.4175 78.0318,67.0842 79.5,69.5C 77.8828,68.962 76.2161,68.6287 74.5,68.5C 74.5,66.1667 74.5,63.8333 74.5,61.5C 75.5,61.5 76.5,61.5 77.5,61.5 Z"/></g>
<g><path style="opacity:1" fill="#7d7d7d" d="M 20.5,35.5 C 13.6982,49.7212 12.6982,64.3879 17.5,79.5C 12.4496,69.7357 11.2829,59.4023 14,48.5C 15.1431,43.5469 17.3097,39.2136 20.5,35.5 Z"/></g>
<g><path style="opacity:1" fill="#f0f0f0" d="M 53.5,48.5 C 53.4249,51.2062 53.0916,53.8728 52.5,56.5C 51.2353,57.5145 50.5687,59.0145 50.5,61C 50.5687,62.9855 51.2353,64.4855 52.5,65.5C 52.5,66.1667 52.5,66.8333 52.5,67.5C 50.5,67.5 48.5,67.5 46.5,67.5C 46.5,61.1667 46.5,54.8333 46.5,48.5C 48.8333,48.5 51.1667,48.5 53.5,48.5 Z"/></g>
<g><path style="opacity:1" fill="#585858" d="M 72.5,48.5 C 73.1657,52.4861 73.499,56.6528 73.5,61C 73.4374,65.7516 72.7708,70.2516 71.5,74.5C 66.8262,69.7678 61.1596,68.2678 54.5,70C 51.9783,72.0902 49.3116,73.9235 46.5,75.5C 45.2584,73.3888 45.2584,71.3888 46.5,69.5C 46.5,68.8333 46.5,68.1667 46.5,67.5C 48.5,67.5 50.5,67.5 52.5,67.5C 57.5,67.5 62.5,67.5 67.5,67.5C 69.1667,67.5 70.8333,67.5 72.5,67.5C 72.5,61.1667 72.5,54.8333 72.5,48.5 Z"/></g>
<g><path style="opacity:1" fill="#e9e9e9" d="M 46.5,69.5 C 54.1018,68.9063 54.4351,70.2397 47.5,73.5C 46.5713,72.3112 46.238,70.9778 46.5,69.5 Z"/></g>
<g><path style="opacity:1" fill="#fcfcfc" d="M 71.5,74.5 C 72.4511,75.9187 72.7845,77.5853 72.5,79.5C 63.8333,79.5 55.1667,79.5 46.5,79.5C 46.5,78.1667 46.5,76.8333 46.5,75.5C 49.3116,73.9235 51.9783,72.0902 54.5,70C 61.1596,68.2678 66.8262,69.7678 71.5,74.5 Z"/></g>
<g><path style="opacity:1" fill="#f8f8f8" d="M 68.5,70.5 C 69.5676,69.5655 70.901,69.2322 72.5,69.5C 72.719,70.675 72.3857,71.675 71.5,72.5C 70.4822,71.8075 69.4822,71.1408 68.5,70.5 Z"/></g>
<g><path style="opacity:1" fill="#828384" d="M 39.5,69.5 C 40.5676,70.4345 41.901,70.7678 43.5,70.5C 43.8151,73.2108 43.1484,75.5441 41.5,77.5C 40.5,77.5 39.5,77.5 38.5,77.5C 38.1936,74.6146 38.5269,71.9479 39.5,69.5 Z"/></g>
<g><path style="opacity:1" fill="#7899cc" d="M 88.5,85.5 C 88.3433,84.1266 88.51,82.7932 89,81.5C 89.9836,83.7947 90.8169,83.4614 91.5,80.5C 90.6744,79.549 90.5078,78.549 91,77.5C 93.9866,76.7239 94.8199,75.0572 93.5,72.5C 94.934,70.7801 95.7674,68.7801 96,66.5C 96.3333,67.1667 96.6667,67.8333 97,68.5C 98.1827,67.269 99.3493,67.269 100.5,68.5C 99.3989,70.3939 98.0655,71.0606 96.5,70.5C 98.9783,71.7224 99.9783,73.7224 99.5,76.5C 98.448,76.3505 97.448,76.5172 96.5,77C 96.8333,77.3333 97.1667,77.6667 97.5,78C 96.3774,79.0437 95.0441,79.7104 93.5,80C 94.6721,80.4186 95.6721,81.0853 96.5,82C 94.4299,82.9476 92.9299,84.4476 92,86.5C 90.9887,85.6634 89.8221,85.33 88.5,85.5 Z"/></g>
<g><path style="opacity:1" fill="#6f93c9" d="M 19.5,67.5 C 21.451,67.2267 22.951,67.8934 24,69.5C 24.3729,71.6982 24.8729,73.8649 25.5,76C 24.9019,77.3012 23.9019,78.1345 22.5,78.5C 22.8745,77.229 22.2078,76.0623 20.5,75C 21.8146,73.6054 21.4812,72.6054 19.5,72C 19.9662,70.7012 19.9662,69.2012 19.5,67.5 Z"/></g>
<g><path style="opacity:1" fill="#6f7071" d="M 80.5,70.5 C 80.5,72.8333 80.5,75.1667 80.5,77.5C 79.5,77.5 78.5,77.5 77.5,77.5C 76.6314,75.283 76.298,72.9496 76.5,70.5C 77.8333,70.5 79.1667,70.5 80.5,70.5 Z"/></g>
<g><path style="opacity:1" fill="#7597cb" d="M 25.5,79.5 C 26.2389,79.369 26.9056,79.5357 27.5,80C 30.0814,84.9181 33.748,88.9181 38.5,92C 36.3923,95.3399 34.8923,95.1732 34,91.5C 31.7724,92.2993 30.4391,91.2993 30,88.5C 29.6667,88.8333 29.3333,89.1667 29,89.5C 27.9563,88.3774 27.2896,87.0441 27,85.5C 26.6667,85.8333 26.3333,86.1667 26,86.5C 24.8873,84.408 24.7207,82.0747 25.5,79.5 Z"/></g>
<g><path style="opacity:1" fill="#a8a8a8" d="M 50.5,80.5 C 51.8333,80.5 53.1667,80.5 54.5,80.5C 55.2436,83.9496 53.9103,85.6162 50.5,85.5C 50.5,83.8333 50.5,82.1667 50.5,80.5 Z"/></g>
<g><path style="opacity:1" fill="#646464" d="M 103.5,75.5 C 102.873,79.4201 101.207,82.7534 98.5,85.5C 99.6589,81.8487 101.326,78.5154 103.5,75.5 Z"/></g>
<g><path style="opacity:1" fill="#b5b5b5" d="M 67.5,81.5 C 66.1667,82.5 66.1667,83.5 67.5,84.5C 67.0303,85.7032 65.697,85.7032 63.5,84.5C 62.791,85.404 61.791,85.7373 60.5,85.5C 60.5,83.8333 60.5,82.1667 60.5,80.5C 63.5453,81.0147 65.8786,81.348 67.5,81.5 Z"/></g>
<g><path style="opacity:1" fill="#494949" d="M 63.5,84.5 C 61.7748,84.1575 61.2748,83.1575 62,81.5C 63.0386,82.2438 63.5386,83.2438 63.5,84.5 Z"/></g>
<g><path style="opacity:1" fill="#636464" d="M 19.5,83.5 C 20.9063,83.9731 21.573,84.9731 21.5,86.5C 20.0937,86.0269 19.427,85.0269 19.5,83.5 Z"/></g>
<g><path style="opacity:1" fill="#535353" d="M 46.5,79.5 C 55.1667,79.5 63.8333,79.5 72.5,79.5C 71.1325,80.3063 69.7992,81.3063 68.5,82.5C 67.8933,82.3764 67.56,82.0431 67.5,81.5C 65.8786,81.348 63.5453,81.0147 60.5,80.5C 60.5,82.1667 60.5,83.8333 60.5,85.5C 61.791,85.7373 62.791,85.404 63.5,84.5C 65.697,85.7032 67.0303,85.7032 67.5,84.5C 67.56,83.9569 67.8933,83.6236 68.5,83.5C 72.6692,85.1376 77.0025,86.1376 81.5,86.5C 81.189,87.4778 80.5223,88.1445 79.5,88.5C 78.3044,88.1543 78.3044,87.6543 79.5,87C 65.9936,86.173 52.6603,86.3396 39.5,87.5C 38.8333,87.5 38.5,87.1667 38.5,86.5C 42.2984,85.5166 46.2984,85.1832 50.5,85.5C 53.9103,85.6162 55.2436,83.9496 54.5,80.5C 53.1667,80.5 51.8333,80.5 50.5,80.5C 48.901,80.7678 47.5676,80.4345 46.5,79.5 Z"/></g>
<g><path style="opacity:1" fill="#d5d6d6" d="M 55.5,80.5 C 56.8333,80.5 58.1667,80.5 59.5,80.5C 59.6713,83.7973 59.0046,84.1306 57.5,81.5C 56.0133,86.6572 55.3466,86.3239 55.5,80.5 Z"/></g>
<g><path style="opacity:1" fill="#656565" d="M 98.5,85.5 C 98.573,87.0269 97.9063,88.0269 96.5,88.5C 96.427,86.9731 97.0937,85.9731 98.5,85.5 Z"/></g>
<g><path style="opacity:1" fill="#686868" d="M 21.5,86.5 C 23.5869,87.5846 24.9202,89.2512 25.5,91.5C 23.4131,90.4154 22.0798,88.7488 21.5,86.5 Z"/></g>
<g><path style="opacity:1" fill="#a9a9aa" d="M 39.5,87.5 C 42.8772,89.1749 46.2105,90.8416 49.5,92.5C 47.5,92.1667 45.5,91.8333 43.5,91.5C 42.8333,91.5 42.1667,91.5 41.5,91.5C 41.2671,89.9382 40.6005,88.6049 39.5,87.5 Z"/></g>
<g><path style="opacity:1" fill="#6b6b6b" d="M 96.5,88.5 C 93.7773,93.5559 89.7773,97.2226 84.5,99.5C 88.4741,95.8616 92.4741,92.1949 96.5,88.5 Z"/></g>
<g><path style="opacity:1" fill="#747575" d="M 49.5,92.5 C 52.8254,92.8309 56.1587,93.1643 59.5,93.5C 63.8868,92.9174 68.2202,92.4174 72.5,92C 64.7566,95.036 57.09,95.2026 49.5,92.5 Z"/></g>
<g><path style="opacity:1" fill="#7f9ecf" d="M 88.5,85.5 C 88.5106,87.0174 89.1772,88.1841 90.5,89C 88.3949,90.1934 86.7282,91.8601 85.5,94C 84.2559,94.4561 83.4226,93.9561 83,92.5C 80.3605,94.4728 78.0272,96.8061 76,99.5C 74.3333,99.5 72.6667,99.5 71,99.5C 70.3162,98.2161 70.4829,97.0495 71.5,96C 77.6163,94.797 81.9497,91.4637 84.5,86C 85.7932,85.51 87.1266,85.3433 88.5,85.5 Z"/></g>
<g><path style="opacity:1" fill="#6c6c6c" d="M 27.5,93.5 C 30.0892,94.4194 32.0892,96.086 33.5,98.5C 30.9108,97.5806 28.9108,95.914 27.5,93.5 Z"/></g>
<g><path style="opacity:1" fill="#7899cc" d="M 41.5,91.5 C 42.1667,91.5 42.8333,91.5 43.5,91.5C 43.8799,94.0874 45.0466,94.754 47,93.5C 48.6565,94.4841 50.3232,95.4841 52,96.5C 53.0495,95.4829 54.2161,95.3162 55.5,96C 52.9365,96.763 52.9365,97.263 55.5,97.5C 59.8016,97.7906 64.1349,97.4573 68.5,96.5C 69.1756,102.006 68.009,102.673 65,98.5C 64.9566,101.217 63.9566,101.884 62,100.5C 60.3241,103.16 58.6574,103.16 57,100.5C 56.6667,101.167 56.3333,101.833 56,102.5C 54.2002,100.169 52.2002,100.169 50,102.5C 47.7241,100.465 45.8908,98.1316 44.5,95.5C 43.6143,96.325 43.281,97.325 43.5,98.5C 42.5,98.5 41.5,98.5 40.5,98.5C 40.4809,96.9397 40.1476,95.4397 39.5,94C 39.6387,92.699 40.3054,91.8656 41.5,91.5 Z"/></g>
<g><path style="opacity:1" fill="#777777" d="M 33.5,98.5 C 49.482,107.067 65.8154,107.734 82.5,100.5C 81.9423,101.79 80.9423,102.623 79.5,103C 63.1807,110.04 47.8473,108.54 33.5,98.5 Z"/></g>
</svg>
