<?xml version="1.0" encoding="UTF-8"?>
<!DOCTYPE svg PUBLIC "-//W3C//DTD SVG 1.1//EN" "http://www.w3.org/Graphics/SVG/1.1/DTD/svg11.dtd">
<svg xmlns="http://www.w3.org/2000/svg" version="1.1" width="45px" height="45px" style="shape-rendering:geometricPrecision; text-rendering:geometricPrecision; image-rendering:optimizeQuality; fill-rule:evenodd; clip-rule:evenodd" xmlns:xlink="http://www.w3.org/1999/xlink">
<g><path style="opacity:0.598" fill="#2c982f" d="M 5.5,4.5 C 14.8571,4.16836 24.1904,4.50169 33.5,5.5C 24.5184,6.33197 15.5184,6.83197 6.5,7C 16.8333,7.66667 27.1667,7.66667 37.5,7C 36.376,6.75083 35.376,6.25083 34.5,5.5C 36.5497,4.33727 38.5497,4.50394 40.5,6C 41.6474,13.7538 41.8141,21.5872 41,29.5C 40.1667,30.3333 39.3333,31.1667 38.5,32C 35.1182,32.1764 31.7848,32.6764 28.5,33.5C 29.5,34.8333 30.5,36.1667 31.5,37.5C 31.2907,38.086 30.9574,38.586 30.5,39C 24.8333,39.6667 19.1667,39.6667 13.5,39C 13.0426,38.586 12.7093,38.086 12.5,37.5C 13.5,36.1667 14.5,34.8333 15.5,33.5C 12.9728,32.7864 10.4728,32.1197 8,31.5C 5.90929,32.4996 4.24263,31.8329 3,29.5C 2.33333,22.1667 2.33333,14.8333 3,7.5C 3.69794,6.30943 4.53128,5.30943 5.5,4.5 Z M 7.5,9.5 C 12.5,9.5 17.5,9.5 22.5,9.5C 22.5,14.5 22.5,19.5 22.5,24.5C 17.7797,24.7746 17.4463,23.9412 21.5,22C 19.1088,21.3086 19.1088,20.3086 21.5,19C 17.4589,18.1735 13.4589,18.3401 9.5,19.5C 11.4233,20.3078 13.4233,20.8078 15.5,21C 7.5,22 7.5,23 15.5,24C 12.854,24.4974 10.1873,24.6641 7.5,24.5C 7.5,19.5 7.5,14.5 7.5,9.5 Z M 24.5,9.5 C 28.5,9.5 32.5,9.5 36.5,9.5C 36.6567,10.8734 36.49,12.2068 36,13.5C 32.3333,9.5 28.6667,9.5 25,13.5C 24.51,12.2068 24.3433,10.8734 24.5,9.5 Z M 29.5,12.5 C 33.8803,13.0992 34.2136,14.0992 30.5,15.5C 28.4807,14.8671 28.1474,13.8671 29.5,12.5 Z M 26.5,16.5 C 28.7029,17.0516 29.5362,18.3849 29,20.5C 27.2942,19.6921 26.4609,18.3588 26.5,16.5 Z M 33.5,16.5 C 34.7103,18.1764 34.2103,19.5097 32,20.5C 31.516,18.8067 32.016,17.4733 33.5,16.5 Z M 24.5,20.5 C 26.4734,21.4867 28.4734,22.4867 30.5,23.5C 32.4134,22.627 34.2467,21.627 36,20.5C 36.49,21.7932 36.6567,23.1266 36.5,24.5C 32.5,24.5 28.5,24.5 24.5,24.5C 24.5,23.1667 24.5,21.8333 24.5,20.5 Z M 4.5,26.5 C 10.1764,26.3339 15.8431,26.5006 21.5,27C 20.1667,28 20.1667,29 21.5,30C 16.8333,30.6667 12.1667,30.6667 7.5,30C 5.5743,29.5776 4.5743,28.4109 4.5,26.5 Z M 22.5,27.5 C 28.0129,26.1843 33.6796,26.1843 39.5,27.5C 38.91,28.7989 37.91,29.6322 36.5,30C 31.8333,30.6667 27.1667,30.6667 22.5,30C 23.7736,29.0228 23.7736,28.1894 22.5,27.5 Z M 18.5,32.5 C 21.3965,32.1253 24.0632,32.6253 26.5,34C 23.5,34.6667 20.5,34.6667 17.5,34C 18.056,33.6174 18.3893,33.1174 18.5,32.5 Z"/></g>
<g><path style="opacity:0.505" fill="#2f9632" d="M 10.5,10.5 C 12.4646,10.9483 12.7979,11.9483 11.5,13.5C 10.6143,12.675 10.281,11.675 10.5,10.5 Z"/></g>
<g><path style="opacity:0.579" fill="#2c972f" d="M 18.5,10.5 C 20.9732,10.9473 21.1399,11.9473 19,13.5C 17.2703,13.4908 15.437,13.1575 13.5,12.5C 15.2914,11.8302 16.9581,11.1635 18.5,10.5 Z"/></g>
<g><path style="opacity:0.278" fill="#2b9a2f" d="M 9.5,15.5 C 13.5138,15.3345 17.5138,15.5012 21.5,16C 19.5413,17.0963 17.3747,17.5963 15,17.5C 12.7047,17.4535 10.8714,16.7868 9.5,15.5 Z"/></g>
</svg>
