<?xml version="1.0" encoding="UTF-8"?>
<!DOCTYPE svg PUBLIC "-//W3C//DTD SVG 1.1//EN" "http://www.w3.org/Graphics/SVG/1.1/DTD/svg11.dtd">
<svg xmlns="http://www.w3.org/2000/svg" version="1.1" width="45px" height="45px"
     style="shape-rendering:geometricPrecision; text-rendering:geometricPrecision; image-rendering:optimizeQuality; fill-rule:evenodd; clip-rule:evenodd">
<g><path style="opacity:0.556" fill="#2b992e" d="M 17.5,1.5 C 18.6491,1.79106 19.3158,2.62439 19.5,4C 19.1667,4.83333 18.8333,5.66667 18.5,6.5C 17.5481,4.95467 17.2148,3.28801 17.5,1.5 Z"/></g>
<g><path style="opacity:0.627" fill="#2d982f" d="M 12.5,10.5 C 12.607,8.09685 11.607,6.26351 9.5,5C 12.3523,5.94003 15.3523,6.77336 18.5,7.5C 19.8333,7.33333 21.1667,7.16667 22.5,7C 23.7715,4.73909 25.4382,4.23909 27.5,5.5C 26.6872,6.81386 25.6872,7.98052 24.5,9C 26.7006,10.0432 29.0339,10.8765 31.5,11.5C 30.3112,12.4287 28.9778,12.762 27.5,12.5C 28.0056,16.9857 26.6723,20.819 23.5,24C 24.5762,25.7261 24.7429,27.5594 24,29.5C 17.1939,37.0725 19.0272,40.5725 29.5,40C 30.4162,39.6258 31.2496,39.1258 32,38.5C 32.6667,35.1667 32.6667,31.8333 32,28.5C 27.8669,24.5481 27.3669,20.0481 30.5,15C 32.8462,15.7916 35.1795,15.6249 37.5,14.5C 38.2834,18.1458 38.4501,21.8125 38,25.5C 37,26.5 36,27.5 35,28.5C 37.0333,39.8007 32.5333,44.3007 21.5,42C 20.0692,41.5348 18.9025,40.7014 18,39.5C 17.8078,37.4233 17.3078,35.4233 16.5,33.5C 15.2011,32.91 14.3678,31.91 14,30.5C 14.1218,25.9789 12.7885,21.9789 10,18.5C 9.25711,16.5594 9.42378,14.7261 10.5,13C 8.7444,12.7978 7.07774,12.2978 5.5,11.5C 7.74269,10.5258 10.076,10.1924 12.5,10.5 Z M 12.5,10.5 C 18.9505,7.77077 23.2838,9.6041 25.5,16C 24.3847,18.6156 23.0514,21.1156 21.5,23.5C 19.604,24.4656 17.604,24.7989 15.5,24.5C 14.4764,21.4451 13.1431,18.4451 11.5,15.5C 12.9122,13.8027 13.2455,12.136 12.5,10.5 Z M 35.5,25.5 C 31.9793,26.309 30.3126,24.6424 30.5,20.5C 32.5,20.5 34.5,20.5 36.5,20.5C 36.634,22.2915 36.3007,23.9582 35.5,25.5 Z M 15.5,26.5 C 17.604,26.2011 19.604,26.5344 21.5,27.5C 20.5,27.8333 19.5,28.1667 18.5,28.5C 16.9704,28.3601 15.9704,27.6935 15.5,26.5 Z"/></g>
<g><path style="opacity:0.735" fill="#2e9d34" d="M 18.5,12.5 C 19.552,12.3505 20.552,12.5172 21.5,13C 20.1667,14.3333 20.1667,15.6667 21.5,17C 20.2744,18.6349 18.941,20.1349 17.5,21.5C 17.3678,20.0374 17.0345,18.5374 16.5,17C 17.0439,15.415 17.7106,13.915 18.5,12.5 Z"/></g>
</svg>
