<?xml version="1.0" encoding="UTF-8"?>
<!DOCTYPE svg PUBLIC "-//W3C//DTD SVG 1.1//EN" "http://www.w3.org/Graphics/SVG/1.1/DTD/svg11.dtd">
<svg xmlns="http://www.w3.org/2000/svg" version="1.1" width="45px" height="45px" style="shape-rendering:geometricPrecision; text-rendering:geometricPrecision; image-rendering:optimizeQuality; fill-rule:evenodd; clip-rule:evenodd" xmlns:xlink="http://www.w3.org/1999/xlink">
<g><path style="opacity:0.726" fill="#2d972f" d="M 13.5,18.5 C 12.12,21.6466 11.12,24.98 10.5,28.5C 10.919,33.0129 13.0857,36.3462 17,38.5C 17.7712,33.6346 19.6045,29.3012 22.5,25.5C 24.1461,26.7786 25.3128,28.4453 26,30.5C 26.8928,29.2888 27.7261,29.2888 28.5,30.5C 29.1892,32.444 29.6892,34.444 30,36.5C 33.7353,30.8824 34.402,24.8824 32,18.5C 31.3858,22.079 29.5525,24.7457 26.5,26.5C 25.2488,19.5787 23.0821,12.9121 20,6.5C 19.1965,9.2442 18.1965,11.9109 17,14.5C 16.3292,15.2524 15.4959,15.5858 14.5,15.5C 15.8154,11.2407 16.9821,6.90733 18,2.5C 18.414,2.04265 18.914,1.70931 19.5,1.5C 24.1658,7.31392 26.9991,13.9806 28,21.5C 29.0339,18.0143 30.3672,14.681 32,11.5C 37.9316,20.8535 37.7649,30.0202 31.5,39C 25.2052,43.6569 18.8719,43.6569 12.5,39C 7.22002,33.3945 6.38669,27.2278 10,20.5C 10.8159,19.1772 11.9826,18.5106 13.5,18.5 Z M 26.5,36.5 C 25.0308,40.0684 22.8642,40.4017 20,37.5C 19.9382,34.8385 20.9382,32.5052 23,30.5C 23.4955,32.4727 23.6621,34.4727 23.5,36.5C 24.5,36.5 25.5,36.5 26.5,36.5 Z"/></g>
<g><path style="opacity:0.427" fill="#2d9c30" d="M 14.5,15.5 C 16.129,17.1959 15.7957,18.1959 13.5,18.5C 12.1854,17.1054 12.5188,16.1054 14.5,15.5 Z"/></g>
</svg>
