<?xml version="1.0" encoding="UTF-8"?>
<!DOCTYPE svg PUBLIC "-//W3C//DTD SVG 1.1//EN" "http://www.w3.org/Graphics/SVG/1.1/DTD/svg11.dtd">
<svg xmlns="http://www.w3.org/2000/svg" version="1.1" width="45px" height="45px" style="shape-rendering:geometricPrecision; text-rendering:geometricPrecision; image-rendering:optimizeQuality; fill-rule:evenodd; clip-rule:evenodd" xmlns:xlink="http://www.w3.org/1999/xlink">
<g><path style="opacity:0.662" fill="#2c9c30" d="M 8.5,7.5 C 9.37644,7.36912 10.0431,7.70245 10.5,8.5C 7.5926,12.1513 5.92594,16.3179 5.5,21C 6.34926,25.3622 8.01593,29.3622 10.5,33C 10.1667,33.5 9.83333,34 9.5,34.5C 1.87654,25.8496 1.5432,16.8496 8.5,7.5 Z"/></g>
<g><path style="opacity:0.675" fill="#2f9830" d="M 33.5,7.5 C 35.0174,7.51056 36.1841,8.17723 37,9.5C 42.1607,18.533 41.3274,26.8664 34.5,34.5C 34.1667,34 33.8333,33.5 33.5,33C 35.9841,29.3622 37.6507,25.3622 38.5,21C 37.788,16.0888 36.1213,11.5888 33.5,7.5 Z"/></g>
<g><path style="opacity:0.7" fill="#2d9930" d="M 12.5,10.5 C 13.3764,10.3691 14.0431,10.7025 14.5,11.5C 9.16667,17.5 9.16667,23.5 14.5,29.5C 12.6707,30.2824 11.1707,29.6157 10,27.5C 7.62013,21.3247 8.45346,15.658 12.5,10.5 Z"/></g>
<g><path style="opacity:0.605" fill="#2d9830" d="M 29.5,10.5 C 31.0174,10.5106 32.1841,11.1772 33,12.5C 36.8131,19.1224 36.1464,25.1224 31,30.5C 30.5,30.1667 30,29.8333 29.5,29.5C 31.6033,26.8623 32.9366,23.8623 33.5,20.5C 32.5421,16.9232 31.2087,13.5899 29.5,10.5 Z"/></g>
<g><path style="opacity:0.61" fill="#2b982e" d="M 15.5,14.5 C 16.4972,14.4701 17.1639,14.9701 17.5,16C 16.6057,17.3957 15.9391,18.8957 15.5,20.5C 16.6484,22.7613 17.1484,25.0946 17,27.5C 12.9031,23.6467 12.4031,19.3133 15.5,14.5 Z"/></g>
<g><path style="opacity:0.603" fill="#2e902e" d="M 26.5,14.5 C 29.4359,15.5153 30.7693,17.682 30.5,21C 30.6398,23.6933 29.6398,25.86 27.5,27.5C 27.1667,27 26.8333,26.5 26.5,26C 27.1667,24.3333 27.8333,22.6667 28.5,21C 27.3906,18.9534 26.7239,16.7867 26.5,14.5 Z"/></g>
<g><path style="opacity:0.398" fill="#2d972e" d="M 20.5,18.5 C 24.6246,18.7226 25.2912,20.2226 22.5,23C 23.4667,27.4014 23.8,31.9014 23.5,36.5C 22.5,36.5 21.5,36.5 20.5,36.5C 20.8296,30.0275 20.8296,24.0275 20.5,18.5 Z"/></g>
</svg>
