<?xml version="1.0" encoding="UTF-8"?>
<!DOCTYPE svg PUBLIC "-//W3C//DTD SVG 1.1//EN" "http://www.w3.org/Graphics/SVG/1.1/DTD/svg11.dtd">
<svg xmlns="http://www.w3.org/2000/svg" version="1.1" width="120px" height="120px" style="shape-rendering:geometricPrecision; text-rendering:geometricPrecision; image-rendering:optimizeQuality; fill-rule:evenodd; clip-rule:evenodd" xmlns:xlink="http://www.w3.org/1999/xlink">
<g><path style="opacity:0.998" fill="#fbfbfb" d="M 4.5,-0.5 C 40.8333,-0.5 77.1667,-0.5 113.5,-0.5C 115.475,1.13696 117.475,2.80363 119.5,4.5C 119.5,40.8333 119.5,77.1667 119.5,113.5C 117.863,115.475 116.196,117.475 114.5,119.5C 78.1667,119.5 41.8333,119.5 5.5,119.5C 3.52483,117.863 1.52483,116.196 -0.5,114.5C -0.5,78.1667 -0.5,41.8333 -0.5,5.5C 1.13696,3.52483 2.80363,1.52483 4.5,-0.5 Z"/></g>
<g><path style="opacity:1" fill="#121212" d="M 21.5,89.5 C 34.3268,90.6602 47.3268,90.8269 60.5,90C 72,79.1667 83.5,68.3333 95,57.5C 95.755,54.6967 95.4217,52.0301 94,49.5C 85.9825,41.9815 77.8158,34.6482 69.5,27.5C 63.673,31.9822 59.0063,37.3155 55.5,43.5C 55.577,45.299 56.077,46.9656 57,48.5C 61.721,52.9525 65.721,57.9525 69,63.5C 69.6667,65.5 69.6667,67.5 69,69.5C 63.9686,75.697 58.4686,81.3636 52.5,86.5C 51.5768,87.3029 50.5768,87.4696 49.5,87C 39.6667,77.8333 29.8333,68.6667 20,59.5C 18.0873,55.4708 18.0873,51.4708 20,47.5C 31.5336,36.298 43.3669,25.4647 55.5,15C 71.5922,14.031 87.5922,14.3644 103.5,16C 104.701,16.9025 105.535,18.0692 106,19.5C 106.667,42.5 106.667,65.5 106,88.5C 104.833,91 103,92.8333 100.5,94C 89.1716,94.4999 77.8382,94.6665 66.5,94.5C 66.33,93.1779 66.6634,92.0113 67.5,91C 78.1667,90.6667 88.8333,90.3333 99.5,90C 100.056,89.6174 100.389,89.1174 100.5,88.5C 101.833,65.8333 101.833,43.1667 100.5,20.5C 100.047,19.5416 99.3805,18.7083 98.5,18C 84.8333,17.3333 71.1667,17.3333 57.5,18C 56.2949,19.3756 54.9616,20.5423 53.5,21.5C 43.2035,30.6272 33.0368,39.9605 23,49.5C 22.245,52.3033 22.5783,54.9699 24,57.5C 32.0175,65.0185 40.1842,72.3518 48.5,79.5C 52.8183,75.6821 56.985,71.6821 61,67.5C 61.9651,63.2176 61.2984,59.2176 59,55.5C 56,52.8333 53,50.1667 50,47.5C 46.6667,43.5 46.6667,39.5 50,35.5C 55.3362,31.33 60.1696,26.6633 64.5,21.5C 65.601,20.2003 66.9343,19.7003 68.5,20C 79.3746,29.4055 89.7079,39.2389 99.5,49.5C 100.833,52.1667 100.833,54.8333 99.5,57.5C 87.0321,69.7997 74.3655,81.9664 61.5,94C 47.5,94.6667 33.5,94.6667 19.5,94C 17.0607,93.2261 15.2273,91.7261 14,89.5C 13.3333,65.5 13.3333,41.5 14,17.5C 14.4652,16.0692 15.2986,14.9025 16.5,14C 27.495,13.5002 38.495,13.3335 49.5,13.5C 49.5,14.8333 49.5,16.1667 49.5,17.5C 38.9179,17.1801 28.4179,17.5134 18,18.5C 17.3333,40.8333 17.3333,63.1667 18,85.5C 18.0572,87.9102 19.2239,89.2435 21.5,89.5 Z"/></g>
<g><path style="opacity:1" fill="#fbfafa" d="M 100.5,20.5 C 100.827,30.3478 100.494,40.0144 99.5,49.5C 89.7079,39.2389 79.3746,29.4055 68.5,20C 66.9343,19.7003 65.601,20.2003 64.5,21.5C 64.1667,21.5 63.8333,21.5 63.5,21.5C 63.0296,20.3065 62.0296,19.6399 60.5,19.5C 57.6887,19.974 55.3554,21.3073 53.5,23.5C 53.5,22.8333 53.5,22.1667 53.5,21.5C 54.9616,20.5423 56.2949,19.3756 57.5,18C 71.1667,17.3333 84.8333,17.3333 98.5,18C 99.3805,18.7083 100.047,19.5416 100.5,20.5 Z"/></g>
<g><path style="opacity:1" fill="#ee2227" d="M 63.5,21.5 C 58.7262,25.0979 54.0596,28.9312 49.5,33C 44.8992,37.7709 44.3992,42.9376 48,48.5C 51.6396,52.1396 55.3063,55.8063 59,59.5C 59.6667,61.8333 59.6667,64.1667 59,66.5C 55.6514,70.0158 52.1514,73.3492 48.5,76.5C 40.2566,70.7616 32.7566,64.095 26,56.5C 24.6986,54.6354 24.3653,52.6354 25,50.5C 34.698,41.6334 44.198,32.6334 53.5,23.5C 55.3554,21.3073 57.6887,19.974 60.5,19.5C 62.0296,19.6399 63.0296,20.3065 63.5,21.5 Z"/></g>
<g><path style="opacity:1" fill="#ebddde" d="M 53.5,21.5 C 53.5,22.1667 53.5,22.8333 53.5,23.5C 44.198,32.6334 34.698,41.6334 25,50.5C 24.3653,52.6354 24.6986,54.6354 26,56.5C 32.7566,64.095 40.2566,70.7616 48.5,76.5C 52.1514,73.3492 55.6514,70.0158 59,66.5C 59.6667,64.1667 59.6667,61.8333 59,59.5C 55.3063,55.8063 51.6396,52.1396 48,48.5C 44.3992,42.9376 44.8992,37.7709 49.5,33C 54.0596,28.9312 58.7262,25.0979 63.5,21.5C 63.8333,21.5 64.1667,21.5 64.5,21.5C 60.1696,26.6633 55.3362,31.33 50,35.5C 46.6667,39.5 46.6667,43.5 50,47.5C 53,50.1667 56,52.8333 59,55.5C 61.2984,59.2176 61.9651,63.2176 61,67.5C 56.985,71.6821 52.8183,75.6821 48.5,79.5C 40.1842,72.3518 32.0175,65.0185 24,57.5C 22.5783,54.9699 22.245,52.3033 23,49.5C 33.0368,39.9605 43.2035,30.6272 53.5,21.5 Z"/></g>
<g><path style="opacity:1" fill="#d8d8d8" d="M 100.5,20.5 C 101.833,43.1667 101.833,65.8333 100.5,88.5C 100.828,77.9865 100.494,67.6532 99.5,57.5C 100.833,54.8333 100.833,52.1667 99.5,49.5C 100.494,40.0144 100.827,30.3478 100.5,20.5 Z"/></g>
<g><path style="opacity:1" fill="#e1d4d5" d="M 21.5,89.5 C 33.6783,89.8284 45.6783,89.4951 57.5,88.5C 58.9217,88.2914 60.255,87.7914 61.5,87C 72,77.1667 82.5,67.3333 93,57.5C 93.6667,55.5 93.6667,53.5 93,51.5C 85.3216,44.4871 77.6549,37.4871 70,30.5C 66.3445,33.4864 62.6779,36.4864 59,39.5C 58.2189,40.7287 57.7189,42.062 57.5,43.5C 61.3213,48.4591 65.1546,53.4591 69,58.5C 70.4573,62.7411 70.7907,67.0745 70,71.5C 64.8874,76.6126 59.7208,81.7792 54.5,87C 55.056,87.3826 55.3893,87.8826 55.5,88.5C 54.2223,88.2178 53.2223,87.5511 52.5,86.5C 58.4686,81.3636 63.9686,75.697 69,69.5C 69.6667,67.5 69.6667,65.5 69,63.5C 65.721,57.9525 61.721,52.9525 57,48.5C 56.077,46.9656 55.577,45.299 55.5,43.5C 59.0063,37.3155 63.673,31.9822 69.5,27.5C 77.8158,34.6482 85.9825,41.9815 94,49.5C 95.4217,52.0301 95.755,54.6967 95,57.5C 83.5,68.3333 72,79.1667 60.5,90C 47.3268,90.8269 34.3268,90.6602 21.5,89.5 Z"/></g>
<g><path style="opacity:1" fill="#ee2327" d="M 57.5,88.5 C 56.8333,88.5 56.1667,88.5 55.5,88.5C 55.3893,87.8826 55.056,87.3826 54.5,87C 59.7208,81.7792 64.8874,76.6126 70,71.5C 70.7907,67.0745 70.4573,62.7411 69,58.5C 65.1546,53.4591 61.3213,48.4591 57.5,43.5C 57.7189,42.062 58.2189,40.7287 59,39.5C 62.6779,36.4864 66.3445,33.4864 70,30.5C 77.6549,37.4871 85.3216,44.4871 93,51.5C 93.6667,53.5 93.6667,55.5 93,57.5C 82.5,67.3333 72,77.1667 61.5,87C 60.255,87.7914 58.9217,88.2914 57.5,88.5 Z"/></g>
<g><path style="opacity:1" fill="#acacac" d="M 77.5,97.5 C 68.3178,97.1734 59.3178,97.5067 50.5,98.5C 48.1667,98.5 45.8333,98.5 43.5,98.5C 38.6946,97.5128 33.6946,97.1795 28.5,97.5C 28.3367,99.8568 28.5034,102.19 29,104.5C 29.1909,102.292 29.6909,100.292 30.5,98.5C 30.5,100.833 30.5,103.167 30.5,105.5C 29.5,105.5 28.5,105.5 27.5,105.5C 27.8076,103.076 27.4742,100.743 26.5,98.5C 25.8933,98.6236 25.56,98.9569 25.5,99.5C 23.5082,99.6715 21.8415,99.0049 20.5,97.5C 19.2404,99.3529 19.2404,101.186 20.5,103C 20.1667,103.167 19.8333,103.333 19.5,103.5C 17.9417,98.3055 16.9417,98.3055 16.5,103.5C 15.7171,101.657 15.0505,99.6568 14.5,97.5C 35.6628,96.1718 56.6628,96.1718 77.5,97.5 Z"/></g>
<g><path style="opacity:1" fill="#b7b7b7" d="M 85.5,97.5 C 91.5,96.1667 97.5,96.1667 103.5,97.5C 100.167,97.5 96.8333,97.5 93.5,97.5C 93.3367,99.8568 93.5034,102.19 94,104.5C 94.1922,102.423 94.6922,100.423 95.5,98.5C 97.4236,99.9653 97.7569,101.632 96.5,103.5C 95.5326,104.806 94.1993,105.473 92.5,105.5C 92.8016,102.941 92.4682,100.607 91.5,98.5C 91.44,97.9569 91.1067,97.6236 90.5,97.5C 89.8333,99.5 89.1667,101.5 88.5,103.5C 88.0358,101.025 87.0358,99.0251 85.5,97.5 Z"/></g>
<g><path style="opacity:1" fill="#2d2d2d" d="M 43.5,98.5 C 43.1268,107.744 42.1268,107.744 40.5,98.5C 39.8333,100.833 39.1667,103.167 38.5,105.5C 37.7189,104.271 37.2189,102.938 37,101.5C 35.8525,102.458 34.8525,102.125 34,100.5C 33.7508,101.624 33.2508,102.624 32.5,103.5C 31.2584,99.9117 32.4251,98.9117 36,100.5C 36.5,100 37,99.5 37.5,99C 35.1902,98.5034 32.8568,98.3367 30.5,98.5C 29.6909,100.292 29.1909,102.292 29,104.5C 28.5034,102.19 28.3367,99.8568 28.5,97.5C 33.6946,97.1795 38.6946,97.5128 43.5,98.5 Z"/></g>
<g><path style="opacity:1" fill="#292929" d="M 103.5,97.5 C 102.927,100.147 102.26,102.813 101.5,105.5C 100.833,103.167 100.167,100.833 99.5,98.5C 99.2514,99.5821 99.0848,100.915 99,102.5C 98.3292,103.252 97.4959,103.586 96.5,103.5C 97.7569,101.632 97.4236,99.9653 95.5,98.5C 94.6922,100.423 94.1922,102.423 94,104.5C 93.5034,102.19 93.3367,99.8568 93.5,97.5C 96.8333,97.5 100.167,97.5 103.5,97.5 Z"/></g>
<g><path style="opacity:1" fill="#343434" d="M 77.5,97.5 C 75.9581,98.1635 74.2914,98.8302 72.5,99.5C 73.5575,99.9059 74.8908,99.9059 76.5,99.5C 76.7989,101.604 76.4656,103.604 75.5,105.5C 74.7189,104.271 74.2189,102.938 74,101.5C 73.3109,102.357 72.4776,103.023 71.5,103.5C 70.8333,101.833 70.1667,100.167 69.5,98.5C 68.0285,107.766 66.8618,107.766 66,98.5C 65.5034,100.81 65.3367,103.143 65.5,105.5C 64.448,105.649 63.448,105.483 62.5,105C 63.3802,103.644 63.7135,102.144 63.5,100.5C 62.5,100.5 61.5,100.5 60.5,100.5C 60.33,101.822 60.6634,102.989 61.5,104C 60.8333,104.667 60.1667,104.667 59.5,104C 58.6198,102.644 58.2865,101.144 58.5,99.5C 59.552,99.6495 60.552,99.4828 61.5,99C 59.8659,98.5065 58.1992,98.3398 56.5,98.5C 56.8076,100.924 56.4742,103.257 55.5,105.5C 54.8319,103.031 54.1653,100.698 53.5,98.5C 52.6909,100.292 52.1909,102.292 52,104.5C 51.7679,103.263 51.2679,102.263 50.5,101.5C 49.5272,102.791 48.5272,102.791 47.5,101.5C 47.1667,102.167 46.8333,102.833 46.5,103.5C 43.8069,101.872 43.9736,100.538 47,99.5C 48.6674,101.007 49.834,100.673 50.5,98.5C 59.3178,97.5067 68.3178,97.1734 77.5,97.5 Z"/></g>
<g><path style="opacity:1" fill="#313131" d="M 85.5,97.5 C 87.0358,99.0251 88.0358,101.025 88.5,103.5C 89.1667,101.5 89.8333,99.5 90.5,97.5C 91.1067,97.6236 91.44,97.9569 91.5,98.5C 92.4951,103.542 90.4951,105.875 85.5,105.5C 85.6602,103.801 85.4935,102.134 85,100.5C 83.7592,102.421 82.2592,102.754 80.5,101.5C 81.2458,100.264 81.5792,98.9305 81.5,97.5C 83.1388,97.9258 84.4721,97.9258 85.5,97.5 Z"/></g>
<g><path style="opacity:1" fill="#2b2b2b" d="M 25.5,99.5 C 26.6942,101.484 26.6942,103.484 25.5,105.5C 24.5481,103.955 24.2148,102.288 24.5,100.5C 21.2027,100.329 20.8694,100.995 23.5,102.5C 21.5119,106.044 19.1785,106.377 16.5,103.5C 16.9417,98.3055 17.9417,98.3055 19.5,103.5C 19.8333,103.333 20.1667,103.167 20.5,103C 19.2404,101.186 19.2404,99.3529 20.5,97.5C 21.8415,99.0049 23.5082,99.6715 25.5,99.5 Z"/></g>
<g><path style="opacity:1" fill="#7d7d7d" d="M 53.5,98.5 C 53.5,100.833 53.5,103.167 53.5,105.5C 52.5,105.5 51.5,105.5 50.5,105.5C 50.5,104.167 50.5,102.833 50.5,101.5C 51.2679,102.263 51.7679,103.263 52,104.5C 52.1909,102.292 52.6909,100.292 53.5,98.5 Z"/></g>
</svg>
