<?xml version="1.0" encoding="UTF-8"?>
<!DOCTYPE svg PUBLIC "-//W3C//DTD SVG 1.1//EN" "http://www.w3.org/Graphics/SVG/1.1/DTD/svg11.dtd">
<svg xmlns="http://www.w3.org/2000/svg" version="1.1" width="120px" height="120px"
     style="shape-rendering:geometricPrecision; text-rendering:geometricPrecision; image-rendering:optimizeQuality; fill-rule:evenodd; clip-rule:evenodd">
<g><path style="opacity:0.998" fill="#fefdfe" d="M 4.5,-0.5 C 40.8333,-0.5 77.1667,-0.5 113.5,-0.5C 115.475,1.13696 117.475,2.80363 119.5,4.5C 119.5,40.8333 119.5,77.1667 119.5,113.5C 117.863,115.475 116.196,117.475 114.5,119.5C 78.1667,119.5 41.8333,119.5 5.5,119.5C 3.52483,117.863 1.52483,116.196 -0.5,114.5C -0.5,78.1667 -0.5,41.8333 -0.5,5.5C 1.13696,3.52483 2.80363,1.52483 4.5,-0.5 Z"/></g>
<g><path style="opacity:1" fill="#ee3232" d="M 32.5,38.5 C 33.0967,38.7352 33.4301,39.2352 33.5,40C 30.8048,49.7049 28.8048,59.5383 27.5,69.5C 25.1432,69.6633 22.8098,69.4966 20.5,69C 18.7349,65.8602 17.0683,62.6936 15.5,59.5C 12.063,66.7082 8.89636,74.0416 6,81.5C 7.19355,70.8171 8.86021,60.1504 11,49.5C 13.4009,48.3977 15.9009,48.231 18.5,49C 20.1889,52.8787 22.0223,56.712 24,60.5C 27.1239,53.2565 29.9573,45.9232 32.5,38.5 Z"/></g>
<g><path style="opacity:1" fill="#853185" d="M 38.5,56.5 C 37.2154,59.5885 36.5488,62.9219 36.5,66.5C 40.8333,66.5 45.1667,66.5 49.5,66.5C 49.5,66.8333 49.5,67.1667 49.5,67.5C 43.7921,69.3864 37.7921,70.0531 31.5,69.5C 30.3054,69.1344 29.6387,68.301 29.5,67C 30.4606,63.1974 31.2939,59.364 32,55.5C 32.4652,54.0692 33.2986,52.9025 34.5,52C 40.5276,51.1697 46.5276,51.3364 52.5,52.5C 52.1667,53.1667 51.8333,53.8333 51.5,54.5C 47.0178,55.1669 42.6845,55.8336 38.5,56.5 Z"/></g>
<g><path style="opacity:1" fill="#873486" d="M 67.5,69.5 C 61.642,69.8222 55.9753,69.4889 50.5,68.5C 54.3864,66.725 58.7197,65.8916 63.5,66C 64.3366,64.9887 64.67,63.8221 64.5,62.5C 60.8183,62.6653 57.1516,62.4986 53.5,62C 52.1061,58.3027 52.7727,54.9693 55.5,52C 61.4908,51.5005 67.4908,51.3338 73.5,51.5C 73.67,52.8221 73.3366,53.9887 72.5,55C 68.1794,55.499 63.8461,55.6657 59.5,55.5C 59.5,56.5 59.5,57.5 59.5,58.5C 63.1064,58.2108 66.6064,58.5442 70,59.5C 70.6667,62.1667 70.6667,64.8333 70,67.5C 69.2917,68.3805 68.4584,69.0472 67.5,69.5 Z"/></g>
<g><path style="opacity:1" fill="#873386" d="M 76.5,51.5 C 81.8437,51.334 87.1771,51.5006 92.5,52C 93.4061,53.6995 93.7394,55.5328 93.5,57.5C 89.1422,56.843 84.8089,56.343 80.5,56C 78.8627,59.2846 78.1961,62.7846 78.5,66.5C 82.2432,66.4713 85.5766,65.4713 88.5,63.5C 89.5,63.8333 90.5,64.1667 91.5,64.5C 90.9264,66.0589 90.2598,67.5589 89.5,69C 83.8333,69.6667 78.1667,69.6667 72.5,69C 71.7204,62.7382 73.0537,56.9049 76.5,51.5 Z"/></g>
<g><path style="opacity:1" fill="#863285" d="M 96.5,51.5 C 102.206,51.1712 107.872,51.5046 113.5,52.5C 113.931,53.2935 114.265,54.1268 114.5,55C 113.482,59.8058 112.149,64.4725 110.5,69C 104.584,69.8072 98.7504,69.6406 93,68.5C 93.078,62.6102 94.2446,56.9435 96.5,51.5 Z"/></g>
<g><path style="opacity:1" fill="#f6eff6" d="M 100.5,55.5 C 102.833,55.5 105.167,55.5 107.5,55.5C 106.992,59.1974 106.326,62.8641 105.5,66.5C 103.5,66.5 101.5,66.5 99.5,66.5C 99.423,62.7852 99.7564,59.1185 100.5,55.5 Z"/></g>
<g><path style="opacity:1" fill="#8c3c8b" d="M 38.5,58.5 C 42.1667,58.5 45.8333,58.5 49.5,58.5C 49.5,59.8333 49.5,61.1667 49.5,62.5C 45.8333,62.5 42.1667,62.5 38.5,62.5C 38.5,61.1667 38.5,59.8333 38.5,58.5 Z"/></g>
<g><path style="opacity:1" fill="#c9a3c9" d="M 38.5,56.5 C 38.5,57.1667 38.5,57.8333 38.5,58.5C 38.5,59.8333 38.5,61.1667 38.5,62.5C 37.596,63.209 37.2627,64.209 37.5,65.5C 41.7016,65.1832 45.7016,65.5166 49.5,66.5C 45.1667,66.5 40.8333,66.5 36.5,66.5C 36.5488,62.9219 37.2154,59.5885 38.5,56.5 Z"/></g>
<g><path style="opacity:1" fill="#d4b6d3" d="M 49.5,67.5 C 49.5,68.1667 49.8333,68.5 50.5,68.5C 55.9753,69.4889 61.642,69.8222 67.5,69.5C 55.5,70.8333 43.5,70.8333 31.5,69.5C 37.7921,70.0531 43.7921,69.3864 49.5,67.5 Z"/></g>
</svg>
