<?xml version="1.0" encoding="UTF-8"?>
<!DOCTYPE svg PUBLIC "-//W3C//DTD SVG 1.1//EN" "http://www.w3.org/Graphics/SVG/1.1/DTD/svg11.dtd">
<svg xmlns="http://www.w3.org/2000/svg" version="1.1" width="120px" height="120px" style="shape-rendering:geometricPrecision; text-rendering:geometricPrecision; image-rendering:optimizeQuality; fill-rule:evenodd; clip-rule:evenodd" xmlns:xlink="http://www.w3.org/1999/xlink">
<g><path style="opacity:0.999" fill="#fefefe" d="M 4.5,-0.5 C 40.8333,-0.5 77.1667,-0.5 113.5,-0.5C 115.475,1.13696 117.475,2.80363 119.5,4.5C 119.5,40.8333 119.5,77.1667 119.5,113.5C 117.863,115.475 116.196,117.475 114.5,119.5C 78.1667,119.5 41.8333,119.5 5.5,119.5C 3.52483,117.863 1.52483,116.196 -0.5,114.5C -0.5,78.1667 -0.5,41.8333 -0.5,5.5C 1.13696,3.52483 2.80363,1.52483 4.5,-0.5 Z"/></g>
<g><path style="opacity:1" fill="#2e3b97" d="M 73.5,11.5 C 78.1772,20.5424 80.8439,30.2091 81.5,40.5C 85.8333,40.5 90.1667,40.5 94.5,40.5C 94.5,64.5 94.5,88.5 94.5,112.5C 71.1667,112.5 47.8333,112.5 24.5,112.5C 24.5,88.5 24.5,64.5 24.5,40.5C 37.1711,40.6666 49.8377,40.4999 62.5,40C 67.7239,31.0602 71.3906,21.5602 73.5,11.5 Z"/></g>
<g><path style="opacity:1" fill="#eb1c25" d="M 70.5,27.5 C 74.6773,32.8821 76.344,39.0488 75.5,46C 74.8482,57.4439 72.6816,68.6106 69,79.5C 59.879,67.1975 59.2123,54.5308 67,41.5C 68.8928,36.9932 70.0595,32.3266 70.5,27.5 Z"/></g>
<g><path style="opacity:1" fill="#eff0f6" d="M 41.5,72.5 C 40.838,74.3035 40.5046,76.3035 40.5,78.5C 40.2865,81.5267 40.9532,84.1934 42.5,86.5C 46.108,95.4289 52.7746,100.096 62.5,100.5C 66.8133,100.257 70.8133,99.09 74.5,97C 60.2881,101.227 50.6214,96.394 45.5,82.5C 45.5,79.8333 45.5,77.1667 45.5,74.5C 46.139,67.5204 49.8056,62.8537 56.5,60.5C 57.4742,62.7427 57.8076,65.076 57.5,67.5C 49.1392,71.8991 46.6392,78.5658 50,87.5C 54.733,95.6185 61.5664,98.2852 70.5,95.5C 72.5,94.8333 73.8333,93.5 74.5,91.5C 84.6962,88.795 89.1962,82.1283 88,71.5C 86.7906,67.7244 84.624,64.7244 81.5,62.5C 81.9954,60.5183 82.4954,58.5183 83,56.5C 90.1733,65.2273 92.5066,75.2273 90,86.5C 81.8713,106.314 67.3713,113.481 46.5,108C 30.552,99.6033 24.052,86.4366 27,68.5C 32.7433,53.5521 43.5766,45.8854 59.5,45.5C 58.7255,49.814 58.0588,54.1474 57.5,58.5C 49.3884,59.9424 44.055,64.609 41.5,72.5 Z"/></g>
<g><path style="opacity:1" fill="#32409b" d="M 51.5,51.5 C 52.675,51.281 53.675,51.6143 54.5,52.5C 35.1511,60.3693 30.3178,73.7026 40,92.5C 46.3555,100.499 54.5222,103.999 64.5,103C 67.5091,101.972 70.5091,101.305 73.5,101C 57.858,109.307 44.6913,106.474 34,92.5C 25.1202,72.2798 30.9536,58.6132 51.5,51.5 Z"/></g>
<g><path style="opacity:1" fill="#f8f3f2" d="M 81.5,63.5 C 82.6284,66.4383 83.7951,69.4383 85,72.5C 85.3278,84.5051 79.4944,90.0051 67.5,89C 60.4873,85.7923 57.4873,80.2923 58.5,72.5C 60.6202,77.217 63.6202,81.3836 67.5,85C 70.1738,84.8471 72.8405,84.3471 75.5,83.5C 77.4679,79.9829 78.4679,75.9829 78.5,71.5C 79.5122,68.7428 80.5122,66.0761 81.5,63.5 Z"/></g>
<g><path style="opacity:1" fill="#fff3e9" d="M 74.5,91.5 C 73.8333,93.5 72.5,94.8333 70.5,95.5C 59.3763,96.0542 53.043,90.7209 51.5,79.5C 54.7029,68.5896 56.2029,68.923 56,80.5C 59.3374,89.0166 65.5041,92.6833 74.5,91.5 Z"/></g>
<g><path style="opacity:1" fill="#5961ad" d="M 41.5,72.5 C 41.335,75.8499 41.5017,79.1832 42,82.5C 42.6667,81.8333 43.3333,81.1667 44,80.5C 44.1909,78.2922 44.6909,76.2922 45.5,74.5C 45.5,77.1667 45.5,79.8333 45.5,82.5C 44.8185,84.7229 43.8185,86.0563 42.5,86.5C 40.9532,84.1934 40.2865,81.5267 40.5,78.5C 40.5046,76.3035 40.838,74.3035 41.5,72.5 Z"/></g>
<g><path style="opacity:1" fill="#f79234" d="M 81.5,62.5 C 84.624,64.7244 86.7906,67.7244 88,71.5C 89.1962,82.1283 84.6962,88.795 74.5,91.5C 65.5041,92.6833 59.3374,89.0166 56,80.5C 56.2029,68.923 54.7029,68.5896 51.5,79.5C 53.043,90.7209 59.3763,96.0542 70.5,95.5C 61.5664,98.2852 54.733,95.6185 50,87.5C 46.6392,78.5658 49.1392,71.8991 57.5,67.5C 58.4511,68.9187 58.7845,70.5853 58.5,72.5C 57.4873,80.2923 60.4873,85.7923 67.5,89C 79.4944,90.0051 85.3278,84.5051 85,72.5C 83.7951,69.4383 82.6284,66.4383 81.5,63.5C 81.5,63.1667 81.5,62.8333 81.5,62.5 Z"/></g>
<g><path style="opacity:1" fill="#9da4d0" d="M 78.5,71.5 C 78.4679,75.9829 77.4679,79.9829 75.5,83.5C 76.0158,79.2912 77.0158,75.2912 78.5,71.5 Z"/></g>
<g><path style="opacity:1" fill="#34429c" d="M 45.5,82.5 C 50.6214,96.394 60.2881,101.227 74.5,97C 70.8133,99.09 66.8133,100.257 62.5,100.5C 52.7746,100.096 46.108,95.4289 42.5,86.5C 43.8185,86.0563 44.8185,84.7229 45.5,82.5 Z"/></g>
</svg>
