<?xml version="1.0" encoding="UTF-8"?>
<!DOCTYPE svg PUBLIC "-//W3C//DTD SVG 1.1//EN" "http://www.w3.org/Graphics/SVG/1.1/DTD/svg11.dtd">
<svg xmlns="http://www.w3.org/2000/svg" version="1.1" width="120px" height="120px"
     style="shape-rendering:geometricPrecision; text-rendering:geometricPrecision; image-rendering:optimizeQuality; fill-rule:evenodd; clip-rule:evenodd">
<g><path style="opacity:0.999" fill="#fefefe" d="M 4.5,-0.5 C 40.8333,-0.5 77.1667,-0.5 113.5,-0.5C 115.475,1.13696 117.475,2.80363 119.5,4.5C 119.5,40.8333 119.5,77.1667 119.5,113.5C 117.863,115.475 116.196,117.475 114.5,119.5C 78.1667,119.5 41.8333,119.5 5.5,119.5C 3.52483,117.863 1.52483,116.196 -0.5,114.5C -0.5,78.1667 -0.5,41.8333 -0.5,5.5C 1.13696,3.52483 2.80363,1.52483 4.5,-0.5 Z"/></g>
<g><path style="opacity:1" fill="#48379a" d="M 68.5,22.5 C 66.0688,23.7409 66.0688,24.9076 68.5,26C 67.552,26.4828 66.552,26.6495 65.5,26.5C 65.5,27.5 65.5,28.5 65.5,29.5C 65.6495,30.552 65.4828,31.552 65,32.5C 64.6667,30.5 64.3333,28.5 64,26.5C 63.51,27.7932 63.3433,29.1266 63.5,30.5C 62.7784,30.0825 62.2784,29.4158 62,28.5C 61.6667,28.8333 61.3333,29.1667 61,29.5C 60.6886,28.2575 61.1886,27.2575 62.5,26.5C 62.1543,25.3044 61.6543,25.3044 61,26.5C 59.9609,22.7771 58.7942,22.7771 57.5,26.5C 56.791,25.596 55.791,25.2627 54.5,25.5C 56.1621,24.0154 57.9954,22.6821 60,21.5C 61.605,22.1007 62.9384,23.1007 64,24.5C 65.1096,22.9632 66.6096,22.2965 68.5,22.5 Z"/></g>
<g><path style="opacity:1" fill="#f8f7fa" d="M 49.5,22.5 C 48.1667,24.5 48.1667,26.5 49.5,28.5C 49.795,30.4233 50.6283,32.0899 52,33.5C 51.6692,31.9813 51.8359,30.648 52.5,29.5C 53.4271,31.4759 54.7605,31.8092 56.5,30.5C 56.9349,28.5973 56.2682,26.9307 54.5,25.5C 55.791,25.2627 56.791,25.596 57.5,26.5C 56.4832,30.7806 58.1499,33.114 62.5,33.5C 63.3857,32.675 63.719,31.675 63.5,30.5C 63.3433,29.1266 63.51,27.7932 64,26.5C 64.3333,28.5 64.6667,30.5 65,32.5C 65.4828,31.552 65.6495,30.552 65.5,29.5C 65.8333,29.5 66.1667,29.5 66.5,29.5C 68.6517,31.0039 70.8184,32.6705 73,34.5C 74.5802,33.1998 76.0802,31.8664 77.5,30.5C 77.5858,31.4959 77.2524,32.3292 76.5,33C 77.8228,33.8159 78.4894,34.9826 78.5,36.5C 77.7109,36.7828 77.0442,37.2828 76.5,38C 77.9594,37.6446 79.2928,37.8112 80.5,38.5C 81.9582,40.8549 83.2915,40.5215 84.5,37.5C 85.2389,37.631 85.9056,37.4643 86.5,37C 84.2239,34.2111 81.5573,32.0444 78.5,30.5C 78.0679,29.2905 77.4013,28.2905 76.5,27.5C 76.1583,26.6618 75.4916,26.3284 74.5,26.5C 73.4722,23.9017 72.4722,23.9017 71.5,26.5C 71.2671,24.9382 70.6005,23.6049 69.5,22.5C 73.6828,23.2567 77.6828,24.59 81.5,26.5C 83.5952,27.412 85.5952,28.5787 87.5,30C 88.2524,30.6708 88.5858,31.5041 88.5,32.5C 89.0798,34.7488 90.4131,36.4154 92.5,37.5C 100.5,52.1667 100.5,66.8333 92.5,81.5C 90.5,86.8333 86.8333,90.5 81.5,92.5C 66.8333,100.5 52.1667,100.5 37.5,92.5C 36.4154,90.4131 34.7488,89.0798 32.5,88.5C 31.5041,88.5858 30.6708,88.2524 30,87.5C 28.5787,85.5952 27.412,83.5952 26.5,81.5C 24.1174,76.7284 22.284,71.7284 21,66.5C 20.5172,67.448 20.3505,68.448 20.5,69.5C 19.5655,68.4324 19.2322,67.099 19.5,65.5C 19.8693,61.2325 20.8693,57.2325 22.5,53.5C 22.7828,54.2891 23.2828,54.9558 24,55.5C 24.1499,60.5723 24.3165,65.5723 24.5,70.5C 26.0754,69.5435 27.742,68.8769 29.5,68.5C 30.6522,69.625 31.6522,69.625 32.5,68.5C 33.8333,66.8333 33.8333,65.1667 32.5,63.5C 31.9002,62.1001 30.9002,61.1001 29.5,60.5C 29.5858,59.5041 29.2524,58.6708 28.5,58C 29.5,57.6667 30.5,57.3333 31.5,57C 24.8333,56.3333 24.8333,55.6667 31.5,55C 29.7444,54.7978 28.0777,54.2978 26.5,53.5C 26.6236,52.8933 26.9569,52.56 27.5,52.5C 29.7907,53.7376 31.7907,53.2376 33.5,51C 32.6195,50.2917 31.9528,49.4584 31.5,48.5C 31.6262,47.561 31.9595,46.561 32.5,45.5C 33.2506,46.5735 34.2506,46.7401 35.5,46C 33.4311,45.6758 33.0977,44.8425 34.5,43.5C 35.7161,42.9041 37.0494,42.7374 38.5,43C 36.3586,41.6924 34.3586,40.1924 32.5,38.5C 30.1671,39.8322 28.8337,41.8322 28.5,44.5C 26.4628,47.172 24.4628,49.8386 22.5,52.5C 21.9033,52.2648 21.5699,51.7648 21.5,51C 22.7567,46.3252 24.4233,41.8252 26.5,37.5C 28.914,36.0892 30.5806,34.0892 31.5,31.5C 32.9108,29.086 34.9108,27.4194 37.5,26.5C 41.3172,24.59 45.3172,23.2567 49.5,22.5 Z"/></g>
<g><path style="opacity:1" fill="#a29acd" d="M 81.5,26.5 C 77.6828,24.59 73.6828,23.2567 69.5,22.5C 62.8333,19.8333 56.1667,19.8333 49.5,22.5C 45.3172,23.2567 41.3172,24.59 37.5,26.5C 43.2612,21.3011 50.0946,18.9678 58,19.5C 66.9127,18.7183 74.746,21.0517 81.5,26.5 Z"/></g>
<g><path style="opacity:1" fill="#e5e3f1" d="M 69.5,22.5 C 69.1667,22.5 68.8333,22.5 68.5,22.5C 66.6096,22.2965 65.1096,22.9632 64,24.5C 62.9384,23.1007 61.605,22.1007 60,21.5C 57.9954,22.6821 56.1621,24.0154 54.5,25.5C 52.8008,25.6602 51.1341,25.4935 49.5,25C 50.3279,24.0853 51.3279,23.4186 52.5,23C 51.552,22.5172 50.552,22.3505 49.5,22.5C 56.1667,19.8333 62.8333,19.8333 69.5,22.5 Z"/></g>
<g><path style="opacity:1" fill="#aca5d2" d="M 68.5,22.5 C 68.8333,22.5 69.1667,22.5 69.5,22.5C 70.6005,23.6049 71.2671,24.9382 71.5,26.5C 69.326,26.7497 67.6594,27.7497 66.5,29.5C 66.1667,29.5 65.8333,29.5 65.5,29.5C 65.5,28.5 65.5,27.5 65.5,26.5C 66.552,26.6495 67.552,26.4828 68.5,26C 66.0688,24.9076 66.0688,23.7409 68.5,22.5 Z"/></g>
<g><path style="opacity:1" fill="#9c94ca" d="M 52.5,29.5 C 51.8359,30.648 51.6692,31.9813 52,33.5C 50.6283,32.0899 49.795,30.4233 49.5,28.5C 52.1445,25.728 53.1445,26.0614 52.5,29.5 Z"/></g>
<g><path style="opacity:1" fill="#5848a3" d="M 49.5,22.5 C 50.552,22.3505 51.552,22.5172 52.5,23C 51.3279,23.4186 50.3279,24.0853 49.5,25C 51.1341,25.4935 52.8008,25.6602 54.5,25.5C 56.2682,26.9307 56.9349,28.5973 56.5,30.5C 54.7605,31.8092 53.4271,31.4759 52.5,29.5C 53.1445,26.0614 52.1445,25.728 49.5,28.5C 48.1667,26.5 48.1667,24.5 49.5,22.5 Z"/></g>
<g><path style="opacity:1" fill="#402f97" d="M 74.5,26.5 C 75.4916,26.3284 76.1583,26.6618 76.5,27.5C 75.6397,29.9701 74.3064,30.1368 72.5,28C 73.0442,27.2828 73.7109,26.7828 74.5,26.5 Z"/></g>
<g><path style="opacity:1" fill="#7668b3" d="M 63.5,30.5 C 63.719,31.675 63.3857,32.675 62.5,33.5C 58.1499,33.114 56.4832,30.7806 57.5,26.5C 58.7942,22.7771 59.9609,22.7771 61,26.5C 61.6543,25.3044 62.1543,25.3044 62.5,26.5C 61.1886,27.2575 60.6886,28.2575 61,29.5C 61.3333,29.1667 61.6667,28.8333 62,28.5C 62.2784,29.4158 62.7784,30.0825 63.5,30.5 Z"/></g>
<g><path style="opacity:1" fill="#8174b9" d="M 74.5,26.5 C 73.7109,26.7828 73.0442,27.2828 72.5,28C 74.3064,30.1368 75.6397,29.9701 76.5,27.5C 77.4013,28.2905 78.0679,29.2905 78.5,30.5C 78.1667,30.5 77.8333,30.5 77.5,30.5C 76.0802,31.8664 74.5802,33.1998 73,34.5C 70.8184,32.6705 68.6517,31.0039 66.5,29.5C 67.6594,27.7497 69.326,26.7497 71.5,26.5C 72.4722,23.9017 73.4722,23.9017 74.5,26.5 Z"/></g>
<g><path style="opacity:1" fill="#7466b3" d="M 42.5,28.5 C 42.9906,29.8931 44.4906,30.8931 47,31.5C 47.147,35.9214 45.4804,36.5881 42,33.5C 42.652,36.8508 41.152,38.3508 37.5,38C 36.4238,36.2739 36.2571,34.4406 37,32.5C 39.0153,31.3034 40.8487,29.9701 42.5,28.5 Z"/></g>
<g><path style="opacity:1" fill="#4f3e9e" d="M 77.5,30.5 C 77.8333,30.5 78.1667,30.5 78.5,30.5C 81.5573,32.0444 84.2239,34.2111 86.5,37C 85.9056,37.4643 85.2389,37.631 84.5,37.5C 82.9516,34.049 80.9516,33.7156 78.5,36.5C 78.4894,34.9826 77.8228,33.8159 76.5,33C 77.2524,32.3292 77.5858,31.4959 77.5,30.5 Z"/></g>
<g><path style="opacity:1" fill="#a299cd" d="M 31.5,31.5 C 30.5806,34.0892 28.914,36.0892 26.5,37.5C 27.4194,34.9108 29.086,32.9108 31.5,31.5 Z"/></g>
<g><path style="opacity:1" fill="#9e95cb" d="M 88.5,32.5 C 90.5869,33.5846 91.9202,35.2512 92.5,37.5C 90.4131,36.4154 89.0798,34.7488 88.5,32.5 Z"/></g>
<g><path style="opacity:1" fill="#9c93c7" d="M 84.5,37.5 C 83.4168,37.4606 82.4168,37.1272 81.5,36.5C 80.7025,36.9569 80.3691,37.6236 80.5,38.5C 79.2928,37.8112 77.9594,37.6446 76.5,38C 77.0442,37.2828 77.7109,36.7828 78.5,36.5C 80.9516,33.7156 82.9516,34.049 84.5,37.5 Z"/></g>
<g><path style="opacity:1" fill="#5343a1" d="M 84.5,37.5 C 83.2915,40.5215 81.9582,40.8549 80.5,38.5C 80.3691,37.6236 80.7025,36.9569 81.5,36.5C 82.4168,37.1272 83.4168,37.4606 84.5,37.5 Z"/></g>
<g><path style="opacity:1" fill="#7d6fb7" d="M 32.5,45.5 C 31.1667,45.1667 29.8333,44.8333 28.5,44.5C 28.8337,41.8322 30.1671,39.8322 32.5,38.5C 34.3586,40.1924 36.3586,41.6924 38.5,43C 37.0494,42.7374 35.7161,42.9041 34.5,43.5C 33.0977,44.8425 33.4311,45.6758 35.5,46C 34.2506,46.7401 33.2506,46.5735 32.5,45.5 Z"/></g>
<g><path style="opacity:1" fill="#685aae" d="M 90.5,44.5 C 87.5435,41.63 85.5435,42.2967 84.5,46.5C 83.605,42.567 85.2717,41.067 89.5,42C 90.2524,42.6708 90.5858,43.5041 90.5,44.5 Z"/></g>
<g><path style="opacity:1" fill="#9c94c8" d="M 26.5,37.5 C 24.4233,41.8252 22.7567,46.3252 21.5,51C 21.5699,51.7648 21.9033,52.2648 22.5,52.5C 22.5,52.8333 22.5,53.1667 22.5,53.5C 20.8693,57.2325 19.8693,61.2325 19.5,65.5C 19.3119,59.1115 19.8119,52.7782 21,46.5C 22.3571,43.1019 24.1904,40.1019 26.5,37.5 Z"/></g>
<g><path style="opacity:1" fill="#503f9e" d="M 90.5,44.5 C 92.0652,46.5093 93.0652,48.8427 93.5,51.5C 92.448,51.6495 91.448,51.4828 90.5,51C 91.4506,50.2825 91.6172,49.4491 91,48.5C 90.2917,49.3805 89.4584,50.0472 88.5,50.5C 84.9595,49.0937 84.7928,47.0937 88,44.5C 89.3919,46.8418 90.2252,46.8418 90.5,44.5 Z"/></g>
<g><path style="opacity:1" fill="#9c92c9" d="M 31.5,48.5 C 31.9528,49.4584 32.6195,50.2917 33.5,51C 31.7907,53.2376 29.7907,53.7376 27.5,52.5C 26.7089,50.2013 27.3756,48.2013 29.5,46.5C 30.1818,47.2427 30.8485,47.9094 31.5,48.5 Z"/></g>
<g><path style="opacity:1" fill="#ff2811" d="M 60.5,73.5 C 59.391,73.4431 58.391,73.1098 57.5,72.5C 51.6239,66.8352 50.1239,60.1685 53,52.5C 56.6769,47.4626 58.3435,41.7959 58,35.5C 67.9586,45.2696 68.9586,55.9363 61,67.5C 60.5045,69.4727 60.3379,71.4727 60.5,73.5 Z"/></g>
<g><path style="opacity:1" fill="#ffef00" d="M 59.5,47.5 C 61.5328,48.8984 62.5328,50.8984 62.5,53.5C 61.1147,57.4826 59.6147,61.4826 58,65.5C 56.5961,63.3611 55.7628,61.0278 55.5,58.5C 56.5555,54.7243 57.8888,51.0576 59.5,47.5 Z"/></g>
<g><path style="opacity:1" fill="#aea7d3" d="M 93.5,51.5 C 93.5,51.8333 93.5,52.1667 93.5,52.5C 91.0276,52.3653 89.6943,53.032 89.5,54.5C 89.189,55.4778 88.5223,56.1445 87.5,56.5C 88.017,54.9815 87.3504,53.6482 85.5,52.5C 86.6016,51.8243 87.6016,51.1577 88.5,50.5C 89.4584,50.0472 90.2917,49.3805 91,48.5C 91.6172,49.4491 91.4506,50.2825 90.5,51C 91.448,51.4828 92.448,51.6495 93.5,51.5 Z"/></g>
<g><path style="opacity:1" fill="#6051a8" d="M 93.5,52.5 C 93.1627,55.3357 91.8293,56.0024 89.5,54.5C 89.6943,53.032 91.0276,52.3653 93.5,52.5 Z"/></g>
<g><path style="opacity:1" fill="#5848a3" d="M 28.5,44.5 C 29.8333,44.8333 31.1667,45.1667 32.5,45.5C 31.9595,46.561 31.6262,47.561 31.5,48.5C 30.8485,47.9094 30.1818,47.2427 29.5,46.5C 27.3756,48.2013 26.7089,50.2013 27.5,52.5C 26.9569,52.56 26.6236,52.8933 26.5,53.5C 28.0777,54.2978 29.7444,54.7978 31.5,55C 24.8333,55.6667 24.8333,56.3333 31.5,57C 30.5,57.3333 29.5,57.6667 28.5,58C 29.2524,58.6708 29.5858,59.5041 29.5,60.5C 28.234,61.0899 26.9007,61.5899 25.5,62C 26.4061,63.6995 26.7394,65.5328 26.5,67.5C 27.791,67.2627 28.791,67.596 29.5,68.5C 27.742,68.8769 26.0754,69.5435 24.5,70.5C 24.3165,65.5723 24.1499,60.5723 24,55.5C 23.2828,54.9558 22.7828,54.2891 22.5,53.5C 22.5,53.1667 22.5,52.8333 22.5,52.5C 24.4628,49.8386 26.4628,47.172 28.5,44.5 Z"/></g>
<g><path style="opacity:1" fill="#e2def0" d="M 24.5,50.5 C 25.7759,51.3864 25.7759,52.3864 24.5,53.5C 23.4376,52.5754 23.4376,51.5754 24.5,50.5 Z"/></g>
<g><path style="opacity:1" fill="#9e96ca" d="M 93.5,58.5 C 92.4019,59.397 92.4019,60.2303 93.5,61C 92.2068,61.49 90.8734,61.6567 89.5,61.5C 88.7375,60.7321 87.7375,60.2321 86.5,60C 88.5938,58.6485 90.9272,58.1485 93.5,58.5 Z"/></g>
<g><path style="opacity:1" fill="#9890c7" d="M 92.5,37.5 C 97.7828,43.7568 100.116,51.0901 99.5,59.5C 100.116,67.9099 97.7828,75.2432 92.5,81.5C 100.5,66.8333 100.5,52.1667 92.5,37.5 Z"/></g>
<g><path style="opacity:1" fill="#5d4da6" d="M 93.5,58.5 C 96.5,58.1667 97.8333,59.5 97.5,62.5C 96.8485,61.9094 96.1818,61.2427 95.5,60.5C 94.5481,62.0453 94.2148,63.712 94.5,65.5C 93.8826,65.6107 93.3826,65.944 93,66.5C 90.9307,65.7362 88.764,65.2362 86.5,65C 87.8333,64.6667 89.1667,64.3333 90.5,64C 89.7476,63.3292 89.4142,62.4959 89.5,61.5C 90.8734,61.6567 92.2068,61.49 93.5,61C 92.4019,60.2303 92.4019,59.397 93.5,58.5 Z"/></g>
<g><path style="opacity:1" fill="#443297" d="M 32.5,63.5 C 33.8333,65.1667 33.8333,66.8333 32.5,68.5C 31.2876,67.7701 30.2876,66.7701 29.5,65.5C 28.6043,66.5063 27.9377,66.5063 27.5,65.5C 29.2914,64.8302 30.9581,64.1635 32.5,63.5 Z"/></g>
<g><path style="opacity:1" fill="#a8a0d0" d="M 97.5,62.5 C 96.8333,63.8333 95.8333,64.8333 94.5,65.5C 94.2148,63.712 94.5481,62.0453 95.5,60.5C 96.1818,61.2427 96.8485,61.9094 97.5,62.5 Z"/></g>
<g><path style="opacity:1" fill="#b4aed6" d="M 29.5,60.5 C 30.9002,61.1001 31.9002,62.1001 32.5,63.5C 30.9581,64.1635 29.2914,64.8302 27.5,65.5C 27.9377,66.5063 28.6043,66.5063 29.5,65.5C 30.2876,66.7701 31.2876,67.7701 32.5,68.5C 31.6522,69.625 30.6522,69.625 29.5,68.5C 28.791,67.596 27.791,67.2627 26.5,67.5C 26.7394,65.5328 26.4061,63.6995 25.5,62C 26.9007,61.5899 28.234,61.0899 29.5,60.5 Z"/></g>
<g><path style="opacity:1" fill="#6556aa" d="M 85.5,66.5 C 87.8056,66.9926 90.139,67.3259 92.5,67.5C 92.719,68.675 92.3857,69.675 91.5,70.5C 89.1507,69.4571 87.1507,68.1238 85.5,66.5 Z"/></g>
<g><path style="opacity:1" fill="#a29acc" d="M 26.5,81.5 C 23.4598,78.0864 21.4598,74.0864 20.5,69.5C 20.3505,68.448 20.5172,67.448 21,66.5C 22.284,71.7284 24.1174,76.7284 26.5,81.5 Z"/></g>
<g><path style="opacity:1" fill="#aea6d1" d="M 57.5,72.5 C 58.391,73.1098 59.391,73.4431 60.5,73.5C 68.5,73.5 76.5,73.5 84.5,73.5C 84.5,77.8333 84.5,82.1667 84.5,86.5C 68.1667,86.5 51.8333,86.5 35.5,86.5C 34.178,82.4336 34.178,78.2669 35.5,74C 43.0115,73.8288 50.3448,73.3288 57.5,72.5 Z"/></g>
<g><path style="opacity:1" fill="#f5f4f9" d="M 39.5,76.5 C 38.7326,77.172 38.0659,78.0053 37.5,79C 38.1094,80.9483 38.776,82.7816 39.5,84.5C 40.2679,83.7375 40.7679,82.7375 41,81.5C 43.791,85.7691 45.791,85.4357 47,80.5C 48.2108,84.4625 50.2108,85.1291 53,82.5C 53.3076,83.3081 53.8076,83.9747 54.5,84.5C 57.1197,81.3012 59.1197,81.3012 60.5,84.5C 61.4519,82.9547 61.7852,81.288 61.5,79.5C 54.3448,78.6712 47.0115,78.1712 39.5,78C 41.5064,77.9174 42.5064,77.4174 42.5,76.5C 55.9898,75.5043 69.6565,75.171 83.5,75.5C 83.5,78.8333 83.5,82.1667 83.5,85.5C 80.2869,85.81 77.2869,85.4767 74.5,84.5C 74.3398,82.8008 74.5065,81.1341 75,79.5C 76.6883,80.3247 76.8549,81.3247 75.5,82.5C 76.2739,83.7112 77.1072,83.7112 78,82.5C 78.3076,83.3081 78.8076,83.9747 79.5,84.5C 80.4656,82.604 80.7989,80.604 80.5,78.5C 75.4889,78.3341 70.4889,78.5007 65.5,79C 64.1787,80.5445 64.5121,81.7112 66.5,82.5C 67.1924,81.9747 67.6924,81.3081 68,80.5C 68.49,81.7932 68.6567,83.1266 68.5,84.5C 57.6794,85.4946 46.6794,85.8279 35.5,85.5C 35.5,82.1667 35.5,78.8333 35.5,75.5C 37.099,75.2322 38.4324,75.5655 39.5,76.5 Z"/></g>
<g><path style="opacity:1" fill="#8f83c1" d="M 61.5,79.5 C 61.7852,81.288 61.4519,82.9547 60.5,84.5C 59.1197,81.3012 57.1197,81.3012 54.5,84.5C 53.8076,83.9747 53.3076,83.3081 53,82.5C 50.2108,85.1291 48.2108,84.4625 47,80.5C 45.791,85.4357 43.791,85.7691 41,81.5C 40.7679,82.7375 40.2679,83.7375 39.5,84.5C 39.5397,79.9865 41.2063,78.9865 44.5,81.5C 46.5,78.8333 48.5,78.8333 50.5,81.5C 53.8989,79.6878 57.5656,79.0211 61.5,79.5 Z"/></g>
<g><path style="opacity:1" fill="#5f4fa7" d="M 74.5,84.5 C 73.1362,78.1426 71.9696,78.1426 71,84.5C 70.6667,82.8333 70.3333,81.1667 70,79.5C 69.8019,81.3817 69.3019,83.0484 68.5,84.5C 68.6567,83.1266 68.49,81.7932 68,80.5C 67.6924,81.3081 67.1924,81.9747 66.5,82.5C 64.5121,81.7112 64.1787,80.5445 65.5,79C 70.4889,78.5007 75.4889,78.3341 80.5,78.5C 80.7989,80.604 80.4656,82.604 79.5,84.5C 78.8076,83.9747 78.3076,83.3081 78,82.5C 77.1072,83.7112 76.2739,83.7112 75.5,82.5C 76.8549,81.3247 76.6883,80.3247 75,79.5C 74.5065,81.1341 74.3398,82.8008 74.5,84.5 Z"/></g>
<g><path style="opacity:1" fill="#4c3c9c" d="M 42.5,76.5 C 42.5064,77.4174 41.5064,77.9174 39.5,78C 47.0115,78.1712 54.3448,78.6712 61.5,79.5C 57.5656,79.0211 53.8989,79.6878 50.5,81.5C 48.5,78.8333 46.5,78.8333 44.5,81.5C 41.2063,78.9865 39.5397,79.9865 39.5,84.5C 38.776,82.7816 38.1094,80.9483 37.5,79C 38.0659,78.0053 38.7326,77.172 39.5,76.5C 40.5,75.1667 41.5,75.1667 42.5,76.5 Z"/></g>
<g><path style="opacity:1" fill="#d6d3e9" d="M 35.5,86.5 C 51.8333,86.5 68.1667,86.5 84.5,86.5C 78.5,87.1667 72.5,87.8333 66.5,88.5C 66.1667,88.5 65.8333,88.5 65.5,88.5C 55.5,87.8333 45.5,87.1667 35.5,86.5 Z"/></g>
<g><path style="opacity:1" fill="#9d95cb" d="M 32.5,88.5 C 34.7488,89.0798 36.4154,90.4131 37.5,92.5C 35.2512,91.9202 33.5846,90.5869 32.5,88.5 Z"/></g>
<g><path style="opacity:1" fill="#7265b2" d="M 65.5,88.5 C 65.8333,88.5 66.1667,88.5 66.5,88.5C 67.4614,90.2646 67.7947,92.2646 67.5,94.5C 65.2784,93.6138 63.1118,93.6138 61,94.5C 60.0546,94.0946 59.3879,93.428 59,92.5C 58.2613,93.5742 57.2613,94.2409 56,94.5C 53.8047,94.0446 51.638,93.7113 49.5,93.5C 50.0253,92.8076 50.6919,92.3076 51.5,92C 49.7397,91.0347 49.4063,89.868 50.5,88.5C 51.4803,89.9814 52.647,91.3147 54,92.5C 53.7374,91.0494 53.9041,89.7161 54.5,88.5C 56.4935,90.9166 58.3268,90.9166 60,88.5C 61.8101,91.0176 63.6434,91.0176 65.5,88.5 Z"/></g>
<g><path style="opacity:1" fill="#9e96cb" d="M 37.5,92.5 C 52.1667,100.5 66.8333,100.5 81.5,92.5C 74.746,97.9483 66.9127,100.282 58,99.5C 50.0946,100.032 43.2612,97.6989 37.5,92.5 Z"/></g>
</svg>
