<?xml version="1.0" encoding="UTF-8"?>
<!DOCTYPE svg PUBLIC "-//W3C//DTD SVG 1.1//EN" "http://www.w3.org/Graphics/SVG/1.1/DTD/svg11.dtd">
<svg xmlns="http://www.w3.org/2000/svg" version="1.1" width="45px" height="45px"
     style="shape-rendering:geometricPrecision; text-rendering:geometricPrecision; image-rendering:optimizeQuality; fill-rule:evenodd; clip-rule:evenodd">
<g><path style="opacity:0.636" fill="#2e9830" d="M 21.5,2.5 C 28.3022,9.4377 32.4689,17.771 34,27.5C 36.5791,20.8301 38.5791,20.8301 40,27.5C 38.8289,28.8932 37.3289,29.7265 35.5,30C 38.0336,30.5163 40.2002,31.683 42,33.5C 42.7112,35.3668 42.2112,36.8668 40.5,38C 30.3732,41.6172 20.0399,42.2838 9.5,40C -0.790331,36.7383 -1.12366,33.405 8.5,30C 2.95202,28.544 2.28535,26.044 6.5,22.5C 8.63649,23.4724 9.80316,25.1391 10,27.5C 11.7867,18.2169 15.6201,9.88355 21.5,2.5 Z M 21.5,5.5 C 25.6637,11.3481 28.997,17.6814 31.5,24.5C 29.4995,32.8337 24.4995,35.3337 16.5,32C 14.0295,29.9337 12.6962,27.267 12.5,24C 14.6518,17.3528 17.6518,11.1862 21.5,5.5 Z M 10.5,32.5 C 9.13411,35.9463 10.4674,37.7796 14.5,38C 11.0458,38.4066 7.87917,37.5732 5,35.5C 4.31232,34.6683 4.47899,34.0016 5.5,33.5C 7.07092,32.6906 8.73759,32.3573 10.5,32.5 Z M 33.5,32.5 C 42.7973,33.9884 42.7973,35.8217 33.5,38C 28.2647,38.4506 28.2647,37.9506 33.5,36.5C 34.6256,35.1916 34.6256,33.8583 33.5,32.5 Z M 28.5,33.5 C 29.4734,33.9867 30.4734,34.4867 31.5,35C 28.5576,36.1244 25.5576,36.4577 22.5,36C 24.8516,35.7599 26.8516,34.9265 28.5,33.5 Z M 12.5,35.5 C 15.3768,34.4824 18.3768,34.6491 21.5,36C 18.4929,36.3013 15.4929,36.1346 12.5,35.5 Z"/></g>
</svg>
