<?xml version="1.0" encoding="UTF-8" standalone="no"?>
<svg
    xmlns:dc="http://purl.org/dc/elements/1.1/"
    xmlns:cc="http://creativecommons.org/ns#"
    xmlns:rdf="http://www.w3.org/1999/02/22-rdf-syntax-ns#"
    xmlns="http://www.w3.org/2000/svg"
    viewBox="0 0 445.66666 172.18668"
    height="172.18668"
    width="445.66666"
    xml:space="preserve"
    id="svg2"
    version="1.1"><metadata
     id="metadata8"><rdf:RDF><cc:Work
         rdf:about=""><dc:format>image/svg+xml</dc:format><dc:type
           rdf:resource="http://purl.org/dc/dcmitype/StillImage" /></cc:Work></rdf:RDF></metadata><defs
     id="defs6" /><g
     transform="matrix(1.3333333,0,0,-1.3333333,0,172.18667)"
     id="g10"><g
       transform="scale(0.1)"
       id="g12"><path
         id="path14"
         style="fill:#2e3192;fill-opacity:1;fill-rule:nonzero;stroke:none"
         d="m 2896.67,1028.48 c -39.76,-99.468 -72.29,-180.855 -105.66,-264.324 92.23,0 173.74,0 274.69,0 -59.13,92.477 -109.3,170.922 -169.03,264.324 z M 1433.05,762 c -54.33,142.426 -105.65,276.95 -156.96,411.48 -6.28,-0.85 -12.55,-1.7 -18.82,-2.55 -32.42,-134.51 -64.83,-269.024 -98.55,-408.93 94.1,0 178.76,0 274.33,0 z M 2758.04,614.641 C 2667.52,493.344 2560.06,449.59 2422.97,483.059 c -4.37,16.699 -9.47,36.195 -17.83,68.156 -86.22,-96.547 -194.34,-75.301 -297.34,-76.086 -132.96,-1.012 -265.93,-0.246 -402.94,-0.246 -3.15,41.297 -5.91,77.355 -9.53,124.777 -134.89,-145.969 -301.03,-138.664 -470.95,-121.398 -66.84,6.793 -114.87,23.156 -95.76,107.707 -52.57,-34.906 -97.66,-70.086 -147.417,-96.457 C 928.547,461.609 888.242,471.918 857.375,533.184 787.09,672.676 709.148,808.313 627.754,957.551 609.543,932.328 595.805,915.617 584.566,897.371 508.668,774.098 431.996,651.266 358.43,526.609 330.871,479.91 304.887,466.531 252.18,494.395 172.156,536.695 120.609,591.941 105.742,685.098 74.4805,881.004 37.0742,1075.93 0,1283.52 c 95.3672,0 183.246,1.75 270.887,-2 12.351,-0.53 29.176,-26.26 34.191,-43.2 13.024,-44 20.617,-89.6 34.488,-153.48 44.629,63.31 75.735,113.83 113.75,158.46 17.012,19.97 47.289,38.6 72.567,40.05 247.137,14.16 247.058,13.03 349.89,-211.82 14.34,-31.36 30.809,-61.74 61.989,-91.901 16.773,81.231 35.504,162.131 49.531,243.841 7.562,44.07 24.257,63.38 72.677,62.28 135.61,-3.09 271.36,-2.24 407,0.01 43.63,0.72 68.99,-12.41 83.46,-55.5 45.35,-135.05 95.75,-268.416 139.7,-403.889 14.79,-45.594 30.67,-69.433 85.07,-67.57 132.63,4.551 265.53,1.484 407.42,17.629 -20.9,17.609 -40.47,37.168 -62.92,52.508 -133.08,90.921 -268.56,178.432 -399.72,272.012 -84.21,60.09 -82.12,65.31 -72.3,182.22 112.25,0 225.77,1.14 339.21,-1.53 13.24,-0.32 26.06,-21.6 38.95,-33.29 42.62,-38.64 79.79,-87.12 128.79,-114.15 135.76,-74.9 266.72,-153.235 361.18,-296.02 45.24,117.277 85.95,225.86 128.94,333.53 54.12,135.55 21.93,112.33 160.47,113.18 88.3,0.55 192.87,22.29 260.31,-16.87 64.8,-37.62 91.25,-141.38 134.37,-216.19 30.35,-52.654 59.72,-105.889 90.68,-158.185 125.9,-212.7 13.13,-414.68 -234.31,-418.008 -95.23,-1.285 -190.48,-0.211 -289.85,-0.211 -2.78,46.144 -5.06,84.078 -8.38,139.215" /><path
         id="path16"
         style="fill:#2e3192;fill-opacity:1;fill-rule:nonzero;stroke:none"
         d="M 626.137,853.305 C 541.445,706.273 464.93,573.063 388.031,440.07 321.977,325.824 338.875,187.859 430.266,99.1914 517.887,14.1914 659.453,3.51953 766.77,73.8516 864.164,137.68 908.352,277.371 854.184,398.355 786.82,548.805 706.91,693.629 626.137,853.305 Z m 0.41,61.035 C 716.313,737.34 804.617,576.008 880.703,409.105 940.195,278.609 892.113,125.32 784.508,54.2617 664.453,-25.0195 511.863,-16.6797 416.484,74.3789 308.813,177.172 290.078,327.063 365.82,457.426 451.082,604.168 534.152,752.184 626.547,914.34" /><path
         id="path18"
         style="fill:#231f20;fill-opacity:1;fill-rule:nonzero;stroke:none"
         d="m 1189.97,211.59 c -26.12,8.988 -46.62,22.879 -61.51,41.699 V 147.98 c 0,-5.05 1.55,-7.582 4.64,-7.582 9.83,0 24.43,11.524 43.81,34.543 8.98,10.668 13.48,21.071 13.48,31.168 0,1.969 -0.15,3.789 -0.42,5.481 z m -66.14,86.351 4.21,3.789 c -0.28,-8.984 0.98,-13.339 3.79,-13.058 6.46,-9.551 15.02,-17.133 25.7,-22.742 5.33,-2.532 16.14,-6.469 32.44,-11.801 13.19,-4.207 22.6,-8.559 28.22,-13.047 8.7,-6.742 13.06,-15.742 13.06,-26.973 0,-21.621 -9.84,-45.07 -29.49,-70.339 -21.06,-26.68 -42.13,-40.02 -63.18,-40.02 -9,0 -17.77,5.059 -26.33,15.199 -8.57,10.129 -12.85,19.699 -12.85,28.711 v 150.281 h -27.8 l -29.07,29.071 h 203.46 l 29.91,-29.071 h -152.07" /><path
         id="path20"
         style="fill:#231f20;fill-opacity:1;fill-rule:nonzero;stroke:none"
         d="m 1312.54,297.941 v -97.66 c 0,-11.84 3.79,-17.761 11.37,-17.761 4.22,0 9.27,2.109 15.17,6.32 13.2,9.269 22.88,24.988 29.07,47.18 -16.86,5.062 -25.28,14.601 -25.28,28.652 0,7.848 2.8,14.797 8.42,20.848 5.62,6.035 12.5,9.05 20.64,9.05 13.2,0 24.44,-8.14 33.71,-24.429 1.95,-3.653 2.94,-12.36 2.94,-26.121 0,-16.282 -5.34,-35.942 -16.01,-58.969 8.15,-16.012 12.22,-28.09 12.22,-36.223 0,-17.137 -6.32,-30.476 -18.95,-40.019 -11.24,-8.43 -25.28,-12.6371 -42.13,-12.6371 -42.69,0 -72.6,23.4371 -89.72,70.3401 -5.34,14.597 -8.71,28.359 -10.11,41.277 l 18.53,-9.258 c 18.54,-44.652 42.41,-66.98 71.61,-66.98 8.71,0 18.11,1.969 28.23,5.898 12.63,5.063 18.95,11.102 18.95,18.121 0,4.211 -2.25,7.711 -6.74,10.52 -12.08,-12.918 -26.4,-19.371 -42.96,-19.371 -6.46,0 -15.03,2.812 -25.7,8.453 -7.02,3.656 -12.5,9.848 -16.43,18.578 -3.93,7.879 -5.89,16.059 -5.89,24.5 v 99.691 h -40.87 l -29.06,29.071 h 163.86 c 1.12,0 2.39,0.976 3.79,2.941 1.4,1.961 2.11,4.07 2.11,6.317 0,6.75 -8.01,10.117 -24.01,10.117 -6.18,0 -15.38,-0.282 -27.59,-0.848 -12.22,-0.566 -21.42,-0.84 -27.59,-0.84 -13.48,0 -23.32,0.703 -29.49,2.11 -10.68,2.527 -20.5,8.144 -29.49,16.843 -10.38,9.551 -15.58,19.661 -15.58,30.332 0,4.778 1.26,11.094 3.79,18.957 2.81,9.266 5.89,13.895 9.26,13.895 1.41,0 9.27,-3.934 23.59,-11.785 -9.26,-3.938 -14.18,-6.887 -14.74,-8.848 -0.28,-0.566 -0.42,-4.64 -0.42,-12.219 0,-5.058 10.25,-8.144 30.75,-9.265 0.56,-0.285 14.74,-0.422 42.55,-0.422 24.14,0 40.29,-2.109 48.44,-6.317 20.49,-10.957 31.59,-27.949 33.28,-50.968 h 30.32 l 29.49,-29.071 h -153.33" /><path
         id="path22"
         style="fill:#231f20;fill-opacity:1;fill-rule:nonzero;stroke:none"
         d="m 1585.92,274.781 c -2.53,42.68 -3.79,75.395 -3.79,98.141 l 21.9,-21.484 c -1.4,-3.086 -2.1,-5.469 -2.1,-7.161 0,-8.425 2.1,-13.621 6.32,-15.586 1.96,-0.839 7.72,-1.406 17.27,-1.679 h 15.58 l 29.49,-29.071 h -60.66 V 71.3203 l -32.01,34.1207 1.26,115.418 c 0.28,14.871 -5.2,30.039 -16.43,45.493 -11.79,16.57 -24.43,24.847 -37.91,24.847 -17.69,0 -30.89,-6.879 -39.59,-20.64 3.93,0.851 8.7,1.269 14.32,1.269 13.19,0 24.22,-3.519 33.06,-10.527 8.85,-7.031 13.27,-17.422 13.27,-31.172 0,-17.141 -14.46,-41.149 -43.38,-72.039 l -30.33,34.121 c 30.33,26.961 45.49,43.949 45.49,50.969 0,3.371 -2.39,5.05 -7.16,5.05 -1.97,0 -8.29,-2.949 -18.96,-8.832 -10.67,-5.898 -18.11,-8.847 -22.32,-8.847 -7.87,0 -14.61,4.058 -20.22,12.211 -5.05,7.297 -7.58,14.59 -7.58,21.91 0,9.269 2.95,18.949 8.84,29.058 12.36,20.5 31.18,30.754 56.45,30.754 18.25,0 34.75,-4.707 49.49,-14.113 14.75,-9.414 24.65,-21.281 29.7,-35.59" /><path
         id="path24"
         style="fill:#231f20;fill-opacity:1;fill-rule:nonzero;stroke:none"
         d="m 1598.13,79.3203 c -1.96,3.3711 -6.18,11.3711 -12.64,24.0117 -4.77,8.988 -10.81,15.168 -18.11,18.539 -8.7,4.211 -19.8,6.309 -33.28,6.309 -5.9,0 -14.81,-0.282 -26.75,-0.84 -11.93,-0.559 -20.85,-0.84 -26.75,-0.84 -19.94,0 -36.78,6.031 -50.55,18.109 -14.59,12.922 -21.9,29.352 -21.9,49.289 0,18.25 0.7,29.911 2.1,34.961 0.57,2.532 2.11,3.789 4.64,3.789 7.86,-6.738 13.48,-11.789 16.85,-15.168 -1.96,-3.929 -2.95,-7.3 -2.95,-10.109 0,-14.883 8.29,-26.391 24.85,-34.543 3.94,-1.957 12.64,-3.226 26.12,-3.789 30.33,-1.687 50.13,-3.508 59.4,-5.469 22.18,-4.5 38.89,-14.121 50.12,-28.851 11.24,-14.75 18.05,-25.91 20.43,-33.5 2.39,-7.5784 3.58,-20.3479 3.58,-38.3284 -6.45,4.7813 -11.51,10.2578 -15.16,16.4297" /><path
         id="path26"
         style="fill:#231f20;fill-opacity:1;fill-rule:nonzero;stroke:none"
         d="m 1670.58,305.527 c -1.13,18.809 -1.68,40.157 -1.68,64.024 l 16.19,-13.477 c 1.93,-13.203 5.54,-22.89 10.8,-29.062 h 30.72 l 29.06,-29.492 h -58.55 V 69.6289 l -28.22,31.1721 v 159.648 c 0,10.391 -3.46,19.172 -10.38,26.332 -6.93,7.157 -15.76,10.739 -26.49,10.739 -1.69,0 -3.53,0 -5.51,0 l -29.65,28.671 c 12.35,1.379 21.34,2.082 26.95,2.082 22.18,0 37.77,-7.578 46.76,-22.746" /><path
         id="path28"
         style="fill:#231f20;fill-opacity:1;fill-rule:nonzero;stroke:none"
         d="m 1866.04,296.68 h -82.14 c 28.22,-22.192 44.45,-41.711 48.69,-58.551 4.51,-17.699 6.49,-30.899 5.93,-39.598 7.61,-7.859 16.79,-18.39 27.52,-31.601 z m -39.6,-131.008 c -1.68,-2.524 -5.62,-6.043 -11.79,-10.524 -7.59,-5.628 -16.29,-8.429 -26.12,-8.429 -16.01,0 -28.23,6.742 -36.64,20.211 0,2.25 -0.5,5.34 -1.48,9.269 -0.99,3.942 -1.47,7.02 -1.47,9.27 0,13.492 4.9,23.871 14.73,31.172 8.43,6.461 19.24,9.687 32.44,9.687 4.77,0 8.42,0 10.95,0 -1.96,13.922 -8,24.363 -18.11,31.332 -5.89,3.891 -15.73,7.52 -29.49,10.871 -11.79,2.778 -19.1,5.981 -21.9,9.61 -4.49,3.339 -7.86,6.961 -10.11,10.859 -3.37,5.563 -5.61,9.039 -6.74,10.434 -6.18,6.125 -15.45,15.324 -27.8,27.578 h 232.94 l 29.91,-30.332 h -61.5 V 74.6914 l -16.85,18.6172 c -5.62,25.3904 -13.34,42.4534 -23.17,51.2034 -12.07,10.718 -21.34,17.777 -27.8,21.16" /><path
         id="path30"
         style="fill:#231f20;fill-opacity:1;fill-rule:nonzero;stroke:none"
         d="m 2183.07,107.961 c -15.39,0 -29.37,4.07 -41.96,12.219 -8.94,5.609 -19.71,15.16 -32.3,28.648 -23.21,24.992 -45.73,76.512 -67.55,154.59 l 24.33,-13.059 c 11.17,-29.488 20.26,-51.109 27.25,-64.871 12.58,-25.269 26.41,-43.808 41.51,-55.609 17.33,-13.758 33.27,-20.629 47.81,-20.629 12.01,0 22.15,2.73 30.39,8.211 8.25,5.48 12.37,13.41 12.37,23.801 0,4.777 -2.77,9.687 -8.3,14.75 -5.82,-4.793 -12.18,-7.172 -19.1,-7.172 -8.58,0 -15.7,2.738 -21.38,8.211 -5.67,5.48 -8.5,12.57 -8.5,21.281 0,8.137 2.73,15.367 8.21,21.688 5.48,6.32 12.42,9.48 20.85,9.48 6.17,0 11.93,-1.27 17.28,-3.789 7.29,4.769 10.94,11.508 10.94,20.219 0,14.879 -7.16,22.32 -21.48,22.32 -10.68,0 -18.61,-0.84 -23.8,-2.531 -5.2,-1.68 -12.29,-5.469 -21.27,-11.36 -3.1,-2.257 -5.76,-4.929 -8.01,-8.007 7.86,-6.473 11.8,-15.872 11.8,-28.223 0,-13.758 -8.71,-20.649 -26.11,-20.649 -22.47,0 -33.71,11.801 -33.71,35.391 0,21.07 8.43,37.91 25.28,50.547 15.16,11.23 33.42,16.848 54.75,16.848 18.26,0 33.42,-4.356 45.5,-13.059 13.48,-9.551 20.22,-22.605 20.22,-39.168 0,-7.867 -1.26,-17 -3.79,-27.379 -3.09,-12.078 -6.74,-21.219 -10.95,-27.39 11.23,-15.45 16.85,-30.18 16.85,-44.231 0,-19.098 -6.71,-34.258 -20.14,-45.488 -12.31,-10.391 -27.97,-15.59 -46.99,-15.59" /><path
         id="path32"
         style="fill:#231f20;fill-opacity:1;fill-rule:nonzero;stroke:none"
         d="m 2396.36,297.941 h -59.4 c 9.27,-7.613 23.6,-22.679 42.97,-45.203 -10.95,-10.418 -27.11,-26.758 -48.44,-49.008 26.12,-9.859 47.74,-26.621 64.87,-50.269 z M 2338.23,94.8984 c -7.58,0 -14.11,2.6719 -19.59,8.0116 -5.48,5.328 -8.21,11.801 -8.21,19.379 0,7.02 2.45,13.051 7.37,18.109 4.91,5.051 10.88,7.582 17.9,7.582 7.3,0 13.75,-2.601 19.38,-7.789 5.61,-5.203 8.43,-11.453 8.43,-18.742 0,-7.027 -2.46,-13.211 -7.38,-18.539 -4.92,-5.3397 -10.88,-8.0116 -17.9,-8.0116 z m 87.62,203.0426 V 75.9492 c -7.59,5.9024 -13.07,11.2422 -16.44,16 -0.83,1.6914 -4.07,8.2888 -9.68,19.8128 -5.05,10.379 -13.13,20.918 -24.22,31.59 -11.1,10.66 -21.97,18.117 -32.65,22.32 -7.58,2.808 -19.94,4.629 -37.07,5.476 l -31.59,40.442 c 16.57,16.57 37.07,34.539 61.5,53.922 -6.46,5.609 -17.42,9.617 -32.86,12 -15.45,2.379 -27.8,7.508 -37.07,15.379 -3.08,2.804 -7.29,7.011 -12.63,12.636 -2.81,3.086 -9.69,10.246 -20.64,21.485 h 223.67 l 30.75,-29.071 h -61.07" /><path
         id="path34"
         style="fill:#231f20;fill-opacity:1;fill-rule:nonzero;stroke:none"
         d="m 2484.83,305.527 c -1.13,18.809 -1.69,40.157 -1.69,64.024 l 16.19,-13.477 c 1.93,-13.203 5.53,-22.89 10.8,-29.062 h 30.72 l 29.06,-29.492 h -58.55 V 69.6289 l -28.22,31.1721 v 159.648 c 0,10.391 -3.46,19.172 -10.39,26.332 -6.92,7.157 -15.74,10.739 -26.48,10.739 -1.69,0 -3.52,0 -5.51,0 l -29.66,28.671 c 12.37,1.379 21.35,2.082 26.97,2.082 22.18,0 37.76,-7.578 46.76,-22.746" /><path
         id="path36"
         style="fill:#231f20;fill-opacity:1;fill-rule:nonzero;stroke:none"
         d="m 2638.16,255.398 c 12.07,8.422 19.64,12.641 22.74,12.641 9.82,0 22.04,-9.418 36.65,-28.219 v 58.121 h -79.62 c 14.6,-13.332 21.34,-27.511 20.23,-42.543 z m 88.45,42.543 V 74.6914 l -29.06,33.5976 v 98.289 c 0,3.652 -3.17,7.922 -9.51,12.832 -6.34,4.891 -11.61,7.34 -15.84,7.34 -7.6,0 -18.16,-10.25 -31.68,-30.738 -8.73,-12.922 -13.52,-19.953 -14.36,-21.071 -7.32,-9.55 -13.52,-14.742 -18.59,-15.582 -1.97,-0.289 -4.79,-0.418 -8.44,-0.418 -9.58,0 -15.92,1.387 -19.01,4.207 -5.92,1.961 -12.68,8.84 -20.28,20.641 -1.13,1.68 -5.91,10.383 -14.36,26.109 l 22.32,21.493 c 0.84,-7.86 3.09,-15.309 6.74,-22.332 3.65,-7.02 7.02,-10.528 10.12,-10.528 4.48,0 15.86,13.059 34.11,39.18 -1.41,13.187 -4.36,22.879 -8.84,29.059 -5.34,7.589 -13.77,11.652 -25.27,12.218 -13.49,0.551 -21.77,1.262 -24.85,2.102 -6.75,2.25 -13.21,7.871 -19.39,16.851 -3.09,1.407 -13.9,11.094 -32.43,29.071 h 246.42 l 29.49,-29.071 h -57.29" /><path
         id="path38"
         style="fill:#231f20;fill-opacity:1;fill-rule:nonzero;stroke:none"
         d="m 2784.32,305.527 c -1.13,18.809 -1.69,40.157 -1.69,64.024 l 16.19,-13.477 c 1.93,-13.203 5.54,-22.89 10.8,-29.062 h 30.72 l 29.07,-29.492 h -58.56 V 69.6289 l -28.22,31.1721 v 159.648 c 0,10.391 -3.46,19.172 -10.38,26.332 -6.93,7.157 -15.75,10.739 -26.49,10.739 -1.69,0 -3.52,0 -5.51,0 l -29.65,28.671 c 12.36,1.379 21.34,2.082 26.96,2.082 22.18,0 37.76,-7.578 46.76,-22.746" /></g></g></svg>
