<?xml version="1.0" encoding="UTF-8"?>
<!DOCTYPE svg PUBLIC "-//W3C//DTD SVG 1.1//EN" "http://www.w3.org/Graphics/SVG/1.1/DTD/svg11.dtd">
<svg xmlns="http://www.w3.org/2000/svg" version="1.1" width="120px" height="120px"
     style="shape-rendering:geometricPrecision; text-rendering:geometricPrecision; image-rendering:optimizeQuality; fill-rule:evenodd; clip-rule:evenodd">
<g><path style="opacity:0.998" fill="#fefefe" d="M 4.5,-0.5 C 40.8333,-0.5 77.1667,-0.5 113.5,-0.5C 115.475,1.13696 117.475,2.80363 119.5,4.5C 119.5,40.8333 119.5,77.1667 119.5,113.5C 117.863,115.475 116.196,117.475 114.5,119.5C 78.1667,119.5 41.8333,119.5 5.5,119.5C 3.52483,117.863 1.52483,116.196 -0.5,114.5C -0.5,78.1667 -0.5,41.8333 -0.5,5.5C 1.13696,3.52483 2.80363,1.52483 4.5,-0.5 Z"/></g>
<g><path style="opacity:1" fill="#26569f" d="M 5.5,51.5 C 11.1764,51.3339 16.8431,51.5006 22.5,52C 26.0498,55.7315 26.3831,59.7315 23.5,64C 17.5092,64.4995 11.5092,64.6662 5.5,64.5C 5.5,60.1667 5.5,55.8333 5.5,51.5 Z"/></g>
<g><path style="opacity:1" fill="#d93630" d="M 66.5,46.5 C 67.2389,46.369 67.9056,46.5357 68.5,47C 66.2861,49.9254 63.9528,52.7587 61.5,55.5C 63.9585,56.919 66.6251,57.919 69.5,58.5C 65.1667,61.6667 60.8333,64.8333 56.5,68C 55.8333,68.6667 55.1667,68.6667 54.5,68C 56.8745,65.961 58.8745,63.6277 60.5,61C 57.7558,60.1965 55.0891,59.1965 52.5,58C 57.421,54.3869 62.0877,50.5536 66.5,46.5 Z"/></g>
<g><path style="opacity:1" fill="#305ea3" d="M 75.5,51.5 C 81.1764,51.3339 86.8431,51.5006 92.5,52C 92.9574,52.414 93.2907,52.914 93.5,53.5C 87.8624,54.3299 82.1958,54.8299 76.5,55C 75.1667,57 75.1667,59 76.5,61C 81.8229,61.4994 87.1563,61.666 92.5,61.5C 92.5,62.5 92.5,63.5 92.5,64.5C 86.4908,64.6662 80.4908,64.4995 74.5,64C 71.7095,59.5784 72.0428,55.4118 75.5,51.5 Z"/></g>
<g><path style="opacity:1" fill="#f6f8fa" d="M 7.5,54.5 C 12.5111,54.3341 17.5111,54.5007 22.5,55C 23.8333,57 23.8333,59 22.5,61C 17.5111,61.4993 12.5111,61.6659 7.5,61.5C 7.5,59.1667 7.5,56.8333 7.5,54.5 Z"/></g>
<g><path style="opacity:1" fill="#b3c5dc" d="M 32.5,55.5 C 37.5,56.1667 42.5,56.8333 47.5,57.5C 42.1254,57.8282 36.7921,57.4948 31.5,56.5C 31.6236,55.8933 31.9569,55.56 32.5,55.5 Z"/></g>
<g><path style="opacity:1" fill="#305ea3" d="M 98.5,51.5 C 103.179,51.3342 107.845,51.5008 112.5,52C 117.423,55.6146 117.756,59.6146 113.5,64C 108.167,64.6667 102.833,64.6667 97.5,64C 94.5984,59.5015 94.9317,55.3348 98.5,51.5 Z"/></g>
<g><path style="opacity:1" fill="#ecf0f7" d="M 99.5,54.5 C 103.846,54.3343 108.179,54.501 112.5,55C 113.576,56.7261 113.743,58.5594 113,60.5C 108.252,61.6349 103.419,61.8015 98.5,61C 97.1443,58.5859 97.4776,56.4193 99.5,54.5 Z"/></g>
<g><path style="opacity:1" fill="#16509b" d="M 32.5,55.5 C 31.9569,55.56 31.6236,55.8933 31.5,56.5C 36.7921,57.4948 42.1254,57.8282 47.5,57.5C 42.5627,59.1342 37.2294,60.1342 31.5,60.5C 37.1278,61.4954 42.7945,61.8288 48.5,61.5C 48.5,62.5 48.5,63.5 48.5,64.5C 42.8236,64.6661 37.1569,64.4994 31.5,64C 27.8947,60.6847 27.5614,57.018 30.5,53C 36.5276,52.1697 42.5276,52.3364 48.5,53.5C 43.0147,54.1668 37.6813,54.8335 32.5,55.5 Z"/></g>
<g><path style="opacity:1" fill="#acacac" d="M 60.5,68.5 C 67.0787,68.3513 73.7454,68.6847 80.5,69.5C 80,70.5 79.5,71.5 79,72.5C 78.3333,71.1667 77.6667,71.1667 77,72.5C 76.0514,68.6221 74.8847,68.6221 73.5,72.5C 72.5745,71.3595 71.7412,71.3595 71,72.5C 70.6667,71.8333 70.3333,71.1667 70,70.5C 67.6667,73.1667 65.3333,73.1667 63,70.5C 59.6604,73.3623 58.827,72.6957 60.5,68.5 Z"/></g>
<g><path style="opacity:1" fill="#a1a1a1" d="M 82.5,68.5 C 83.8734,68.3433 85.2068,68.51 86.5,69C 85.3595,69.7412 85.3595,70.5745 86.5,71.5C 86,71.8333 85.5,72.1667 85,72.5C 83.9895,72.1081 83.4895,71.4415 83.5,70.5C 81.356,72.5615 81.0227,71.8948 82.5,68.5 Z"/></g>
<g><path style="opacity:1" fill="#acacac" d="M 88.5,68.5 C 90.6258,68.8499 92.9592,68.8499 95.5,68.5C 95.5,69.8333 95.5,71.1667 95.5,72.5C 93.549,72.7733 92.049,72.1066 91,70.5C 90.6667,71.1667 90.3333,71.8333 90,72.5C 89.2086,71.255 88.7086,69.9217 88.5,68.5 Z"/></g>
<g><path style="opacity:1" fill="#a7a7a7" d="M 96.5,68.5 C 97.2679,69.2625 97.7679,70.2625 98,71.5C 98.4828,70.552 98.6495,69.552 98.5,68.5C 101.518,68.3354 104.518,68.502 107.5,69C 105.009,69.6259 105.009,70.4593 107.5,71.5C 103.854,71.2638 100.187,71.5971 96.5,72.5C 96.5,71.1667 96.5,69.8333 96.5,68.5 Z"/></g>
</svg>
