<svg id="svg" version="1.1" xmlns="http://www.w3.org/2000/svg" width="400" height="400" viewBox="0, 0, 400,400"><g id="svgg"><path id="path0" d="M62.496 39.595 C 62.223 40.032,62.000 41.281,62.000 42.371 C 62.000 43.461,61.820 44.464,61.600 44.600 C 61.380 44.736,61.200 45.362,61.200 45.990 C 61.200 46.619,61.065 47.193,60.900 47.267 C 60.735 47.340,60.080 48.390,59.445 49.600 C 58.810 50.810,57.987 52.070,57.617 52.400 C 57.247 52.730,56.828 53.315,56.685 53.700 C 56.542 54.085,56.240 54.400,56.013 54.400 C 55.786 54.400,54.859 55.120,53.952 56.000 C 53.045 56.880,52.055 57.600,51.752 57.600 C 51.448 57.600,51.200 57.758,51.200 57.950 C 51.200 58.240,50.301 58.533,48.498 58.830 C 48.334 58.857,47.840 59.071,47.401 59.307 C 46.962 59.542,46.242 59.767,45.801 59.807 C 45.360 59.847,44.730 59.989,44.400 60.123 C 44.070 60.256,43.260 60.418,42.600 60.483 L 41.400 60.600 41.287 65.300 C 41.183 69.631,41.232 70.000,41.908 70.000 C 42.812 70.000,44.793 70.891,44.797 71.300 C 44.799 71.465,45.025 71.603,45.300 71.607 C 46.389 71.623,52.000 76.790,52.000 77.777 C 52.000 78.120,52.180 78.400,52.400 78.400 C 52.620 78.400,52.800 78.760,52.800 79.200 C 52.800 79.640,52.980 80.000,53.200 80.000 C 53.420 80.000,53.600 80.360,53.600 80.800 C 53.600 81.240,53.780 81.600,54.000 81.600 C 54.220 81.600,54.400 82.219,54.400 82.976 C 54.400 83.733,54.580 84.464,54.800 84.600 C 55.020 84.736,55.200 86.277,55.200 88.024 C 55.200 89.875,55.033 91.200,54.800 91.200 C 54.580 91.200,54.400 91.729,54.400 92.376 C 54.400 93.023,54.220 93.664,54.000 93.800 C 53.780 93.936,53.600 94.397,53.600 94.824 C 53.600 95.251,53.420 95.600,53.200 95.600 C 52.980 95.600,52.800 95.920,52.800 96.312 C 52.800 96.703,52.440 97.283,52.000 97.600 C 51.560 97.917,51.200 98.410,51.200 98.696 C 51.200 99.315,46.200 104.400,45.591 104.400 C 45.357 104.400,44.780 104.760,44.308 105.200 C 43.836 105.640,43.202 106.000,42.901 106.000 C 42.599 106.000,42.451 106.160,42.572 106.355 C 42.692 106.550,42.433 106.803,41.996 106.917 C 40.822 107.224,40.748 120.000,41.920 120.000 C 42.814 120.000,44.793 120.894,44.797 121.300 C 44.799 121.465,45.025 121.603,45.300 121.607 C 46.389 121.623,52.000 126.790,52.000 127.777 C 52.000 128.120,52.180 128.400,52.400 128.400 C 52.620 128.400,52.800 128.760,52.800 129.200 C 52.800 129.640,52.980 130.000,53.200 130.000 C 53.420 130.000,53.600 130.360,53.600 130.800 C 53.600 131.240,53.780 131.600,54.000 131.600 C 54.220 131.600,54.400 132.219,54.400 132.976 C 54.400 133.733,54.580 134.464,54.800 134.600 C 55.020 134.736,55.200 136.277,55.200 138.024 C 55.200 139.875,55.033 141.200,54.800 141.200 C 54.580 141.200,54.400 141.830,54.400 142.600 C 54.400 143.370,54.220 144.000,54.000 144.000 C 53.780 144.000,53.600 144.461,53.600 145.024 C 53.600 145.604,53.427 145.940,53.200 145.800 C 52.973 145.660,52.800 145.996,52.800 146.576 C 52.800 147.139,52.620 147.600,52.400 147.600 C 52.180 147.600,52.000 147.804,52.000 148.053 C 52.000 148.714,46.074 154.400,45.385 154.400 C 45.063 154.400,44.800 154.580,44.800 154.800 C 44.800 155.020,44.440 155.200,44.000 155.200 C 43.560 155.200,43.200 155.380,43.200 155.600 C 43.200 155.820,42.750 156.000,42.200 156.000 L 41.200 156.000 41.200 160.600 C 41.200 164.933,41.154 165.200,40.400 165.200 C 39.960 165.200,39.600 165.380,39.600 165.600 C 39.600 165.820,39.321 166.000,38.981 166.000 C 38.640 166.000,37.616 166.360,36.706 166.800 C 35.795 167.240,34.814 167.600,34.525 167.600 C 34.236 167.600,34.000 167.780,34.000 168.000 C 34.000 168.220,33.728 168.400,33.395 168.400 C 33.062 168.400,32.477 168.565,32.095 168.766 C 31.713 168.968,30.710 169.433,29.868 169.800 C 29.025 170.168,27.958 170.903,27.496 171.434 C 27.034 171.965,26.418 172.400,26.128 172.400 C 25.838 172.400,25.600 172.580,25.600 172.800 C 25.600 173.020,25.240 173.200,24.800 173.200 C 24.360 173.200,24.000 173.380,24.000 173.600 C 24.000 173.820,23.460 174.000,22.800 174.000 C 22.140 174.000,21.600 174.180,21.600 174.400 C 21.600 174.620,21.251 174.800,20.824 174.800 C 20.397 174.800,19.934 174.983,19.796 175.207 C 19.658 175.430,19.390 175.517,19.200 175.400 C 19.010 175.283,18.742 175.370,18.604 175.593 C 18.466 175.817,18.003 176.000,17.576 176.000 C 17.149 176.000,16.800 176.180,16.800 176.400 C 16.800 176.620,16.361 176.800,15.824 176.800 C 15.287 176.800,14.736 176.980,14.600 177.200 C 14.464 177.420,14.003 177.600,13.576 177.600 C 13.149 177.600,12.800 177.780,12.800 178.000 C 12.800 178.220,12.440 178.400,12.000 178.400 C 11.560 178.400,11.182 178.625,11.159 178.900 C 11.049 180.269,11.320 182.226,11.649 182.429 C 11.852 182.556,12.044 183.321,12.074 184.129 C 12.105 184.938,12.280 185.600,12.465 185.600 C 12.943 185.600,12.882 191.502,12.400 191.800 C 12.180 191.936,12.000 192.476,12.000 193.000 C 12.000 193.524,11.820 194.064,11.600 194.200 C 11.380 194.336,11.200 194.887,11.200 195.424 C 11.200 195.961,11.020 196.400,10.800 196.400 C 10.580 196.400,10.400 196.760,10.400 197.200 C 10.400 197.640,10.220 198.000,10.000 198.000 C 9.780 198.000,9.600 198.278,9.600 198.617 C 9.600 199.334,9.369 199.631,6.322 202.817 C 5.069 204.128,3.764 205.200,3.422 205.200 C 3.080 205.200,2.800 205.346,2.800 205.525 C 2.800 205.704,2.149 206.106,1.353 206.418 L -0.094 206.986 0.123 209.383 C 0.243 210.702,0.534 211.845,0.770 211.923 C 1.007 212.002,1.200 212.412,1.200 212.833 C 1.200 213.255,1.380 213.600,1.600 213.600 C 1.820 213.600,2.000 213.883,2.000 214.229 C 2.000 215.434,3.078 216.000,5.371 216.000 C 6.597 216.000,7.600 216.180,7.600 216.400 C 7.600 216.620,8.219 216.800,8.976 216.800 C 9.733 216.800,10.464 216.980,10.600 217.200 C 10.736 217.420,11.287 217.600,11.824 217.600 C 12.361 217.600,12.800 217.780,12.800 218.000 C 12.800 218.220,13.025 218.400,13.300 218.400 C 13.575 218.401,14.323 218.851,14.962 219.400 C 15.601 219.950,16.257 220.400,16.420 220.400 C 16.807 220.400,19.200 222.638,19.200 223.000 C 19.200 223.153,19.740 223.783,20.400 224.400 C 21.060 225.017,21.600 225.809,21.600 226.160 C 21.600 226.512,21.780 226.800,22.000 226.800 C 22.220 226.800,22.400 227.160,22.400 227.600 C 22.400 228.040,22.580 228.400,22.800 228.400 C 23.020 228.400,23.200 229.131,23.200 230.024 C 23.200 231.004,23.358 231.549,23.600 231.400 C 23.858 231.241,24.000 232.796,24.000 235.776 C 24.000 238.592,23.844 240.400,23.600 240.400 C 23.380 240.400,23.200 240.940,23.200 241.600 C 23.200 242.260,23.065 242.801,22.900 242.803 C 22.535 242.807,21.600 244.749,21.600 245.503 C 21.600 245.802,21.420 245.936,21.200 245.800 C 20.980 245.664,20.800 245.922,20.800 246.373 C 20.800 246.824,20.440 247.418,20.000 247.693 C 19.560 247.968,19.200 248.469,19.200 248.808 C 19.200 249.146,18.840 249.683,18.400 250.000 C 17.576 250.594,17.261 252.800,18.000 252.800 C 18.220 252.800,18.400 253.160,18.400 253.600 C 18.400 254.040,18.580 254.400,18.800 254.400 C 19.020 254.400,19.200 254.760,19.200 255.200 C 19.200 255.640,19.380 256.000,19.600 256.000 C 19.820 256.000,20.000 256.349,20.000 256.776 C 20.000 257.203,20.180 257.664,20.400 257.800 C 20.620 257.936,20.800 258.397,20.800 258.824 C 20.800 259.251,20.980 259.600,21.200 259.600 C 21.420 259.600,21.600 259.960,21.600 260.400 C 21.600 261.137,21.867 261.200,25.000 261.200 C 27.000 261.200,28.400 261.365,28.400 261.600 C 28.400 261.820,28.940 262.000,29.600 262.000 C 30.260 262.000,30.800 262.180,30.800 262.400 C 30.800 262.620,31.160 262.800,31.600 262.800 C 32.040 262.800,32.400 262.980,32.400 263.200 C 32.400 263.420,32.694 263.600,33.053 263.600 C 33.412 263.600,34.009 263.949,34.378 264.375 C 34.748 264.801,35.308 265.206,35.622 265.275 C 36.346 265.434,38.207 267.350,39.093 268.849 C 39.467 269.482,39.914 270.000,40.086 270.000 C 40.259 270.000,40.400 270.360,40.400 270.800 C 40.400 271.240,40.580 271.600,40.800 271.600 C 41.020 271.600,41.200 271.945,41.200 272.367 C 41.200 272.788,41.374 273.193,41.588 273.267 C 41.801 273.340,42.085 274.098,42.220 274.951 C 42.355 275.804,42.569 276.884,42.696 277.351 C 43.131 278.957,43.271 283.600,42.884 283.600 C 42.675 283.600,42.382 284.675,42.233 285.988 C 42.085 287.301,41.791 288.482,41.582 288.611 C 41.372 288.741,41.200 289.197,41.200 289.624 C 41.200 290.051,41.020 290.400,40.800 290.400 C 40.580 290.400,40.400 290.678,40.400 291.018 C 40.400 291.358,39.995 292.056,39.500 292.568 C 37.509 294.629,37.200 295.225,37.200 297.005 C 37.200 297.992,37.380 298.800,37.600 298.800 C 37.820 298.800,38.000 299.160,38.000 299.600 C 38.000 300.040,38.180 300.400,38.400 300.400 C 38.620 300.400,38.800 300.760,38.800 301.200 C 38.800 301.640,38.980 302.000,39.200 302.000 C 39.420 302.000,39.600 302.360,39.600 302.800 C 39.600 303.240,39.780 303.600,40.000 303.600 C 40.220 303.600,40.400 303.938,40.400 304.351 C 40.400 305.414,41.131 305.881,43.200 306.139 C 46.877 306.597,48.232 306.877,49.460 307.431 C 50.154 307.744,51.009 308.000,51.360 308.000 C 51.712 308.000,52.000 308.180,52.000 308.400 C 52.000 308.620,52.278 308.800,52.618 308.800 C 52.958 308.800,53.651 309.205,54.157 309.700 C 54.663 310.195,55.811 311.269,56.708 312.088 C 57.605 312.906,58.454 313.941,58.596 314.388 C 58.738 314.834,59.022 315.200,59.227 315.200 C 59.432 315.200,59.600 315.483,59.600 315.829 C 59.600 316.174,59.872 316.729,60.204 317.061 C 60.536 317.393,60.705 317.830,60.580 318.032 C 60.455 318.235,60.523 318.400,60.731 318.400 C 61.633 318.400,62.464 329.296,61.626 330.134 C 61.392 330.368,61.200 330.916,61.200 331.352 C 61.200 332.421,60.317 334.800,59.920 334.800 C 59.744 334.800,59.600 335.160,59.600 335.600 C 59.600 336.040,59.423 336.400,59.208 336.400 C 58.992 336.400,58.692 336.895,58.540 337.500 C 58.389 338.105,57.756 339.077,57.133 339.660 C 56.039 340.684,55.580 342.400,56.400 342.400 C 56.620 342.400,56.800 342.760,56.800 343.200 C 56.800 343.640,56.980 344.000,57.200 344.000 C 57.420 344.000,57.600 344.362,57.600 344.805 C 57.600 345.248,57.768 345.923,57.974 346.305 C 58.179 346.687,58.583 347.585,58.871 348.300 C 59.372 349.543,61.200 350.249,61.200 349.200 C 61.200 348.980,61.740 348.800,62.400 348.800 C 63.060 348.800,63.600 348.620,63.600 348.400 C 63.600 348.178,64.667 348.000,66.000 348.000 C 67.388 348.000,68.400 347.825,68.400 347.586 C 68.400 347.300,68.640 347.300,69.174 347.586 C 69.599 347.814,70.859 348.000,71.974 348.000 C 73.088 348.000,74.000 348.180,74.000 348.400 C 74.000 348.620,74.324 348.800,74.720 348.800 C 75.614 348.800,77.593 349.694,77.597 350.100 C 77.599 350.265,77.960 350.400,78.400 350.400 C 78.840 350.400,79.200 350.568,79.200 350.773 C 79.200 350.978,79.557 351.259,79.993 351.398 C 80.771 351.645,84.000 354.518,84.000 354.964 C 84.000 355.168,84.693 356.084,85.800 357.345 C 86.235 357.840,86.995 359.386,87.351 360.500 C 87.589 361.244,89.600 361.512,89.600 360.800 C 89.600 360.580,89.853 360.400,90.162 360.400 C 90.471 360.400,91.506 360.017,92.462 359.550 C 95.223 358.199,95.273 358.179,97.897 357.370 C 99.270 356.947,100.395 356.485,100.397 356.344 C 100.398 356.203,101.210 355.849,102.200 355.557 C 103.190 355.265,104.000 354.885,104.000 354.713 C 104.000 354.541,104.272 354.400,104.605 354.400 C 104.938 354.400,105.523 354.243,105.905 354.050 C 108.880 352.552,110.153 352.000,110.638 352.000 C 110.947 352.000,111.200 351.820,111.200 351.600 C 111.200 351.380,111.560 351.200,112.000 351.200 C 112.440 351.200,112.800 351.009,112.800 350.776 C 112.800 350.543,112.948 350.444,113.129 350.556 C 113.309 350.668,113.960 350.498,114.574 350.180 C 115.189 349.861,115.941 349.600,116.246 349.600 C 116.551 349.600,116.800 349.420,116.800 349.200 C 116.800 348.980,117.250 348.800,117.800 348.800 C 118.350 348.800,118.800 348.620,118.800 348.400 C 118.800 348.180,119.250 348.000,119.800 348.000 C 120.350 348.000,120.801 347.865,120.803 347.700 C 120.807 347.294,122.786 346.400,123.680 346.400 C 124.076 346.400,124.400 346.220,124.400 346.000 C 124.400 345.780,124.760 345.600,125.200 345.600 C 125.640 345.600,126.000 345.420,126.000 345.200 C 126.000 344.980,126.360 344.800,126.800 344.800 C 127.240 344.800,127.600 344.620,127.600 344.400 C 127.600 344.180,128.039 344.000,128.576 344.000 C 129.113 344.000,129.664 343.820,129.800 343.600 C 129.936 343.380,130.397 343.200,130.824 343.200 C 131.251 343.200,131.600 343.020,131.600 342.800 C 131.600 342.580,131.960 342.400,132.400 342.400 C 132.840 342.400,133.200 342.220,133.200 342.000 C 133.200 341.780,133.572 341.600,134.026 341.600 C 134.480 341.600,135.840 341.148,137.049 340.595 C 138.258 340.042,139.957 339.368,140.824 339.097 C 141.691 338.827,142.400 338.469,142.400 338.303 C 142.400 338.136,142.760 338.000,143.200 338.000 C 143.640 338.000,144.000 337.853,144.000 337.672 C 144.000 337.492,144.900 337.100,146.000 336.800 C 147.100 336.500,148.000 336.108,148.000 335.928 C 148.000 335.747,148.360 335.600,148.800 335.600 C 149.240 335.600,149.600 335.420,149.600 335.200 C 149.600 334.980,150.039 334.800,150.576 334.800 C 151.113 334.800,151.664 334.620,151.800 334.400 C 151.936 334.180,152.397 334.000,152.824 334.000 C 153.251 334.000,153.601 333.865,153.603 333.700 C 153.607 333.294,155.586 332.400,156.480 332.400 C 156.876 332.400,157.200 332.220,157.200 332.000 C 157.200 331.780,157.560 331.600,158.000 331.600 C 158.440 331.600,158.800 331.420,158.800 331.200 C 158.800 330.980,159.160 330.800,159.600 330.800 C 160.040 330.800,160.400 330.620,160.400 330.400 C 160.400 330.180,160.760 330.000,161.200 330.000 C 161.640 330.000,162.000 329.820,162.000 329.600 C 162.000 329.380,162.540 329.200,163.200 329.200 C 163.860 329.200,164.400 329.020,164.400 328.800 C 164.400 328.580,164.760 328.400,165.200 328.400 C 165.640 328.400,166.000 328.220,166.000 328.000 C 166.000 327.780,166.279 327.600,166.619 327.600 C 166.960 327.600,167.984 327.240,168.894 326.800 C 169.805 326.360,170.786 326.000,171.075 326.000 C 171.364 326.000,171.600 325.865,171.600 325.700 C 171.600 325.535,172.770 325.047,174.200 324.615 C 175.630 324.183,176.800 323.721,176.800 323.587 C 176.800 323.454,177.700 323.100,178.800 322.800 C 179.900 322.500,180.800 322.108,180.800 321.928 C 180.800 321.747,181.160 321.600,181.600 321.600 C 182.040 321.600,182.400 321.453,182.400 321.272 C 182.400 321.092,183.300 320.700,184.400 320.400 C 185.500 320.100,186.400 319.708,186.400 319.528 C 186.400 319.347,186.760 319.200,187.200 319.200 C 187.640 319.200,188.000 319.020,188.000 318.800 C 188.000 318.580,188.450 318.400,189.000 318.400 C 189.550 318.400,190.000 318.220,190.000 318.000 C 190.000 317.780,190.360 317.600,190.800 317.600 C 191.240 317.600,191.600 317.420,191.600 317.200 C 191.600 316.980,191.945 316.800,192.367 316.800 C 192.788 316.800,193.193 316.622,193.267 316.403 C 193.340 316.185,193.895 315.966,194.500 315.916 C 195.105 315.866,195.600 315.685,195.600 315.513 C 195.600 315.341,195.960 315.200,196.400 315.200 C 196.840 315.200,197.200 315.020,197.200 314.800 C 197.200 314.580,197.560 314.400,198.000 314.400 C 198.440 314.400,198.800 314.220,198.800 314.000 C 198.800 313.780,199.250 313.600,199.800 313.600 C 200.350 313.600,200.800 313.420,200.800 313.200 C 200.800 312.980,201.250 312.800,201.800 312.800 C 202.350 312.800,202.800 312.620,202.800 312.400 C 202.800 312.180,203.160 312.000,203.600 312.000 C 204.040 312.000,204.400 311.820,204.400 311.600 C 204.400 311.380,204.760 311.200,205.200 311.200 C 205.640 311.200,206.000 311.020,206.000 310.800 C 206.000 310.580,206.450 310.400,207.000 310.400 C 207.550 310.400,208.000 310.220,208.000 310.000 C 208.000 309.780,208.360 309.600,208.800 309.600 C 209.240 309.600,209.600 309.420,209.600 309.200 C 209.600 308.980,209.962 308.800,210.405 308.800 C 210.848 308.800,211.523 308.638,211.905 308.441 C 212.287 308.244,213.410 307.762,214.400 307.370 C 215.390 306.979,216.955 306.330,217.878 305.929 C 218.801 305.528,219.836 305.200,220.178 305.200 C 220.520 305.200,220.800 305.020,220.800 304.800 C 220.800 304.580,221.149 304.400,221.576 304.400 C 222.003 304.400,222.464 304.220,222.600 304.000 C 222.736 303.780,223.197 303.600,223.624 303.600 C 224.051 303.600,224.400 303.420,224.400 303.200 C 224.400 302.980,224.745 302.800,225.167 302.800 C 225.588 302.800,225.993 302.622,226.067 302.403 C 226.140 302.185,226.695 301.966,227.300 301.916 C 227.905 301.866,228.400 301.685,228.400 301.513 C 228.400 301.341,228.760 301.200,229.200 301.200 C 229.640 301.200,230.000 301.020,230.000 300.800 C 230.000 300.580,230.360 300.400,230.800 300.400 C 231.240 300.400,231.600 300.220,231.600 300.000 C 231.600 299.780,231.949 299.600,232.376 299.600 C 232.803 299.600,233.264 299.420,233.400 299.200 C 233.536 298.980,234.087 298.800,234.624 298.800 C 235.161 298.800,235.600 298.620,235.600 298.400 C 235.600 298.180,235.960 298.000,236.400 298.000 C 236.840 298.000,237.200 297.820,237.200 297.600 C 237.200 297.380,237.650 297.200,238.200 297.200 C 238.750 297.200,239.200 297.020,239.200 296.800 C 239.200 296.580,239.560 296.400,240.000 296.400 C 240.440 296.400,240.800 296.220,240.800 296.000 C 240.800 295.780,241.160 295.600,241.600 295.600 C 242.040 295.600,242.400 295.420,242.400 295.200 C 242.400 294.980,242.749 294.800,243.176 294.800 C 243.603 294.800,244.064 294.620,244.200 294.400 C 244.336 294.180,244.887 294.000,245.424 294.000 C 245.961 294.000,246.400 293.820,246.400 293.600 C 246.400 293.380,246.760 293.200,247.200 293.200 C 247.640 293.200,248.000 293.020,248.000 292.800 C 248.000 292.580,248.540 292.400,249.200 292.400 C 249.860 292.400,250.400 292.220,250.400 292.000 C 250.400 291.780,250.688 291.600,251.040 291.600 C 251.636 291.600,253.698 290.808,255.295 289.966 C 255.677 289.765,256.262 289.600,256.595 289.600 C 256.928 289.600,257.200 289.420,257.200 289.200 C 257.200 288.980,257.560 288.800,258.000 288.800 C 258.440 288.800,258.800 288.620,258.800 288.400 C 258.800 288.180,259.239 288.000,259.776 288.000 C 260.313 288.000,260.864 287.820,261.000 287.600 C 261.136 287.380,261.597 287.200,262.024 287.200 C 262.451 287.200,262.800 287.020,262.800 286.800 C 262.800 286.580,263.160 286.400,263.600 286.400 C 264.040 286.400,264.400 286.220,264.400 286.000 C 264.400 285.780,264.679 285.600,265.019 285.600 C 265.360 285.600,266.384 285.240,267.294 284.800 C 268.205 284.360,269.186 284.000,269.475 284.000 C 269.764 284.000,270.000 283.820,270.000 283.600 C 270.000 283.380,270.343 283.200,270.762 283.200 C 271.578 283.200,274.912 281.599,275.133 281.100 C 275.207 280.935,275.691 280.800,276.210 280.800 C 276.728 280.800,277.264 280.620,277.400 280.400 C 277.536 280.180,277.997 280.000,278.424 280.000 C 278.851 280.000,279.200 279.820,279.200 279.600 C 279.200 279.380,279.560 279.200,280.000 279.200 C 280.440 279.200,280.800 279.020,280.800 278.800 C 280.800 278.580,281.340 278.400,282.000 278.400 C 282.660 278.400,283.200 278.220,283.200 278.000 C 283.200 277.780,283.560 277.600,284.000 277.600 C 284.440 277.600,284.800 277.420,284.800 277.200 C 284.800 276.980,285.160 276.800,285.600 276.800 C 286.040 276.800,286.400 276.620,286.400 276.400 C 286.400 276.180,286.839 276.000,287.376 276.000 C 287.913 276.000,288.464 275.820,288.600 275.600 C 288.736 275.380,289.197 275.200,289.624 275.200 C 290.051 275.200,290.400 275.009,290.400 274.776 C 290.400 274.543,290.568 274.456,290.772 274.583 C 290.977 274.709,291.236 274.666,291.347 274.486 C 291.458 274.306,292.461 273.910,293.575 273.607 C 294.689 273.304,295.600 272.908,295.600 272.728 C 295.600 272.547,295.960 272.400,296.400 272.400 C 296.840 272.400,297.200 272.220,297.200 272.000 C 297.200 271.780,297.639 271.600,298.176 271.600 C 298.713 271.600,299.264 271.420,299.400 271.200 C 299.536 270.980,299.997 270.800,300.424 270.800 C 300.851 270.800,301.200 270.620,301.200 270.400 C 301.200 270.180,301.560 270.000,302.000 270.000 C 302.440 270.000,302.800 269.859,302.800 269.687 C 302.800 269.515,303.610 269.135,304.600 268.843 C 305.590 268.551,306.400 268.152,306.400 267.956 C 306.400 267.760,306.672 267.600,307.005 267.600 C 307.338 267.600,307.968 267.420,308.405 267.200 C 308.842 266.980,309.558 266.620,309.995 266.400 C 310.432 266.180,311.062 266.000,311.395 266.000 C 311.728 266.000,312.000 265.820,312.000 265.600 C 312.000 265.380,312.349 265.200,312.776 265.200 C 313.203 265.200,313.664 265.020,313.800 264.800 C 313.936 264.580,314.487 264.400,315.024 264.400 C 315.561 264.400,316.000 264.220,316.000 264.000 C 316.000 263.780,316.360 263.600,316.800 263.600 C 317.240 263.600,317.600 263.420,317.600 263.200 C 317.600 262.980,317.949 262.800,318.376 262.800 C 318.803 262.800,319.264 262.620,319.400 262.400 C 319.536 262.180,320.097 262.000,320.647 262.000 C 321.212 262.000,321.540 261.826,321.400 261.600 C 321.260 261.373,321.596 261.200,322.176 261.200 C 322.739 261.200,323.200 261.020,323.200 260.800 C 323.200 260.580,323.560 260.400,324.000 260.400 C 324.440 260.400,324.800 260.220,324.800 260.000 C 324.800 259.780,325.250 259.600,325.800 259.600 C 326.350 259.600,326.800 259.420,326.800 259.200 C 326.800 258.980,327.072 258.800,327.405 258.800 C 327.738 258.800,328.323 258.626,328.705 258.413 C 329.789 257.810,334.609 256.000,335.131 256.000 C 335.389 256.000,335.600 255.820,335.600 255.600 C 335.600 255.380,335.942 255.200,336.359 255.200 C 336.777 255.200,338.145 254.660,339.400 254.000 C 340.655 253.340,342.023 252.800,342.441 252.800 C 342.858 252.800,343.200 252.620,343.200 252.400 C 343.200 252.180,343.560 252.000,344.000 252.000 C 344.440 252.000,344.800 251.820,344.800 251.600 C 344.800 251.380,345.149 251.200,345.576 251.200 C 346.003 251.200,346.464 251.020,346.600 250.800 C 346.736 250.580,347.297 250.400,347.847 250.400 C 348.412 250.400,348.740 250.226,348.600 250.000 C 348.460 249.773,348.796 249.600,349.376 249.600 C 349.939 249.600,350.400 249.420,350.400 249.200 C 350.400 248.980,350.760 248.800,351.200 248.800 C 351.640 248.800,352.000 248.620,352.000 248.400 C 352.000 248.180,352.540 248.000,353.200 248.000 C 353.860 248.000,354.400 247.820,354.400 247.600 C 354.400 247.380,354.760 247.200,355.200 247.200 C 355.640 247.200,356.000 247.040,356.000 246.844 C 356.000 246.648,356.810 246.249,357.800 245.957 C 358.790 245.665,359.600 245.285,359.600 245.113 C 359.600 244.941,359.960 244.800,360.400 244.800 C 360.840 244.800,361.200 244.620,361.200 244.400 C 361.200 244.180,361.639 244.000,362.176 244.000 C 362.713 244.000,363.264 243.820,363.400 243.600 C 363.536 243.380,363.997 243.200,364.424 243.200 C 364.851 243.200,365.200 243.020,365.200 242.800 C 365.200 242.580,365.560 242.400,366.000 242.400 C 366.440 242.400,366.800 242.244,366.800 242.052 C 366.800 241.861,367.385 241.610,368.100 241.494 C 368.815 241.378,370.620 240.724,372.110 240.041 C 373.601 239.359,375.086 238.800,375.410 238.800 C 375.735 238.800,376.000 238.620,376.000 238.400 C 376.000 238.180,376.360 238.000,376.800 238.000 C 377.240 238.000,377.600 237.841,377.600 237.647 C 377.600 237.452,377.960 237.199,378.400 237.084 C 379.106 236.899,379.200 236.538,379.200 234.014 C 379.200 232.440,379.342 231.240,379.515 231.348 C 379.688 231.455,379.870 231.068,379.917 230.489 C 379.965 229.909,380.184 229.256,380.402 229.038 C 380.621 228.819,380.800 228.226,380.800 227.720 C 380.800 227.214,380.980 226.800,381.200 226.800 C 381.420 226.800,381.600 226.532,381.600 226.205 C 381.600 225.088,387.395 218.993,389.400 218.000 C 390.060 217.673,390.891 217.089,391.247 216.703 C 391.603 216.316,392.368 216.000,392.947 216.000 C 393.526 216.000,394.000 215.820,394.000 215.600 C 394.000 215.380,394.720 215.200,395.600 215.200 C 396.480 215.200,397.200 215.020,397.200 214.800 C 397.200 214.580,397.830 214.400,398.600 214.400 L 400.000 214.400 400.000 209.400 C 400.000 205.222,399.901 204.400,399.400 204.400 C 399.070 204.400,398.800 204.220,398.800 204.000 C 398.800 203.780,398.528 203.600,398.195 203.600 C 397.486 203.600,396.170 202.889,395.045 201.900 C 394.607 201.515,394.082 201.200,393.878 201.200 C 393.460 201.200,390.400 197.957,390.400 197.514 C 390.400 197.357,389.860 196.376,389.200 195.336 C 388.540 194.295,388.000 193.134,388.000 192.755 C 388.000 192.376,387.830 192.007,387.622 191.933 C 387.415 191.860,387.204 190.765,387.154 189.500 C 387.104 188.235,386.914 187.200,386.732 187.200 C 386.262 187.200,386.319 185.697,386.800 185.400 C 387.020 185.264,387.200 184.173,387.200 182.976 C 387.200 181.779,387.380 180.800,387.600 180.800 C 387.820 180.800,388.000 180.361,388.000 179.824 C 388.000 179.287,388.180 178.736,388.400 178.600 C 388.620 178.464,388.800 178.003,388.800 177.576 C 388.800 177.149,388.980 176.800,389.200 176.800 C 389.420 176.800,389.600 176.530,389.600 176.200 C 389.600 175.870,389.810 175.600,390.067 175.600 C 390.323 175.600,390.436 175.503,390.317 175.384 C 390.006 175.072,393.999 171.105,395.301 170.432 C 395.906 170.120,396.400 169.715,396.400 169.532 C 396.400 169.350,396.760 169.200,397.200 169.200 C 397.640 169.200,398.000 169.020,398.000 168.800 C 398.000 168.580,398.450 168.400,399.000 168.400 L 400.000 168.400 400.000 161.800 C 400.000 156.200,399.909 155.200,399.400 155.200 C 399.070 155.200,398.800 155.020,398.800 154.800 C 398.800 154.580,398.440 154.400,398.000 154.400 C 397.560 154.400,397.200 154.220,397.200 154.000 C 397.200 153.780,396.840 153.600,396.400 153.600 C 395.960 153.600,395.600 153.420,395.600 153.200 C 395.600 152.980,395.311 152.800,394.957 152.800 C 394.255 152.800,390.400 148.901,390.400 148.191 C 390.400 147.949,390.085 147.393,389.700 146.955 C 388.631 145.740,388.000 144.496,388.000 143.605 C 388.000 143.162,387.820 142.800,387.600 142.800 C 387.380 142.800,387.200 141.998,387.200 141.019 C 387.200 140.039,386.985 138.766,386.722 138.189 C 386.352 137.377,386.352 136.969,386.722 136.376 C 386.985 135.955,387.200 134.708,387.200 133.605 C 387.200 132.502,387.380 131.600,387.600 131.600 C 387.820 131.600,388.000 131.060,388.000 130.400 C 388.000 129.740,388.180 129.200,388.400 129.200 C 388.620 129.200,388.800 128.840,388.800 128.400 C 388.800 127.960,388.950 127.600,389.132 127.600 C 389.315 127.600,389.720 127.105,390.032 126.500 C 390.702 125.201,394.149 121.654,394.887 121.504 C 395.169 121.447,395.670 121.122,396.000 120.783 C 396.330 120.444,397.365 119.920,398.300 119.619 L 400.000 119.072 400.000 112.936 L 400.000 106.800 399.000 106.800 C 398.450 106.800,398.000 106.620,398.000 106.400 C 398.000 106.180,397.640 106.000,397.200 106.000 C 396.760 106.000,396.400 105.850,396.400 105.668 C 396.400 105.485,395.905 105.080,395.300 104.768 C 393.735 103.960,390.623 100.705,390.017 99.240 C 389.734 98.558,389.345 98.000,389.151 98.000 C 388.958 98.000,388.800 97.640,388.800 97.200 C 388.800 96.760,388.664 96.400,388.497 96.400 C 388.044 96.400,387.200 93.410,387.200 91.801 C 387.200 91.024,386.977 90.032,386.704 89.595 C 386.345 89.019,386.325 88.607,386.633 88.100 C 386.866 87.715,387.099 86.500,387.150 85.400 C 387.201 84.300,387.413 83.340,387.621 83.267 C 387.830 83.193,388.000 82.698,388.000 82.167 C 388.000 81.635,388.180 81.200,388.400 81.200 C 388.620 81.200,388.800 80.816,388.800 80.347 C 388.800 79.878,389.172 79.171,389.626 78.777 C 390.081 78.383,390.415 77.938,390.368 77.788 C 390.268 77.464,391.188 76.075,391.919 75.446 C 392.205 75.201,392.872 74.595,393.401 74.100 C 393.930 73.605,394.642 73.200,394.982 73.200 C 395.322 73.200,395.600 73.064,395.600 72.898 C 395.600 72.549,398.051 71.377,398.500 71.511 C 398.665 71.560,398.800 71.420,398.800 71.200 C 398.800 70.980,399.070 70.800,399.400 70.800 C 399.903 70.800,400.000 69.956,400.000 65.600 L 400.000 60.400 398.624 60.400 C 397.867 60.400,397.160 60.259,397.054 60.087 C 396.948 59.915,396.265 59.729,395.537 59.674 C 394.809 59.618,394.039 59.399,393.827 59.187 C 393.614 58.974,393.068 58.800,392.613 58.800 C 392.158 58.800,391.123 58.350,390.314 57.800 C 389.505 57.250,388.740 56.800,388.615 56.800 C 388.091 56.800,382.400 50.762,382.400 50.206 C 382.400 49.873,382.220 49.600,382.000 49.600 C 381.780 49.600,381.600 49.240,381.600 48.800 C 381.600 48.360,381.420 48.000,381.200 48.000 C 380.980 48.000,380.800 47.640,380.800 47.200 C 380.800 46.760,380.620 46.400,380.400 46.400 C 380.180 46.400,380.000 45.770,380.000 45.000 C 380.000 44.230,379.820 43.600,379.600 43.600 C 379.378 43.600,379.200 42.533,379.200 41.200 L 379.200 38.800 221.096 38.800 C 63.786 38.800,62.990 38.804,62.496 39.595 M349.101 137.500 L 349.203 197.200 220.444 197.200 C 103.402 197.200,91.663 197.142,91.443 196.567 C 90.746 194.751,91.194 78.443,91.900 78.032 C 92.373 77.756,134.212 77.652,220.800 77.712 L 349.000 77.800 349.101 137.500 M102.800 137.600 L 102.800 186.000 220.400 186.000 L 338.000 186.000 338.000 137.600 L 338.000 89.200 220.400 89.200 L 102.800 89.200 102.800 137.600 M197.693 113.656 C 202.349 114.386,206.866 116.353,209.002 118.581 C 210.774 120.429,212.800 123.000,212.800 123.400 C 212.800 123.863,209.865 125.991,207.024 127.587 L 205.701 128.330 203.773 126.373 C 200.569 123.120,193.784 121.463,190.521 123.137 C 190.124 123.340,189.260 123.753,188.600 124.053 C 178.815 128.511,179.165 145.392,189.143 150.292 C 195.377 153.353,205.200 150.001,205.200 144.814 C 205.200 144.352,205.451 143.879,205.757 143.761 C 206.394 143.517,212.800 147.571,212.800 148.219 C 212.800 148.865,208.532 153.901,207.530 154.437 C 207.046 154.696,206.321 155.215,205.918 155.590 C 205.022 156.426,203.775 157.030,200.158 158.384 C 196.878 159.612,188.387 158.589,183.838 156.418 C 172.227 150.877,168.519 132.972,176.721 122.056 C 180.255 117.352,184.496 114.938,191.200 113.814 C 192.850 113.538,194.332 113.286,194.493 113.256 C 194.653 113.225,196.093 113.405,197.693 113.656 M155.626 115.214 C 156.303 115.576,156.400 116.078,156.400 119.200 C 156.400 123.701,156.569 123.600,149.026 123.600 L 143.200 123.600 143.200 141.171 C 143.200 161.835,143.682 160.000,138.251 160.000 C 133.147 160.000,133.600 161.818,133.600 141.320 L 133.600 123.600 128.029 123.600 C 121.119 123.600,121.200 123.654,121.200 118.991 C 121.200 116.221,121.321 115.569,121.900 115.232 C 122.865 114.670,154.578 114.653,155.626 115.214 M167.226 115.214 C 168.182 115.726,168.466 158.574,167.520 159.520 C 167.217 159.823,165.698 160.000,163.400 160.000 C 161.102 160.000,159.583 159.823,159.280 159.520 C 158.588 158.828,158.588 115.972,159.280 115.280 C 159.878 114.682,166.134 114.630,167.226 115.214 M222.700 115.052 C 223.599 115.293,223.600 115.306,223.600 124.075 C 223.600 131.121,223.699 132.751,224.100 132.319 C 224.375 132.023,225.585 130.615,226.790 129.190 C 227.994 127.766,229.079 126.510,229.202 126.400 C 229.324 126.290,231.468 123.808,233.966 120.885 C 239.426 114.495,238.907 114.800,244.341 114.800 C 250.745 114.800,251.065 115.059,248.295 118.000 C 247.363 118.990,245.970 120.528,245.200 121.417 C 243.360 123.542,239.672 127.728,235.649 132.258 C 231.601 136.817,231.233 135.235,238.332 143.806 C 238.700 144.250,239.809 145.600,240.798 146.806 C 241.787 148.013,242.777 149.204,242.998 149.453 C 243.219 149.702,243.963 150.602,244.651 151.453 C 245.339 152.304,247.004 154.350,248.351 156.000 C 251.685 160.085,251.738 160.000,245.852 160.000 L 240.904 160.000 238.305 157.100 C 236.875 155.505,234.403 152.670,232.811 150.800 C 225.400 142.092,225.959 142.541,224.479 144.116 C 223.672 144.975,223.612 145.489,223.509 152.416 L 223.400 159.800 219.200 159.800 L 215.000 159.800 214.897 137.626 C 214.815 120.151,214.900 115.384,215.297 115.132 C 215.884 114.759,221.384 114.699,222.700 115.052 M281.900 115.052 C 283.187 115.397,283.298 122.506,282.026 123.186 C 281.552 123.440,277.373 123.600,271.226 123.600 L 261.200 123.600 261.200 128.000 L 261.200 132.400 271.100 132.405 C 283.939 132.413,282.854 132.007,282.714 136.750 L 282.600 140.600 271.900 140.707 L 261.200 140.813 261.200 146.200 L 261.200 151.587 271.900 151.693 L 282.600 151.800 282.600 155.800 L 282.600 159.800 268.247 159.905 C 257.987 159.980,253.738 159.881,253.347 159.556 C 252.402 158.772,252.550 115.785,253.500 115.232 C 254.255 114.792,280.313 114.627,281.900 115.052 M319.626 115.214 C 320.303 115.576,320.400 116.078,320.400 119.200 C 320.400 123.701,320.569 123.600,313.026 123.600 L 307.200 123.600 307.200 141.320 C 307.200 161.755,307.617 160.000,302.763 160.000 C 298.378 160.000,298.800 162.003,298.800 141.167 L 298.800 123.600 292.680 123.600 C 285.345 123.600,285.600 123.758,285.600 119.200 C 285.600 117.058,285.781 115.579,286.080 115.280 C 286.710 114.650,318.456 114.588,319.626 115.214 M79.856 238.300 C 80.629 240.005,81.538 242.030,81.878 242.800 C 82.218 243.570,83.104 245.500,83.848 247.089 C 84.591 248.677,85.200 250.068,85.200 250.179 C 85.200 250.289,85.740 251.559,86.400 253.000 C 87.060 254.441,87.600 255.701,87.600 255.800 C 87.600 255.899,88.140 257.159,88.800 258.600 C 89.460 260.041,90.000 261.301,90.000 261.400 C 90.000 261.499,90.540 262.759,91.200 264.200 C 91.860 265.641,92.400 266.900,92.400 266.998 C 92.400 267.096,92.832 268.127,93.361 269.288 C 93.889 270.450,95.708 274.640,97.403 278.600 C 99.098 282.560,100.916 286.750,101.442 287.912 C 101.969 289.073,102.400 290.104,102.400 290.202 C 102.400 290.300,102.915 291.509,103.544 292.890 C 104.173 294.270,104.929 296.075,105.224 296.900 C 105.754 298.381,106.278 298.720,107.020 298.064 C 107.229 297.879,108.030 297.488,108.800 297.194 C 109.570 296.900,111.330 296.151,112.710 295.530 C 114.091 294.908,115.300 294.400,115.398 294.400 C 115.496 294.400,116.617 293.931,117.888 293.357 C 119.160 292.783,120.740 292.084,121.400 291.804 C 122.060 291.524,123.230 291.020,124.000 290.684 C 124.770 290.348,128.640 288.688,132.600 286.995 C 136.560 285.301,140.750 283.484,141.912 282.958 C 143.073 282.431,144.103 282.000,144.200 282.000 C 144.297 282.000,145.417 281.531,146.688 280.957 C 148.886 279.965,149.924 279.512,152.900 278.247 C 153.615 277.944,154.875 277.404,155.700 277.047 C 156.525 276.691,157.785 276.149,158.500 275.843 C 159.215 275.537,160.840 274.817,162.112 274.243 C 163.383 273.669,164.503 273.200,164.600 273.200 C 164.697 273.200,165.727 272.770,166.888 272.243 C 168.050 271.717,171.610 270.178,174.800 268.823 C 177.990 267.468,181.140 266.119,181.800 265.827 C 183.014 265.289,184.927 264.459,187.300 263.443 C 188.015 263.137,189.640 262.417,190.912 261.843 C 192.183 261.269,193.303 260.800,193.400 260.800 C 193.497 260.800,194.617 260.331,195.888 259.757 C 197.160 259.183,198.785 258.463,199.500 258.157 C 200.215 257.851,201.385 257.347,202.100 257.037 C 202.815 256.728,206.640 255.086,210.600 253.389 C 214.560 251.692,218.750 249.875,219.912 249.352 C 221.073 248.828,222.104 248.400,222.202 248.400 C 222.300 248.400,223.559 247.860,225.000 247.200 C 226.441 246.540,227.850 246.000,228.130 246.000 C 228.411 246.000,228.811 245.849,229.020 245.664 C 229.229 245.479,230.030 245.087,230.800 244.793 C 231.570 244.499,233.100 243.860,234.200 243.373 C 235.300 242.886,238.630 241.458,241.600 240.199 C 244.570 238.941,247.799 237.551,248.775 237.111 C 253.020 235.199,253.010 235.200,267.550 235.209 C 282.421 235.218,283.173 235.360,278.054 237.193 C 277.254 237.479,275.700 238.117,274.600 238.610 C 273.500 239.103,269.720 240.716,266.200 242.194 C 262.680 243.672,257.245 246.033,254.123 247.440 C 251.001 248.848,248.350 250.000,248.233 250.000 C 248.116 250.000,246.841 250.540,245.400 251.200 C 243.959 251.860,242.693 252.400,242.586 252.400 C 242.479 252.400,241.538 252.781,240.496 253.247 C 239.453 253.712,238.060 254.321,237.400 254.599 C 235.202 255.526,233.419 256.299,231.504 257.153 C 230.462 257.619,229.521 258.000,229.414 258.000 C 229.307 258.000,228.041 258.540,226.600 259.200 C 225.159 259.860,223.900 260.400,223.802 260.400 C 223.704 260.400,222.673 260.831,221.512 261.357 C 220.350 261.883,216.520 263.524,213.000 265.003 C 209.480 266.483,205.650 268.122,204.488 268.646 C 203.327 269.171,202.290 269.600,202.184 269.600 C 202.078 269.600,201.138 269.981,200.096 270.447 C 199.053 270.912,197.615 271.542,196.900 271.847 C 196.185 272.151,194.970 272.670,194.200 273.000 C 193.430 273.330,192.215 273.851,191.500 274.157 C 190.785 274.463,189.160 275.183,187.888 275.757 C 186.617 276.331,185.514 276.800,185.437 276.800 C 185.288 276.800,166.360 284.805,164.000 285.866 C 162.443 286.565,160.221 287.514,159.000 288.000 C 158.136 288.344,156.894 288.872,151.100 291.358 C 150.385 291.665,148.990 292.273,148.000 292.711 C 147.010 293.148,143.320 294.716,139.800 296.196 C 136.280 297.676,132.450 299.317,131.288 299.843 C 130.127 300.369,129.090 300.800,128.984 300.800 C 128.878 300.800,127.938 301.181,126.896 301.647 C 125.853 302.112,124.415 302.742,123.700 303.047 C 122.985 303.351,121.725 303.891,120.900 304.247 C 120.075 304.604,118.815 305.144,118.100 305.447 C 114.690 306.897,114.074 307.163,112.304 307.953 C 111.262 308.419,110.321 308.800,110.214 308.800 C 110.107 308.800,108.891 309.309,107.510 309.931 C 102.976 311.974,100.451 312.879,100.024 312.615 C 99.654 312.386,97.600 308.292,97.600 307.784 C 97.600 307.678,97.219 306.738,96.753 305.696 C 96.288 304.653,95.658 303.215,95.353 302.500 C 95.049 301.785,94.551 300.615,94.247 299.900 C 93.942 299.185,93.312 297.747,92.847 296.704 C 92.381 295.662,92.000 294.722,92.000 294.616 C 92.000 294.510,91.571 293.473,91.046 292.312 C 90.189 290.413,88.578 286.614,82.942 273.200 C 81.971 270.890,81.020 268.640,80.829 268.200 C 80.173 266.690,79.105 264.199,78.599 263.000 C 78.321 262.340,77.712 260.947,77.247 259.904 C 76.781 258.862,76.400 257.922,76.400 257.816 C 76.400 257.710,75.973 256.673,75.451 255.512 C 74.415 253.206,72.413 248.408,70.399 243.400 C 69.692 241.640,68.682 239.250,68.156 238.088 C 67.630 236.927,67.200 235.802,67.200 235.588 C 67.200 235.356,69.457 235.200,72.826 235.200 L 78.452 235.200 79.856 238.300 M122.292 236.100 C 122.526 236.595,123.007 237.675,123.359 238.500 C 123.712 239.325,124.291 240.675,124.647 241.500 C 125.004 242.325,125.525 243.540,125.805 244.200 C 126.367 245.520,127.780 248.727,128.627 250.600 C 132.013 258.096,132.277 259.600,130.204 259.600 C 129.678 259.600,129.136 259.780,129.000 260.000 C 128.864 260.220,128.324 260.400,127.800 260.400 C 127.276 260.400,126.749 260.559,126.630 260.752 C 125.976 261.810,123.200 261.343,123.200 260.175 C 123.200 259.853,123.035 259.277,122.834 258.895 C 122.632 258.513,122.182 257.525,121.834 256.700 C 120.632 253.856,120.093 252.596,119.480 251.200 C 119.142 250.430,118.553 248.990,118.170 248.000 C 116.929 244.786,114.004 237.818,113.597 237.105 C 112.605 235.369,112.955 235.200,117.532 235.200 C 121.632 235.200,121.888 235.248,122.292 236.100 M149.400 237.012 C 149.840 237.898,150.531 239.428,150.936 240.412 C 151.340 241.395,152.192 243.327,152.829 244.704 C 154.911 249.208,154.983 248.969,151.003 250.799 C 146.645 252.803,146.599 252.800,145.572 250.500 C 145.105 249.455,144.471 248.077,144.162 247.439 C 143.853 246.800,143.600 246.123,143.600 245.934 C 143.600 245.746,143.219 244.738,142.753 243.696 C 142.288 242.653,141.638 241.170,141.310 240.400 C 140.981 239.630,140.462 238.477,140.156 237.839 C 138.928 235.275,139.104 235.161,144.100 235.287 L 148.600 235.400 149.400 237.012 M185.200 235.551 C 185.200 236.023,184.552 236.521,182.337 237.750 C 180.605 238.712,179.587 239.096,175.400 240.372 C 169.992 242.020,156.400 238.556,156.400 235.530 C 156.400 235.349,162.880 235.200,170.800 235.200 C 178.794 235.200,185.200 235.356,185.200 235.551 " stroke="none" fill="#fb735b" fill-rule="evenodd"></path><path id="path1" d="M190.000 114.413 C 184.873 115.858,183.794 116.365,180.525 118.869 C 177.449 121.226,175.151 124.600,174.035 128.400 C 173.744 129.390,173.348 130.722,173.153 131.360 C 172.048 134.986,173.054 142.434,175.285 147.153 C 180.372 157.913,195.852 161.869,205.872 154.968 C 208.883 152.895,212.672 148.469,211.965 147.853 C 211.234 147.216,206.416 144.400,206.057 144.400 C 205.806 144.400,205.600 144.772,205.600 145.226 C 205.600 149.297,198.314 153.117,192.667 152.006 C 176.104 148.747,177.198 123.295,193.954 122.096 C 197.926 121.812,200.683 122.765,203.555 125.416 C 206.073 127.740,205.926 127.740,209.529 125.400 C 212.480 123.484,212.486 123.435,210.181 120.735 C 205.708 115.494,196.453 112.595,190.000 114.413 M122.000 119.185 L 122.000 122.779 128.100 122.890 L 134.200 123.000 134.304 141.100 L 134.408 159.200 138.404 159.200 L 142.400 159.200 142.400 141.010 L 142.400 122.820 148.900 122.710 L 155.400 122.600 155.400 119.200 L 155.400 115.800 138.700 115.696 L 122.000 115.591 122.000 119.185 M159.600 137.400 L 159.600 159.200 163.400 159.200 L 167.200 159.200 167.200 137.400 L 167.200 115.600 163.400 115.600 L 159.600 115.600 159.600 137.400 M215.200 137.400 L 215.200 159.200 219.200 159.200 L 223.200 159.200 223.200 151.922 L 223.200 144.644 224.275 143.522 C 225.812 141.917,225.998 142.008,229.466 146.067 C 232.634 149.774,234.297 151.694,238.533 156.534 L 240.866 159.200 245.447 159.200 C 250.425 159.200,250.506 159.142,248.526 157.000 C 248.119 156.560,246.682 154.850,245.332 153.200 C 237.911 144.131,234.276 139.707,233.607 138.931 C 231.137 136.062,230.818 136.700,239.558 126.999 C 244.094 121.965,249.200 116.058,249.200 115.846 C 249.200 115.711,246.979 115.600,244.264 115.600 L 239.329 115.600 238.164 116.906 C 237.524 117.625,235.830 119.558,234.400 121.202 C 232.970 122.847,231.487 124.540,231.105 124.966 C 230.723 125.392,228.925 127.493,227.110 129.635 C 225.296 131.777,223.673 133.445,223.505 133.341 C 223.337 133.238,223.200 129.203,223.200 124.376 L 223.200 115.600 219.200 115.600 L 215.200 115.600 215.200 137.400 M253.872 115.862 C 253.722 116.011,253.600 125.823,253.600 137.667 L 253.600 159.200 268.016 159.200 L 282.432 159.200 282.316 155.900 L 282.200 152.600 271.600 152.400 L 261.000 152.200 260.889 146.300 L 260.779 140.400 271.382 140.400 L 281.985 140.400 282.214 139.488 C 282.340 138.986,282.388 137.411,282.321 135.988 L 282.200 133.400 271.600 133.200 L 261.000 133.000 260.888 127.900 L 260.776 122.800 271.088 122.794 C 283.226 122.787,282.470 123.044,282.318 118.965 L 282.200 115.800 268.172 115.695 C 260.456 115.637,254.021 115.712,253.872 115.862 M286.084 119.100 L 286.200 122.600 292.700 122.710 L 299.200 122.820 299.200 141.010 L 299.200 159.200 302.796 159.200 L 306.392 159.200 306.496 141.100 L 306.600 123.000 313.000 122.800 L 319.400 122.600 319.516 119.100 L 319.631 115.600 302.800 115.600 L 285.969 115.600 286.084 119.100 M114.000 236.225 C 114.000 236.349,114.825 238.374,115.833 240.725 C 116.840 243.076,117.942 245.808,118.281 246.795 C 118.619 247.782,119.415 249.722,120.048 251.105 C 120.682 252.488,121.200 253.707,121.200 253.814 C 121.200 253.921,121.543 254.772,121.962 255.704 C 122.380 256.637,123.045 258.165,123.439 259.100 C 124.270 261.075,124.179 261.059,127.716 259.854 C 131.226 258.658,131.365 258.498,130.571 256.571 C 129.379 253.677,127.788 250.004,126.514 247.200 C 125.041 243.957,124.162 241.983,123.442 240.300 C 123.089 239.475,122.509 238.170,122.154 237.400 L 121.509 236.000 117.754 236.000 C 115.689 236.000,114.000 236.101,114.000 236.225 M140.115 236.286 C 140.299 236.609,141.273 238.808,142.247 241.100 C 142.551 241.815,143.049 242.985,143.353 243.700 C 143.658 244.415,144.500 246.485,145.226 248.300 C 146.768 252.155,146.718 252.139,150.945 250.212 C 154.260 248.702,154.278 248.659,152.707 245.873 C 152.437 245.393,151.387 243.020,150.375 240.600 L 148.535 236.200 144.235 236.086 C 141.870 236.024,140.016 236.114,140.115 236.286 M158.000 236.316 C 158.000 237.062,163.308 239.290,166.720 239.975 C 170.234 240.680,172.140 240.529,177.400 239.131 C 178.939 238.722,184.000 236.428,184.000 236.140 C 184.000 236.063,178.150 236.000,171.000 236.000 C 163.850 236.000,158.000 236.142,158.000 236.316 " stroke="none" fill="#faf8f7" fill-rule="evenodd"></path><path id="path2" d="M92.099 137.500 L 92.200 196.600 220.500 196.701 L 348.800 196.801 348.800 137.601 L 348.800 78.400 220.399 78.400 L 91.997 78.400 92.099 137.500 M338.302 137.500 L 338.200 186.600 220.600 186.702 C 110.389 186.798,102.969 186.762,102.500 186.126 C 101.973 185.411,101.721 90.391,102.243 89.033 C 102.463 88.458,113.250 88.400,220.444 88.400 L 338.403 88.400 338.302 137.500 M68.400 236.525 C 68.400 236.594,68.760 237.395,69.200 238.306 C 69.640 239.216,70.000 240.110,70.000 240.291 C 70.000 240.472,70.525 241.692,71.167 243.001 C 71.809 244.310,72.238 245.538,72.120 245.729 C 72.002 245.920,72.083 246.464,72.299 246.938 C 72.516 247.412,72.874 248.250,73.096 248.800 C 73.317 249.350,73.863 250.610,74.309 251.600 C 76.173 255.744,76.800 257.203,76.800 257.400 C 76.800 257.515,77.152 258.372,77.583 259.304 C 78.576 261.454,84.400 275.233,84.400 275.431 C 84.400 275.513,84.940 276.759,85.600 278.200 C 86.260 279.641,86.800 280.907,86.800 281.014 C 86.800 281.121,87.181 282.062,87.647 283.104 C 88.112 284.147,88.742 285.585,89.047 286.300 C 89.351 287.015,89.888 288.275,90.241 289.100 C 90.593 289.925,91.020 290.960,91.190 291.400 C 91.360 291.840,91.863 293.010,92.309 294.000 C 94.146 298.084,94.800 299.601,94.800 299.784 C 94.800 299.890,95.231 300.927,95.757 302.088 C 96.283 303.250,97.475 306.045,98.406 308.300 C 100.244 312.751,100.149 312.653,101.839 311.844 C 103.114 311.232,105.747 310.093,107.000 309.610 C 107.440 309.440,108.610 308.937,109.600 308.491 C 113.684 306.654,115.201 306.000,115.384 306.000 C 115.490 306.000,116.527 305.571,117.688 305.048 C 118.850 304.524,122.680 302.881,126.200 301.397 C 129.720 299.913,133.550 298.271,134.712 297.749 C 135.873 297.227,136.910 296.800,137.016 296.800 C 137.122 296.800,138.062 296.422,139.104 295.960 C 140.147 295.498,141.360 294.981,141.800 294.811 C 142.240 294.641,143.500 294.096,144.600 293.600 C 145.700 293.104,146.960 292.564,147.400 292.400 C 147.840 292.236,149.010 291.737,150.000 291.291 C 154.084 289.454,155.601 288.800,155.784 288.800 C 155.890 288.800,156.927 288.371,158.088 287.848 C 159.250 287.324,163.080 285.682,166.600 284.199 C 173.453 281.313,174.813 280.737,177.000 279.800 C 177.770 279.470,179.030 278.930,179.800 278.600 C 180.570 278.270,181.830 277.730,182.600 277.400 C 183.370 277.070,184.630 276.530,185.400 276.200 C 186.170 275.870,187.430 275.330,188.200 275.000 C 188.970 274.670,190.230 274.130,191.000 273.800 C 191.770 273.470,192.985 272.946,193.700 272.635 C 194.415 272.325,198.060 270.782,201.800 269.207 C 205.540 267.632,209.363 265.996,210.296 265.571 C 211.228 265.147,212.078 264.800,212.184 264.800 C 212.290 264.800,213.417 264.331,214.688 263.757 C 217.299 262.579,219.420 261.665,220.600 261.210 C 221.040 261.040,222.300 260.496,223.400 260.000 C 224.500 259.504,225.760 258.960,226.200 258.790 C 226.640 258.620,227.675 258.193,228.500 257.841 C 229.325 257.488,230.585 256.951,231.300 256.647 C 233.453 255.732,235.525 254.833,236.900 254.218 C 237.615 253.898,241.260 252.353,245.000 250.785 C 248.740 249.216,252.323 247.678,252.961 247.366 C 253.600 247.055,254.365 246.800,254.661 246.800 C 254.958 246.800,255.200 246.652,255.200 246.471 C 255.200 246.083,257.955 244.663,260.338 243.822 C 262.124 243.192,264.549 242.171,265.695 241.566 C 266.077 241.365,266.662 241.200,266.995 241.200 C 267.328 241.200,267.600 241.020,267.600 240.800 C 267.600 240.580,267.872 240.400,268.205 240.400 C 268.538 240.400,269.213 240.192,269.705 239.938 C 271.582 238.967,272.007 238.800,272.595 238.800 C 272.928 238.800,273.200 238.620,273.200 238.400 C 273.200 238.180,273.472 238.000,273.805 238.000 C 274.138 238.000,274.723 237.833,275.105 237.629 C 275.487 237.425,276.160 237.110,276.600 236.929 C 277.050 236.744,271.938 236.554,264.908 236.494 C 251.098 236.377,252.964 236.119,246.489 239.046 C 245.328 239.571,244.201 240.000,243.984 240.000 C 243.767 240.000,243.232 240.180,242.795 240.400 C 242.358 240.620,241.642 240.980,241.205 241.200 C 240.768 241.420,240.138 241.600,239.805 241.600 C 239.472 241.600,239.200 241.780,239.200 242.000 C 239.200 242.220,238.851 242.400,238.424 242.400 C 237.997 242.400,237.536 242.580,237.400 242.800 C 237.264 243.020,236.803 243.200,236.376 243.200 C 235.949 243.200,235.600 243.380,235.600 243.600 C 235.600 243.820,235.328 244.000,234.995 244.000 C 234.662 244.000,234.077 244.159,233.695 244.353 C 232.791 244.813,231.344 245.399,229.600 246.010 C 227.897 246.608,219.402 250.130,216.488 251.446 C 215.327 251.971,214.290 252.400,214.184 252.400 C 214.001 252.400,212.484 253.054,208.400 254.891 C 207.410 255.337,206.240 255.836,205.800 256.000 C 205.360 256.164,204.145 256.681,203.100 257.149 C 197.989 259.438,196.748 259.982,193.300 261.447 C 192.585 261.751,191.415 262.253,190.700 262.563 C 189.985 262.873,186.160 264.512,182.200 266.205 C 178.240 267.899,174.050 269.716,172.888 270.242 C 171.727 270.769,170.690 271.200,170.584 271.200 C 170.401 271.200,168.884 271.854,164.800 273.691 C 163.810 274.137,162.640 274.636,162.200 274.800 C 161.760 274.964,160.590 275.463,159.600 275.908 C 158.610 276.353,157.170 276.986,156.400 277.315 C 155.630 277.644,153.960 278.383,152.688 278.957 C 151.417 279.531,150.297 280.000,150.200 280.000 C 150.103 280.000,149.073 280.432,147.912 280.959 C 146.750 281.487,144.630 282.405,143.200 283.000 C 141.770 283.595,139.650 284.513,138.488 285.041 C 137.327 285.568,136.297 286.000,136.200 286.000 C 136.103 286.000,134.983 286.469,133.712 287.043 C 132.440 287.617,130.815 288.337,130.100 288.643 C 129.385 288.949,128.125 289.491,127.300 289.847 C 126.475 290.204,125.170 290.762,124.400 291.089 C 123.630 291.416,122.280 292.006,121.400 292.400 C 120.520 292.794,119.125 293.406,118.300 293.758 C 117.475 294.111,116.170 294.670,115.400 295.000 C 114.630 295.330,113.415 295.848,112.700 296.152 C 111.985 296.455,110.281 297.197,108.914 297.800 C 105.549 299.284,105.827 299.592,101.627 289.742 C 99.576 284.934,97.543 280.190,97.107 279.200 C 95.980 276.638,95.167 274.725,94.810 273.800 C 94.640 273.360,94.137 272.190,93.692 271.200 C 93.247 270.210,92.594 268.725,92.242 267.900 C 91.889 267.075,91.311 265.725,90.958 264.900 C 90.606 264.075,89.994 262.680,89.600 261.800 C 88.531 259.414,87.895 257.933,85.391 252.000 C 84.138 249.030,82.772 246.228,82.356 245.774 C 81.940 245.320,81.600 244.733,81.600 244.469 C 81.600 244.205,81.435 243.677,81.233 243.295 C 81.031 242.913,80.518 241.790,80.094 240.800 C 79.670 239.810,79.071 238.415,78.764 237.700 L 78.205 236.400 73.302 236.400 C 70.606 236.400,68.400 236.456,68.400 236.525 " stroke="none" fill="#fbd25b" fill-rule="evenodd"></path><path id="path3" d="M91.900 78.032 C 91.194 78.443,90.746 194.751,91.443 196.567 C 91.663 197.142,103.402 197.200,220.444 197.200 L 349.203 197.200 349.101 137.500 L 349.000 77.800 220.800 77.712 C 134.212 77.652,92.373 77.756,91.900 78.032 M348.800 137.601 L 348.800 196.801 220.500 196.701 L 92.200 196.600 92.099 137.500 L 91.997 78.400 220.399 78.400 L 348.800 78.400 348.800 137.601 M102.243 89.033 C 101.721 90.391,101.973 185.411,102.500 186.126 C 102.969 186.762,110.389 186.798,220.600 186.702 L 338.200 186.600 338.302 137.500 L 338.403 88.400 220.444 88.400 C 113.250 88.400,102.463 88.458,102.243 89.033 M338.000 137.600 L 338.000 186.000 220.400 186.000 L 102.800 186.000 102.800 137.600 L 102.800 89.200 220.400 89.200 L 338.000 89.200 338.000 137.600 M130.500 115.100 C 135.065 115.164,142.535 115.164,147.100 115.100 C 151.665 115.035,147.930 114.983,138.800 114.983 C 129.670 114.983,125.935 115.035,130.500 115.100 M161.300 115.094 C 162.345 115.176,164.055 115.176,165.100 115.094 C 166.145 115.012,165.290 114.944,163.200 114.944 C 161.110 114.944,160.255 115.012,161.300 115.094 M217.312 115.095 C 218.364 115.177,219.984 115.176,220.912 115.092 C 221.840 115.008,220.980 114.941,219.000 114.942 C 217.020 114.943,216.260 115.012,217.312 115.095 M241.900 115.096 C 243.275 115.174,245.525 115.174,246.900 115.096 C 248.275 115.018,247.150 114.954,244.400 114.954 C 241.650 114.954,240.525 115.018,241.900 115.096 M260.674 115.099 C 264.455 115.165,270.755 115.165,274.674 115.099 C 278.593 115.034,275.500 114.980,267.800 114.980 C 260.100 114.980,256.893 115.034,260.674 115.099 M294.500 115.100 C 299.065 115.164,306.535 115.164,311.100 115.100 C 315.665 115.035,311.930 114.983,302.800 114.983 C 293.670 114.983,289.935 115.035,294.500 115.100 M124.882 123.496 C 126.358 123.573,128.878 123.573,130.482 123.497 C 132.087 123.421,130.880 123.358,127.800 123.358 C 124.720 123.357,123.407 123.419,124.882 123.496 M142.983 123.700 C 142.878 123.975,142.840 132.030,142.900 141.600 L 143.009 159.000 143.104 141.310 L 143.200 123.621 149.300 123.499 L 155.400 123.378 149.287 123.289 C 144.699 123.222,143.127 123.325,142.983 123.700 M266.076 123.499 C 268.868 123.567,273.548 123.568,276.476 123.499 C 279.404 123.431,277.120 123.375,271.400 123.374 C 265.680 123.374,263.284 123.430,266.076 123.499 M289.519 123.498 C 291.344 123.572,294.224 123.572,295.919 123.497 C 297.614 123.422,296.120 123.361,292.600 123.362 C 289.080 123.362,287.694 123.424,289.519 123.498 M310.100 123.497 C 311.805 123.572,314.595 123.572,316.300 123.497 C 318.005 123.422,316.610 123.361,313.200 123.361 C 309.790 123.361,308.395 123.422,310.100 123.497 M133.784 141.400 C 133.784 151.300,133.836 155.293,133.900 150.273 C 133.963 145.253,133.963 137.153,133.900 132.273 C 133.836 127.393,133.784 131.500,133.784 141.400 M266.076 132.699 C 268.868 132.767,273.548 132.768,276.476 132.699 C 279.404 132.631,277.120 132.575,271.400 132.574 C 265.680 132.574,263.284 132.630,266.076 132.699 M224.370 143.900 L 223.400 145.000 224.400 144.151 C 224.950 143.684,225.670 143.203,226.000 143.082 C 226.514 142.895,226.509 142.859,225.970 142.832 C 225.623 142.814,224.903 143.295,224.370 143.900 M67.200 235.588 C 67.200 235.802,67.630 236.927,68.156 238.088 C 68.682 239.250,69.692 241.640,70.399 243.400 C 72.413 248.408,74.415 253.206,75.451 255.512 C 75.973 256.673,76.400 257.710,76.400 257.816 C 76.400 257.922,76.781 258.862,77.247 259.904 C 77.712 260.947,78.321 262.340,78.599 263.000 C 79.105 264.199,80.173 266.690,80.829 268.200 C 81.020 268.640,81.971 270.890,82.942 273.200 C 88.578 286.614,90.189 290.413,91.046 292.312 C 91.571 293.473,92.000 294.510,92.000 294.616 C 92.000 294.722,92.381 295.662,92.847 296.704 C 93.312 297.747,93.942 299.185,94.247 299.900 C 94.551 300.615,95.049 301.785,95.353 302.500 C 95.658 303.215,96.288 304.653,96.753 305.696 C 97.219 306.738,97.600 307.678,97.600 307.784 C 97.600 308.292,99.654 312.386,100.024 312.615 C 100.451 312.879,102.976 311.974,107.510 309.931 C 108.891 309.309,110.107 308.800,110.214 308.800 C 110.321 308.800,111.262 308.419,112.304 307.953 C 114.074 307.163,114.690 306.897,118.100 305.447 C 118.815 305.144,120.075 304.604,120.900 304.247 C 121.725 303.891,122.985 303.351,123.700 303.047 C 124.415 302.742,125.853 302.112,126.896 301.647 C 127.938 301.181,128.878 300.800,128.984 300.800 C 129.090 300.800,130.127 300.369,131.288 299.843 C 132.450 299.317,136.280 297.676,139.800 296.196 C 143.320 294.716,147.010 293.148,148.000 292.711 C 148.990 292.273,150.385 291.665,151.100 291.358 C 156.894 288.872,158.136 288.344,159.000 288.000 C 160.221 287.514,162.443 286.565,164.000 285.866 C 166.360 284.805,185.288 276.800,185.437 276.800 C 185.514 276.800,186.617 276.331,187.888 275.757 C 189.160 275.183,190.785 274.463,191.500 274.157 C 192.215 273.851,193.430 273.330,194.200 273.000 C 194.970 272.670,196.185 272.151,196.900 271.847 C 197.615 271.542,199.053 270.912,200.096 270.447 C 201.138 269.981,202.078 269.600,202.184 269.600 C 202.290 269.600,203.327 269.171,204.488 268.646 C 205.650 268.122,209.480 266.483,213.000 265.003 C 216.520 263.524,220.350 261.883,221.512 261.357 C 222.673 260.831,223.704 260.400,223.802 260.400 C 223.900 260.400,225.159 259.860,226.600 259.200 C 228.041 258.540,229.307 258.000,229.414 258.000 C 229.521 258.000,230.462 257.619,231.504 257.153 C 233.419 256.299,235.202 255.526,237.400 254.599 C 238.060 254.321,239.453 253.712,240.496 253.247 C 241.538 252.781,242.479 252.400,242.586 252.400 C 242.693 252.400,243.959 251.860,245.400 251.200 C 246.841 250.540,248.116 250.000,248.233 250.000 C 248.350 250.000,251.001 248.848,254.123 247.440 C 257.245 246.033,262.680 243.672,266.200 242.194 C 269.720 240.716,273.500 239.103,274.600 238.610 C 275.700 238.117,277.254 237.479,278.054 237.193 C 283.173 235.360,282.421 235.218,267.550 235.209 C 253.010 235.200,253.020 235.199,248.775 237.111 C 247.799 237.551,244.570 238.941,241.600 240.199 C 238.630 241.458,235.300 242.886,234.200 243.373 C 233.100 243.860,231.570 244.499,230.800 244.793 C 230.030 245.087,229.229 245.479,229.020 245.664 C 228.811 245.849,228.411 246.000,228.130 246.000 C 227.850 246.000,226.441 246.540,225.000 247.200 C 223.559 247.860,222.300 248.400,222.202 248.400 C 222.104 248.400,221.073 248.828,219.912 249.352 C 218.750 249.875,214.560 251.692,210.600 253.389 C 206.640 255.086,202.815 256.728,202.100 257.037 C 201.385 257.347,200.215 257.851,199.500 258.157 C 198.785 258.463,197.160 259.183,195.888 259.757 C 194.617 260.331,193.497 260.800,193.400 260.800 C 193.303 260.800,192.183 261.269,190.912 261.843 C 189.640 262.417,188.015 263.137,187.300 263.443 C 184.927 264.459,183.014 265.289,181.800 265.827 C 181.140 266.119,177.990 267.468,174.800 268.823 C 171.610 270.178,168.050 271.717,166.888 272.243 C 165.727 272.770,164.697 273.200,164.600 273.200 C 164.503 273.200,163.383 273.669,162.112 274.243 C 160.840 274.817,159.215 275.537,158.500 275.843 C 157.785 276.149,156.525 276.691,155.700 277.047 C 154.875 277.404,153.615 277.944,152.900 278.247 C 149.924 279.512,148.886 279.965,146.688 280.957 C 145.417 281.531,144.297 282.000,144.200 282.000 C 144.103 282.000,143.073 282.431,141.912 282.958 C 140.750 283.484,136.560 285.301,132.600 286.995 C 128.640 288.688,124.770 290.348,124.000 290.684 C 123.230 291.020,122.060 291.524,121.400 291.804 C 120.740 292.084,119.160 292.783,117.888 293.357 C 116.617 293.931,115.496 294.400,115.398 294.400 C 115.300 294.400,114.091 294.908,112.710 295.530 C 111.330 296.151,109.570 296.900,108.800 297.194 C 108.030 297.488,107.229 297.879,107.020 298.064 C 106.278 298.720,105.754 298.381,105.224 296.900 C 104.929 296.075,104.173 294.270,103.544 292.890 C 102.915 291.509,102.400 290.300,102.400 290.202 C 102.400 290.104,101.969 289.073,101.442 287.912 C 100.916 286.750,99.098 282.560,97.403 278.600 C 95.708 274.640,93.889 270.450,93.361 269.288 C 92.832 268.127,92.400 267.096,92.400 266.998 C 92.400 266.900,91.860 265.641,91.200 264.200 C 90.540 262.759,90.000 261.499,90.000 261.400 C 90.000 261.301,89.460 260.041,88.800 258.600 C 88.140 257.159,87.600 255.899,87.600 255.800 C 87.600 255.701,87.060 254.441,86.400 253.000 C 85.740 251.559,85.200 250.289,85.200 250.179 C 85.200 250.068,84.591 248.677,83.848 247.089 C 83.104 245.500,82.218 243.570,81.878 242.800 C 81.538 242.030,80.629 240.005,79.856 238.300 L 78.452 235.200 72.826 235.200 C 69.457 235.200,67.200 235.356,67.200 235.588 M78.764 237.700 C 79.071 238.415,79.670 239.810,80.094 240.800 C 80.518 241.790,81.031 242.913,81.233 243.295 C 81.435 243.677,81.600 244.205,81.600 244.469 C 81.600 244.733,81.940 245.320,82.356 245.774 C 82.772 246.228,84.138 249.030,85.391 252.000 C 87.895 257.933,88.531 259.414,89.600 261.800 C 89.994 262.680,90.606 264.075,90.958 264.900 C 91.311 265.725,91.889 267.075,92.242 267.900 C 92.594 268.725,93.247 270.210,93.692 271.200 C 94.137 272.190,94.640 273.360,94.810 273.800 C 95.167 274.725,95.980 276.638,97.107 279.200 C 97.543 280.190,99.576 284.934,101.627 289.742 C 105.827 299.592,105.549 299.284,108.914 297.800 C 110.281 297.197,111.985 296.455,112.700 296.152 C 113.415 295.848,114.630 295.330,115.400 295.000 C 116.170 294.670,117.475 294.111,118.300 293.758 C 119.125 293.406,120.520 292.794,121.400 292.400 C 122.280 292.006,123.630 291.416,124.400 291.089 C 125.170 290.762,126.475 290.204,127.300 289.847 C 128.125 289.491,129.385 288.949,130.100 288.643 C 130.815 288.337,132.440 287.617,133.712 287.043 C 134.983 286.469,136.103 286.000,136.200 286.000 C 136.297 286.000,137.327 285.568,138.488 285.041 C 139.650 284.513,141.770 283.595,143.200 283.000 C 144.630 282.405,146.750 281.487,147.912 280.959 C 149.073 280.432,150.103 280.000,150.200 280.000 C 150.297 280.000,151.417 279.531,152.688 278.957 C 153.960 278.383,155.630 277.644,156.400 277.315 C 157.170 276.986,158.610 276.353,159.600 275.908 C 160.590 275.463,161.760 274.964,162.200 274.800 C 162.640 274.636,163.810 274.137,164.800 273.691 C 168.884 271.854,170.401 271.200,170.584 271.200 C 170.690 271.200,171.727 270.769,172.888 270.242 C 174.050 269.716,178.240 267.899,182.200 266.205 C 186.160 264.512,189.985 262.873,190.700 262.563 C 191.415 262.253,192.585 261.751,193.300 261.447 C 196.748 259.982,197.989 259.438,203.100 257.149 C 204.145 256.681,205.360 256.164,205.800 256.000 C 206.240 255.836,207.410 255.337,208.400 254.891 C 212.484 253.054,214.001 252.400,214.184 252.400 C 214.290 252.400,215.327 251.971,216.488 251.446 C 219.402 250.130,227.897 246.608,229.600 246.010 C 231.344 245.399,232.791 244.813,233.695 244.353 C 234.077 244.159,234.662 244.000,234.995 244.000 C 235.328 244.000,235.600 243.820,235.600 243.600 C 235.600 243.380,235.949 243.200,236.376 243.200 C 236.803 243.200,237.264 243.020,237.400 242.800 C 237.536 242.580,237.997 242.400,238.424 242.400 C 238.851 242.400,239.200 242.220,239.200 242.000 C 239.200 241.780,239.472 241.600,239.805 241.600 C 240.138 241.600,240.768 241.420,241.205 241.200 C 241.642 240.980,242.358 240.620,242.795 240.400 C 243.232 240.180,243.767 240.000,243.984 240.000 C 244.201 240.000,245.328 239.571,246.489 239.046 C 252.964 236.119,251.098 236.377,264.908 236.494 C 271.938 236.554,277.050 236.744,276.600 236.929 C 276.160 237.110,275.487 237.425,275.105 237.629 C 274.723 237.833,274.138 238.000,273.805 238.000 C 273.472 238.000,273.200 238.180,273.200 238.400 C 273.200 238.620,272.928 238.800,272.595 238.800 C 272.007 238.800,271.582 238.967,269.705 239.938 C 269.213 240.192,268.538 240.400,268.205 240.400 C 267.872 240.400,267.600 240.580,267.600 240.800 C 267.600 241.020,267.328 241.200,266.995 241.200 C 266.662 241.200,266.077 241.365,265.695 241.566 C 264.549 242.171,262.124 243.192,260.338 243.822 C 257.955 244.663,255.200 246.083,255.200 246.471 C 255.200 246.652,254.958 246.800,254.661 246.800 C 254.365 246.800,253.600 247.055,252.961 247.366 C 252.323 247.678,248.740 249.216,245.000 250.785 C 241.260 252.353,237.615 253.898,236.900 254.218 C 235.525 254.833,233.453 255.732,231.300 256.647 C 230.585 256.951,229.325 257.488,228.500 257.841 C 227.675 258.193,226.640 258.620,226.200 258.790 C 225.760 258.960,224.500 259.504,223.400 260.000 C 222.300 260.496,221.040 261.040,220.600 261.210 C 219.420 261.665,217.299 262.579,214.688 263.757 C 213.417 264.331,212.290 264.800,212.184 264.800 C 212.078 264.800,211.228 265.147,210.296 265.571 C 209.363 265.996,205.540 267.632,201.800 269.207 C 198.060 270.782,194.415 272.325,193.700 272.635 C 192.985 272.946,191.770 273.470,191.000 273.800 C 190.230 274.130,188.970 274.670,188.200 275.000 C 187.430 275.330,186.170 275.870,185.400 276.200 C 184.630 276.530,183.370 277.070,182.600 277.400 C 181.830 277.730,180.570 278.270,179.800 278.600 C 179.030 278.930,177.770 279.470,177.000 279.800 C 174.813 280.737,173.453 281.313,166.600 284.199 C 163.080 285.682,159.250 287.324,158.088 287.848 C 156.927 288.371,155.890 288.800,155.784 288.800 C 155.601 288.800,154.084 289.454,150.000 291.291 C 149.010 291.737,147.840 292.236,147.400 292.400 C 146.960 292.564,145.700 293.104,144.600 293.600 C 143.500 294.096,142.240 294.641,141.800 294.811 C 141.360 294.981,140.147 295.498,139.104 295.960 C 138.062 296.422,137.122 296.800,137.016 296.800 C 136.910 296.800,135.873 297.227,134.712 297.749 C 133.550 298.271,129.720 299.913,126.200 301.397 C 122.680 302.881,118.850 304.524,117.688 305.048 C 116.527 305.571,115.490 306.000,115.384 306.000 C 115.201 306.000,113.684 306.654,109.600 308.491 C 108.610 308.937,107.440 309.440,107.000 309.610 C 105.747 310.093,103.114 311.232,101.839 311.844 C 100.149 312.653,100.244 312.751,98.406 308.300 C 97.475 306.045,96.283 303.250,95.757 302.088 C 95.231 300.927,94.800 299.890,94.800 299.784 C 94.800 299.601,94.146 298.084,92.309 294.000 C 91.863 293.010,91.360 291.840,91.190 291.400 C 91.020 290.960,90.593 289.925,90.241 289.100 C 89.888 288.275,89.351 287.015,89.047 286.300 C 88.742 285.585,88.112 284.147,87.647 283.104 C 87.181 282.062,86.800 281.121,86.800 281.014 C 86.800 280.907,86.260 279.641,85.600 278.200 C 84.940 276.759,84.400 275.513,84.400 275.431 C 84.400 275.233,78.576 261.454,77.583 259.304 C 77.152 258.372,76.800 257.515,76.800 257.400 C 76.800 257.203,76.173 255.744,74.309 251.600 C 73.863 250.610,73.317 249.350,73.096 248.800 C 72.874 248.250,72.516 247.412,72.299 246.938 C 72.083 246.464,72.002 245.920,72.120 245.729 C 72.238 245.538,71.809 244.310,71.167 243.001 C 70.525 241.692,70.000 240.472,70.000 240.291 C 70.000 240.110,69.640 239.216,69.200 238.306 C 68.760 237.395,68.400 236.594,68.400 236.525 C 68.400 236.456,70.606 236.400,73.302 236.400 L 78.205 236.400 78.764 237.700 " stroke="none" fill="#faa763" fill-rule="evenodd"></path><path id="path4" d="M193.200 113.621 C 192.132 113.830,192.503 113.907,194.767 113.947 C 196.398 113.976,197.658 113.935,197.567 113.857 C 197.170 113.515,194.484 113.370,193.200 113.621 M188.400 114.400 C 187.642 114.890,188.870 114.890,190.400 114.400 C 191.380 114.086,191.376 114.079,190.200 114.046 C 189.540 114.027,188.730 114.187,188.400 114.400 M198.800 114.276 C 203.160 115.005,207.294 117.353,210.187 120.741 C 212.486 123.434,212.479 123.485,209.529 125.400 C 205.926 127.740,206.073 127.740,203.555 125.416 C 200.683 122.765,197.926 121.812,193.954 122.096 C 177.198 123.295,176.104 148.747,192.667 152.006 C 198.314 153.117,205.600 149.297,205.600 145.226 C 205.600 144.772,205.806 144.400,206.057 144.400 C 206.416 144.400,211.234 147.216,211.965 147.853 C 212.672 148.469,208.883 152.895,205.872 154.968 C 195.852 161.869,180.372 157.913,175.285 147.153 C 173.054 142.434,172.048 134.986,173.153 131.360 C 173.348 130.722,173.744 129.390,174.035 128.400 C 175.522 123.334,179.914 118.257,184.540 116.254 C 185.233 115.954,186.250 115.516,186.800 115.281 C 187.581 114.948,187.637 114.848,187.058 114.827 C 183.960 114.714,176.571 120.964,174.658 125.316 C 172.762 129.630,172.333 131.928,172.514 136.800 C 172.721 142.385,172.832 142.926,174.570 146.884 C 176.798 151.956,184.194 158.000,188.172 158.000 C 188.711 158.000,189.264 158.180,189.400 158.400 C 189.543 158.632,191.730 158.800,194.600 158.800 C 197.470 158.800,199.657 158.632,199.800 158.400 C 199.936 158.180,200.301 158.000,200.612 158.000 C 203.275 158.000,210.379 152.562,212.228 149.108 C 212.814 148.012,210.167 145.243,208.500 145.210 C 208.225 145.204,208.000 145.049,208.000 144.864 C 208.000 144.394,206.019 143.541,205.570 143.819 C 205.367 143.944,205.200 144.460,205.200 144.964 C 205.200 149.381,197.160 152.882,191.046 151.128 C 178.961 147.659,177.845 129.030,189.400 123.635 C 193.906 121.532,200.230 122.567,203.352 125.919 C 205.361 128.075,207.866 128.253,208.733 126.300 C 208.807 126.135,209.036 126.000,209.242 126.000 C 210.644 126.000,212.738 123.889,212.354 122.863 C 211.016 119.291,202.844 113.904,199.000 114.060 C 197.934 114.104,197.911 114.128,198.800 114.276 M121.443 115.833 C 121.000 116.986,121.181 122.221,121.680 122.720 C 122.005 123.045,123.868 123.200,127.447 123.200 C 130.355 123.200,133.019 123.309,133.367 123.443 C 133.931 123.659,134.000 125.633,134.000 141.600 C 134.000 157.567,134.069 159.541,134.633 159.757 C 135.554 160.111,141.713 160.043,142.296 159.673 C 142.676 159.432,142.816 155.152,142.896 141.379 L 143.000 123.400 149.172 123.289 C 152.892 123.222,155.554 123.004,155.872 122.740 C 156.562 122.168,156.601 116.361,155.920 115.680 C 155.096 114.856,121.761 115.003,121.443 115.833 M159.079 115.454 C 158.553 115.980,158.749 158.989,159.280 159.520 C 159.938 160.178,166.426 160.162,167.328 159.500 C 167.957 159.038,168.001 157.339,167.904 137.200 L 167.800 115.400 163.579 115.287 C 161.258 115.225,159.233 115.300,159.079 115.454 M214.800 137.379 L 214.800 159.585 215.700 159.810 C 216.195 159.935,218.130 159.983,220.000 159.918 L 223.400 159.800 223.509 152.216 C 223.612 145.084,223.670 144.578,224.479 143.716 C 225.770 142.342,225.780 142.350,231.800 149.474 C 234.880 153.119,238.224 156.978,239.230 158.050 L 241.060 160.000 245.707 160.000 C 251.147 160.000,251.366 159.836,249.325 157.301 C 247.768 155.366,244.173 151.002,242.648 149.196 C 242.181 148.644,240.992 147.204,240.005 145.996 C 239.019 144.788,238.117 143.710,238.003 143.600 C 237.889 143.490,237.304 142.741,236.704 141.935 C 236.103 141.129,235.378 140.229,235.092 139.935 C 233.900 138.711,232.334 136.400,232.462 136.053 C 232.591 135.705,238.011 129.343,239.800 127.439 C 240.240 126.971,241.770 125.241,243.200 123.594 C 244.629 121.947,245.889 120.510,246.000 120.400 C 250.883 115.527,250.773 115.200,244.252 115.200 L 238.904 115.200 234.563 120.300 C 232.175 123.105,230.122 125.490,230.000 125.600 C 229.879 125.710,228.794 126.963,227.590 128.385 C 226.385 129.806,224.999 131.386,224.508 131.895 L 223.616 132.821 223.508 124.110 L 223.400 115.400 219.100 115.286 L 214.800 115.173 214.800 137.379 M253.045 115.828 C 252.298 117.773,252.799 159.171,253.574 159.586 C 254.406 160.031,281.037 160.191,282.167 159.757 C 283.100 159.399,283.100 152.201,282.167 151.843 C 281.819 151.709,276.959 151.600,271.367 151.600 L 261.200 151.600 261.200 146.207 L 261.200 140.813 271.900 140.707 L 282.600 140.600 282.714 136.700 L 282.829 132.800 272.014 132.800 L 261.200 132.800 261.200 128.007 L 261.200 123.213 271.900 123.107 L 282.600 123.000 282.600 119.200 L 282.600 115.400 267.945 115.295 C 254.841 115.201,253.263 115.258,253.045 115.828 M285.772 115.729 C 285.658 116.025,285.618 117.782,285.683 119.633 L 285.800 123.000 292.300 123.110 L 298.800 123.220 298.800 141.130 C 298.800 161.592,298.470 160.000,302.706 160.000 C 307.664 160.000,307.200 161.941,307.200 141.196 L 307.200 123.220 313.700 123.110 L 320.200 123.000 320.200 119.200 L 320.200 115.400 303.089 115.296 C 289.057 115.210,285.941 115.288,285.772 115.729 M155.400 119.200 L 155.400 122.600 148.900 122.710 L 142.400 122.820 142.400 141.010 L 142.400 159.200 138.404 159.200 L 134.408 159.200 134.304 141.100 L 134.200 123.000 128.100 122.890 L 122.000 122.779 122.000 119.185 L 122.000 115.591 138.700 115.696 L 155.400 115.800 155.400 119.200 M167.200 137.400 L 167.200 159.200 163.400 159.200 L 159.600 159.200 159.600 137.400 L 159.600 115.600 163.400 115.600 L 167.200 115.600 167.200 137.400 M223.200 124.376 C 223.200 129.203,223.337 133.238,223.505 133.341 C 223.673 133.445,225.296 131.777,227.110 129.635 C 228.925 127.493,230.723 125.392,231.105 124.966 C 231.487 124.540,232.970 122.847,234.400 121.202 C 235.830 119.558,237.524 117.625,238.164 116.906 L 239.329 115.600 244.264 115.600 C 246.979 115.600,249.200 115.711,249.200 115.846 C 249.200 116.058,244.094 121.965,239.558 126.999 C 230.818 136.700,231.137 136.062,233.607 138.931 C 234.276 139.707,237.911 144.131,245.332 153.200 C 246.682 154.850,248.119 156.560,248.526 157.000 C 250.506 159.142,250.425 159.200,245.447 159.200 L 240.866 159.200 238.533 156.534 C 234.297 151.694,232.634 149.774,229.466 146.067 C 225.998 142.008,225.812 141.917,224.275 143.522 L 223.200 144.644 223.200 151.922 L 223.200 159.200 219.200 159.200 L 215.200 159.200 215.200 137.400 L 215.200 115.600 219.200 115.600 L 223.200 115.600 223.200 124.376 M282.318 118.965 C 282.470 123.044,283.226 122.787,271.088 122.794 L 260.776 122.800 260.888 127.900 L 261.000 133.000 271.600 133.200 L 282.200 133.400 282.321 135.988 C 282.388 137.411,282.340 138.986,282.214 139.488 L 281.985 140.400 271.382 140.400 L 260.779 140.400 260.889 146.300 L 261.000 152.200 271.600 152.400 L 282.200 152.600 282.316 155.900 L 282.432 159.200 268.016 159.200 L 253.600 159.200 253.600 137.667 C 253.600 125.823,253.722 116.011,253.872 115.862 C 254.021 115.712,260.456 115.637,268.172 115.695 L 282.200 115.800 282.318 118.965 M319.516 119.100 L 319.400 122.600 313.000 122.800 L 306.600 123.000 306.496 141.100 L 306.392 159.200 302.796 159.200 L 299.200 159.200 299.200 141.010 L 299.200 122.820 292.700 122.710 L 286.200 122.600 286.084 119.100 L 285.969 115.600 302.800 115.600 L 319.631 115.600 319.516 119.100 M113.200 235.739 C 113.200 236.035,113.450 236.800,113.756 237.439 C 114.062 238.077,114.581 239.230,114.910 240.000 C 115.238 240.770,115.888 242.253,116.353 243.296 C 116.819 244.338,117.200 245.285,117.200 245.399 C 117.200 245.623,120.804 254.304,122.057 257.099 C 122.476 258.033,122.992 259.253,123.203 259.809 C 123.786 261.341,124.543 261.401,128.223 260.204 C 132.245 258.896,132.206 259.034,129.988 253.918 C 129.101 251.873,128.224 249.840,128.039 249.400 C 127.853 248.960,127.337 247.790,126.892 246.800 C 126.447 245.810,125.794 244.325,125.442 243.500 C 124.534 241.379,123.818 239.718,122.769 237.300 L 121.857 235.200 117.529 235.200 C 114.167 235.200,113.200 235.320,113.200 235.739 M139.600 235.738 C 139.600 236.421,141.249 240.461,143.038 244.161 C 143.347 244.800,143.600 245.477,143.600 245.666 C 143.600 245.854,143.981 246.862,144.447 247.904 C 144.912 248.947,145.551 250.385,145.865 251.100 C 146.607 252.784,146.499 252.800,152.325 250.153 C 154.871 248.997,154.902 249.561,151.914 242.800 C 151.379 241.590,150.695 239.970,150.393 239.200 C 150.091 238.430,149.549 237.260,149.189 236.600 L 148.533 235.400 144.066 235.287 C 140.435 235.195,139.600 235.279,139.600 235.738 M156.400 235.538 C 156.400 238.462,169.893 242.015,175.040 240.447 C 175.678 240.252,177.010 239.853,178.000 239.560 C 180.997 238.673,185.200 236.332,185.200 235.551 C 185.200 235.356,178.794 235.200,170.800 235.200 C 162.880 235.200,156.400 235.352,156.400 235.538 M122.154 237.400 C 122.509 238.170,123.089 239.475,123.442 240.300 C 124.162 241.983,125.041 243.957,126.514 247.200 C 127.788 250.004,129.379 253.677,130.571 256.571 C 131.365 258.498,131.226 258.658,127.716 259.854 C 124.179 261.059,124.270 261.075,123.439 259.100 C 123.045 258.165,122.380 256.637,121.962 255.704 C 121.543 254.772,121.200 253.921,121.200 253.814 C 121.200 253.707,120.682 252.488,120.048 251.105 C 119.415 249.722,118.619 247.782,118.281 246.795 C 117.942 245.808,116.840 243.076,115.833 240.725 C 114.825 238.374,114.000 236.349,114.000 236.225 C 114.000 236.101,115.689 236.000,117.754 236.000 L 121.509 236.000 122.154 237.400 M150.375 240.600 C 151.387 243.020,152.437 245.393,152.707 245.873 C 154.278 248.659,154.260 248.702,150.945 250.212 C 146.718 252.139,146.768 252.155,145.226 248.300 C 144.500 246.485,143.658 244.415,143.353 243.700 C 143.049 242.985,142.551 241.815,142.247 241.100 C 141.273 238.808,140.299 236.609,140.115 236.286 C 140.016 236.114,141.870 236.024,144.235 236.086 L 148.535 236.200 150.375 240.600 M184.000 236.140 C 184.000 237.224,173.893 240.400,170.443 240.400 C 166.607 240.400,158.000 237.575,158.000 236.316 C 158.000 236.142,163.850 236.000,171.000 236.000 C 178.150 236.000,184.000 236.063,184.000 236.140 " stroke="none" fill="#faa898" fill-rule="evenodd"></path></g></svg>
