<?xml version="1.0" encoding="UTF-8"?>
<!DOCTYPE svg PUBLIC "-//W3C//DTD SVG 1.1//EN" "http://www.w3.org/Graphics/SVG/1.1/DTD/svg11.dtd">
<svg xmlns="http://www.w3.org/2000/svg" version="1.1" width="120px" height="120px" style="shape-rendering:geometricPrecision; text-rendering:geometricPrecision; image-rendering:optimizeQuality; fill-rule:evenodd; clip-rule:evenodd" xmlns:xlink="http://www.w3.org/1999/xlink">
<g><path style="opacity:0.996" fill="#fdfdfe" d="M 4.5,-0.5 C 40.8333,-0.5 77.1667,-0.5 113.5,-0.5C 115.475,1.13696 117.475,2.80363 119.5,4.5C 119.5,40.8333 119.5,77.1667 119.5,113.5C 117.863,115.475 116.196,117.475 114.5,119.5C 78.1667,119.5 41.8333,119.5 5.5,119.5C 3.52483,117.863 1.52483,116.196 -0.5,114.5C -0.5,78.1667 -0.5,41.8333 -0.5,5.5C 1.13696,3.52483 2.80363,1.52483 4.5,-0.5 Z"/></g>
<g><path style="opacity:1" fill="#353593" d="M 54.5,9.5 C 84.6567,9.62625 102.823,24.2929 109,53.5C 110.519,82.964 97.0185,101.464 68.5,109C 42.6878,112.196 24.1878,102.03 13,78.5C 4.66653,52.8336 11.4999,32.3336 33.5,17C 40.1618,13.171 47.1618,10.671 54.5,9.5 Z"/></g>
<g><path style="opacity:1" fill="#b3b8d8" d="M 95.5,73.5 C 97.0174,73.5106 98.1841,74.1772 99,75.5C 100.131,74.3961 100.965,74.7295 101.5,76.5C 99.5988,77.2309 97.5988,77.2309 95.5,76.5C 95.5,75.5 95.5,74.5 95.5,73.5 Z"/></g>
<g><path style="opacity:1" fill="#b5b7d5" d="M 97.5,67.5 C 100.355,66.1968 103.355,66.1968 106.5,67.5C 107.911,69.0175 107.744,70.3508 106,71.5C 105.667,70.5 105.333,69.5 105,68.5C 103.983,70.3759 103.149,72.3759 102.5,74.5C 100.459,73.7643 98.4595,72.9309 96.5,72C 97.448,71.5172 98.448,71.3505 99.5,71.5C 99.33,70.1779 99.6634,69.0113 100.5,68C 99.552,67.5172 98.552,67.3505 97.5,67.5 Z"/></g>
<g><path style="opacity:1" fill="#e8292d" d="M 64.5,56.5 C 63.6274,60.7685 63.2941,65.1018 63.5,69.5C 65.5273,69.3379 67.5273,69.5045 69.5,70C 69.9574,70.414 70.2907,70.914 70.5,71.5C 67.3333,76.5 64.1667,81.5 61,86.5C 61.0172,82.5246 61.1839,78.5246 61.5,74.5C 58.4281,74.8174 55.4281,74.4841 52.5,73.5C 56.097,67.9703 59.4303,62.3036 62.5,56.5C 63.5477,54.0673 64.2144,54.0673 64.5,56.5 Z"/></g>
<g><path style="opacity:1" fill="#e82b2d" d="M 81.5,55.5 C 80.5975,58.3915 80.2641,61.3915 80.5,64.5C 83.2469,64.1866 85.9135,64.52 88.5,65.5C 85.1982,71.2991 81.6982,76.9657 78,82.5C 77.3287,78.3643 77.8287,74.3643 79.5,70.5C 76.5719,69.5159 73.5719,69.1826 70.5,69.5C 72.7573,64.8768 75.0907,60.2101 77.5,55.5C 80.149,49.399 81.4824,49.399 81.5,55.5 Z"/></g>
<g><path style="opacity:1" fill="#9397bf" d="M 40.5,49.5 C 40.8229,55.69 40.4896,61.69 39.5,67.5C 39.5,61.8333 39.5,56.1667 39.5,50.5C 35.8284,49.9553 36.1617,49.6219 40.5,49.5 Z"/></g>
<g><path style="opacity:1" fill="#b6b9d7" d="M 14.5,58.5 C 16.3307,59.0522 17.9974,59.0522 19.5,58.5C 20.4287,59.6888 20.762,61.0222 20.5,62.5C 15.5325,62.8659 15.8658,63.3659 21.5,64C 20.1667,64.6667 20.1667,65.3333 21.5,66C 19.9984,66.5831 18.6651,67.4164 17.5,68.5C 19.0436,69.6224 20.377,69.289 21.5,67.5C 22.5937,68.868 22.2603,70.0347 20.5,71C 21.448,71.4828 22.448,71.6495 23.5,71.5C 23.4312,74.0842 22.2645,76.0842 20,77.5C 16.3921,73.9451 14.7254,69.6117 15,64.5C 14.2496,63.8742 13.4162,63.3742 12.5,63C 13.2666,61.5295 13.9332,60.0295 14.5,58.5 Z"/></g>
<g><path style="opacity:1" fill="#a7a8ce" d="M 92.5,34.5 C 94.4888,33.1134 96.3221,33.4468 98,35.5C 102.306,41.7058 104.472,48.3725 104.5,55.5C 105.698,55.9396 106.865,56.273 108,56.5C 108.825,58.7008 108.325,60.5341 106.5,62C 103.833,62.6667 101.167,62.6667 98.5,62C 105.167,61.3333 105.167,60.6667 98.5,60C 100.107,58.951 100.773,57.451 100.5,55.5C 96.551,55.3068 96.551,54.8068 100.5,54C 96.7279,53.3893 96.7279,52.3893 100.5,51C 99.7511,49.2663 99.2511,47.433 99,45.5C 97.6012,44.7734 96.1012,44.2734 94.5,44C 97.0278,43.3311 97.0278,42.4978 94.5,41.5C 93.5481,39.9547 93.2148,38.288 93.5,36.5C 97.139,35.7325 96.8057,35.0658 92.5,34.5 Z"/></g>
<g><path style="opacity:1" fill="#fbf8f8" d="M 44.5,52.5 C 47.3033,53.9279 50.3033,54.5946 53.5,54.5C 56.2186,55.913 59.2186,56.5797 62.5,56.5C 59.4303,62.3036 56.097,67.9703 52.5,73.5C 55.4281,74.4841 58.4281,74.8174 61.5,74.5C 61.1839,78.5246 61.0172,82.5246 61,86.5C 64.1667,81.5 67.3333,76.5 70.5,71.5C 70.2907,70.914 69.9574,70.414 69.5,70C 67.5273,69.5045 65.5273,69.3379 63.5,69.5C 63.2941,65.1018 63.6274,60.7685 64.5,56.5C 68.7853,55.7051 73.1186,55.3718 77.5,55.5C 75.0907,60.2101 72.7573,64.8768 70.5,69.5C 73.5719,69.1826 76.5719,69.5159 79.5,70.5C 77.8287,74.3643 77.3287,78.3643 78,82.5C 81.6982,76.9657 85.1982,71.2991 88.5,65.5C 85.9135,64.52 83.2469,64.1866 80.5,64.5C 80.2641,61.3915 80.5975,58.3915 81.5,55.5C 85.4659,56.1621 89.4659,56.4955 93.5,56.5C 92.6537,83.5054 78.6537,96.0054 51.5,94C 49.5643,93.187 47.5643,92.687 45.5,92.5C 44.7862,79.1788 44.4528,65.8454 44.5,52.5 Z"/></g>
<g><path style="opacity:1" fill="#a7b4ce" d="M 44.5,45.5 C 53.9765,47.9606 63.6432,48.9606 73.5,48.5C 79.8725,48.496 85.8725,47.8293 91.5,46.5C 93.0114,49.5443 93.678,52.8776 93.5,56.5C 89.4659,56.4955 85.4659,56.1621 81.5,55.5C 81.4824,49.399 80.149,49.399 77.5,55.5C 73.1186,55.3718 68.7853,55.7051 64.5,56.5C 64.2144,54.0673 63.5477,54.0673 62.5,56.5C 59.2186,56.5797 56.2186,55.913 53.5,54.5C 50.3033,54.5946 47.3033,53.9279 44.5,52.5C 44.5,50.1667 44.5,47.8333 44.5,45.5 Z"/></g>
<g><path style="opacity:1" fill="#d6e1ed" d="M 53.5,54.5 C 52.7375,53.7321 51.7375,53.2321 50.5,53C 54.5,52.3333 54.5,51.6667 50.5,51C 54.5,50.3333 54.5,49.6667 50.5,49C 53.5147,48.7991 56.5147,49.1324 59.5,50C 55.1482,50.4189 54.8149,51.0855 58.5,52C 53.1667,52.6667 53.1667,53.3333 58.5,54C 56.8659,54.4935 55.1992,54.6602 53.5,54.5 Z"/></g>
<g><path style="opacity:1" fill="#f9f9fb" d="M 40.5,48.5 C 40.5,48.8333 40.5,49.1667 40.5,49.5C 36.1617,49.6219 35.8284,49.9553 39.5,50.5C 39.5,56.1667 39.5,61.8333 39.5,67.5C 39.7691,73.9398 39.1024,80.2732 37.5,86.5C 26.5895,77.0339 22.9228,65.3672 26.5,51.5C 28.854,51.162 31.1873,50.662 33.5,50C 32.1667,49.6667 30.8333,49.3333 29.5,49C 31.556,48.6892 33.556,48.1892 35.5,47.5C 37.0709,48.3094 38.7376,48.6427 40.5,48.5 Z"/></g>
<g><path style="opacity:1" fill="#92a4c5" d="M 40.5,42.5 C 40.5,44.5 40.5,46.5 40.5,48.5C 38.7376,48.6427 37.0709,48.3094 35.5,47.5C 33.556,48.1892 31.556,48.6892 29.5,49C 30.8333,49.3333 32.1667,49.6667 33.5,50C 31.1873,50.662 28.854,51.162 26.5,51.5C 26.9267,48.9902 27.5933,46.6568 28.5,44.5C 29.2625,45.2679 30.2625,45.7679 31.5,46C 30.5,46.3333 29.5,46.6667 28.5,47C 31.5147,47.2009 34.5147,46.8676 37.5,46C 32.1667,45.3333 32.1667,44.6667 37.5,44C 36.1667,43.6667 34.8333,43.3333 33.5,43C 35.8098,42.5034 38.1432,42.3367 40.5,42.5 Z"/></g>
<g><path style="opacity:1" fill="#adb0d3" d="M 21.5,36.5 C 22.64,37.8014 23.9733,38.9681 25.5,40C 24.1666,42.0095 22.5,43.6761 20.5,45C 21.6226,46.0437 22.9559,46.7104 24.5,47C 21.8553,49.0832 21.1887,51.5832 22.5,54.5C 20.4727,54.6621 18.4727,54.4955 16.5,54C 15.7453,50.1283 16.2453,46.295 18,42.5C 19.4307,40.6365 20.5974,38.6365 21.5,36.5 Z"/></g>
<g><path style="opacity:1" fill="#3a3792" d="M 17.5,51.5 C 18.675,51.281 19.675,51.6143 20.5,52.5C 18.9483,53.7979 17.9483,53.4646 17.5,51.5 Z"/></g>
<g><path style="opacity:1" fill="#b5badc" d="M 92.5,34.5 C 92.121,35.8062 91.7876,37.1395 91.5,38.5C 91.1667,37.8333 90.8333,37.1667 90.5,36.5C 90.7472,35.2867 91.4138,34.62 92.5,34.5 Z"/></g>
<g><path style="opacity:1" fill="#f6f9f9" d="M 56.5,25.5 C 57.0717,28.2436 58.7383,29.0769 61.5,28C 60.7476,27.3292 60.4142,26.4959 60.5,25.5C 74.895,26.5701 85.2283,33.5701 91.5,46.5C 85.8725,47.8293 79.8725,48.496 73.5,48.5C 63.6432,48.9606 53.9765,47.9606 44.5,45.5C 44.7839,42.2234 44.4505,39.0567 43.5,36C 42.5509,35.3828 41.7175,35.5494 41,36.5C 40.5045,38.4727 40.3379,40.4727 40.5,42.5C 38.1432,42.3367 35.8098,42.5034 33.5,43C 34.8333,43.3333 36.1667,43.6667 37.5,44C 32.1667,44.6667 32.1667,45.3333 37.5,46C 34.5147,46.8676 31.5147,47.2009 28.5,47C 29.5,46.6667 30.5,46.3333 31.5,46C 30.2625,45.7679 29.2625,45.2679 28.5,44.5C 32.3506,36.844 38.6839,31.0106 47.5,27C 50.4318,26.0467 53.4318,25.5467 56.5,25.5 Z"/></g>
<g><path style="opacity:1" fill="#46a277" d="M 56.5,25.5 C 57.8333,25.5 59.1667,25.5 60.5,25.5C 60.4142,26.4959 60.7476,27.3292 61.5,28C 58.7383,29.0769 57.0717,28.2436 56.5,25.5 Z"/></g>
<g><path style="opacity:1" fill="#aeb1d4" d="M 42.5,18.5 C 42.9175,19.2216 43.5842,19.7216 44.5,20C 43.3157,21.1455 43.3157,22.3121 44.5,23.5C 43.7321,24.2625 43.2321,25.2625 43,26.5C 42.2515,24.6675 41.2515,23.0009 40,21.5C 39.7351,23.1626 40.2351,24.6626 41.5,26C 39.2733,27.8355 37.4399,27.3355 36,24.5C 35.3828,25.4491 35.5494,26.2825 36.5,27C 32.5,27.6667 32.5,28.3333 36.5,29C 34.8333,29.3333 33.1667,29.6667 31.5,30C 33.0074,30.8373 33.5074,32.0039 33,33.5C 31.6667,32.1667 30.3333,30.8333 29,29.5C 28.3828,30.4491 28.5494,31.2825 29.5,32C 28.3379,32.8271 27.1712,33.6604 26,34.5C 25.5,34.1667 25,33.8333 24.5,33.5C 29.5113,26.7782 35.5113,21.7782 42.5,18.5 Z"/></g>
<g><path style="opacity:1" fill="#afb1d2" d="M 68.5,14.5 C 70.3138,14.7721 72.3138,14.9387 74.5,15C 70.7771,15.4342 70.6105,16.2676 74,17.5C 75.6458,15.8592 76.6458,16.1925 77,18.5C 77.3076,17.6919 77.8076,17.0253 78.5,16.5C 81.0237,18.1901 83.0237,20.3568 84.5,23C 87.7508,24.0977 90.4175,26.0977 92.5,29C 90.714,29.7845 89.214,30.9512 88,32.5C 86.9606,29.1232 85.4606,28.4565 83.5,30.5C 82.548,29.467 82.548,28.3004 83.5,27C 83,25.5 82.5,24 82,22.5C 78.3945,28.0454 76.3945,27.3788 76,20.5C 74.7419,25.7196 73.2419,25.7196 71.5,20.5C 72.376,19.7492 73.376,19.2492 74.5,19C 72.7818,18.654 71.1151,18.154 69.5,17.5C 68.3861,18.723 68.2195,20.0563 69,21.5C 69.763,18.9365 70.263,18.9365 70.5,21.5C 68.772,25.176 66.4386,25.5094 63.5,22.5C 62.5748,21.6431 61.9081,20.6431 61.5,19.5C 62.9217,19.2914 64.255,18.7914 65.5,18C 64.8333,17.6667 64.1667,17.3333 63.5,17C 65.3146,16.2432 66.9812,15.4098 68.5,14.5 Z"/></g>
<g><path style="opacity:1" fill="#babdda" d="M 44.5,23.5 C 43.3157,22.3121 43.3157,21.1455 44.5,20C 43.5842,19.7216 42.9175,19.2216 42.5,18.5C 46.3547,17.4718 47.8547,19.1385 47,23.5C 46.0228,24.7736 45.1894,24.7736 44.5,23.5 Z"/></g>
<g><path style="opacity:1" fill="#7371ae" d="M 61.5,19.5 C 60.7321,20.2625 60.2321,21.2625 60,22.5C 59.3292,21.7476 58.4959,21.4142 57.5,21.5C 57.7733,19.549 57.1066,18.049 55.5,17C 57.5,16.3333 59.5,16.3333 61.5,17C 62.5981,17.7697 62.5981,18.603 61.5,19.5 Z"/></g>
<g><path style="opacity:1" fill="#d4d8ec" d="M 68.5,14.5 C 66.9812,15.4098 65.3146,16.2432 63.5,17C 64.1667,17.3333 64.8333,17.6667 65.5,18C 64.255,18.7914 62.9217,19.2914 61.5,19.5C 62.5981,18.603 62.5981,17.7697 61.5,17C 59.5,16.3333 57.5,16.3333 55.5,17C 57.1066,18.049 57.7733,19.549 57.5,21.5C 56.5,21.5 55.5,21.5 54.5,21.5C 54.9175,20.7784 55.5842,20.2784 56.5,20C 54.8834,18.9085 53.8834,17.4085 53.5,15.5C 56.513,15.6283 59.013,14.6283 61,12.5C 61.5,12.6667 62,12.8333 62.5,13C 61.3279,13.4186 60.3279,14.0853 59.5,15C 61.1667,15.6667 62.8333,15.6667 64.5,15C 63.3044,14.3457 63.3044,13.8457 64.5,13.5C 65.7362,14.2458 67.0695,14.5792 68.5,14.5 Z"/></g>
<g><path style="opacity:1" fill="#a0a3ca" d="M 53.5,15.5 C 53.8834,17.4085 54.8834,18.9085 56.5,20C 55.5842,20.2784 54.9175,20.7784 54.5,21.5C 53.7784,21.0825 53.2784,20.4158 53,19.5C 52.6667,20.5 52.3333,21.5 52,22.5C 50.9704,20.4117 50.1371,18.245 49.5,16C 50.4085,13.6807 52.0752,13.0141 54.5,14C 53.5,14.3333 52.5,14.6667 51.5,15C 52.0944,15.4643 52.7611,15.631 53.5,15.5 Z"/></g>
<g><path style="opacity:1" fill="#d3d9ec" d="M 76.5,95.5 C 77.4959,95.4142 78.3292,95.7476 79,96.5C 79.4652,97.9308 80.2986,99.0975 81.5,100C 79.536,101.794 78.036,101.294 77,98.5C 76.5172,97.552 76.3505,96.552 76.5,95.5 Z"/></g>
<g><path style="opacity:1" fill="#dbdded" d="M 39.5,94.5 C 42.0172,95.7262 44.3505,97.2262 46.5,99C 45.7808,101.648 44.1141,103.148 41.5,103.5C 41.8808,101.058 41.2141,100.391 39.5,101.5C 38.4249,99.1889 38.4249,96.8555 39.5,94.5 Z"/></g>
<g><path style="opacity:1" fill="#ced4e8" d="M 49.5,99.5 C 50.675,99.281 51.675,99.6143 52.5,100.5C 51.316,102.046 50.316,103.713 49.5,105.5C 48.6919,105.192 48.0253,104.692 47.5,104C 48.5822,102.67 49.2488,101.17 49.5,99.5 Z"/></g>
<g><path style="opacity:1" fill="#dee0ee" d="M 62.5,100.5 C 64.1667,100.5 65.8333,100.5 67.5,100.5C 67.5,102.5 67.5,104.5 67.5,106.5C 65.8333,106.5 64.1667,106.5 62.5,106.5C 62.5,104.5 62.5,102.5 62.5,100.5 Z"/></g>
<g><path style="opacity:1" fill="#ced2e6" d="M 70.5,98.5 C 71.8734,98.3433 73.2068,98.51 74.5,99C 73.6919,99.3076 73.0253,99.8076 72.5,100.5C 73.3914,101.59 74.3914,101.59 75.5,100.5C 76.8333,101.5 76.8333,102.5 75.5,103.5C 71.0711,105.043 69.4044,103.376 70.5,98.5 Z"/></g>
<g><path style="opacity:1" fill="#dfe1f1" d="M 54.5,100.5 C 56.1667,100.5 57.8333,100.5 59.5,100.5C 59.5,101.833 59.5,103.167 59.5,104.5C 57.857,104.48 56.5237,105.147 55.5,106.5C 54.5344,104.604 54.2011,102.604 54.5,100.5 Z"/></g>
</svg>
